<mxfile host="app.diagrams.net" modified="2023-09-03T07:44:10.723Z" agent="Mozilla/5.0 (Windows NT 10.0; Win64; x64) AppleWebKit/537.36 (KHTML, like Gecko) Chrome/116.0.0.0 Safari/537.36" etag="cVbloFod2tXi2cApLAOl" version="21.7.2" type="device">
  <diagram name="Page-1" id="gbp8BnoYTopGR79soo97">
    <mxGraphModel dx="1917" dy="808" grid="0" gridSize="10" guides="1" tooltips="1" connect="1" arrows="1" fold="1" page="0" pageScale="1" pageWidth="850" pageHeight="1100" math="0" shadow="0">
      <root>
        <mxCell id="0" />
        <mxCell id="1" parent="0" />
        <mxCell id="UkTJap6GeNjWdgkHiNkX-1" style="edgeStyle=orthogonalEdgeStyle;rounded=0;orthogonalLoop=1;jettySize=auto;html=1;" parent="1" source="UkTJap6GeNjWdgkHiNkX-4" target="UkTJap6GeNjWdgkHiNkX-8" edge="1">
          <mxGeometry relative="1" as="geometry">
            <Array as="points">
              <mxPoint x="619" y="305" />
              <mxPoint x="619" y="-202" />
            </Array>
          </mxGeometry>
        </mxCell>
        <mxCell id="UkTJap6GeNjWdgkHiNkX-2" style="edgeStyle=orthogonalEdgeStyle;rounded=0;orthogonalLoop=1;jettySize=auto;html=1;" parent="1" source="UkTJap6GeNjWdgkHiNkX-4" target="UkTJap6GeNjWdgkHiNkX-17" edge="1">
          <mxGeometry relative="1" as="geometry">
            <Array as="points">
              <mxPoint x="619" y="305" />
              <mxPoint x="619" y="313" />
            </Array>
          </mxGeometry>
        </mxCell>
        <mxCell id="UkTJap6GeNjWdgkHiNkX-3" style="edgeStyle=orthogonalEdgeStyle;rounded=0;orthogonalLoop=1;jettySize=auto;html=1;" parent="1" source="UkTJap6GeNjWdgkHiNkX-4" target="UkTJap6GeNjWdgkHiNkX-54" edge="1">
          <mxGeometry relative="1" as="geometry">
            <Array as="points">
              <mxPoint x="353" y="410" />
              <mxPoint x="-80" y="410" />
            </Array>
          </mxGeometry>
        </mxCell>
        <mxCell id="UkTJap6GeNjWdgkHiNkX-4" value="&lt;p style=&quot;line-height: 142%;&quot;&gt;&lt;b&gt;&lt;font data-font-src=&quot;https://fonts.googleapis.com/css?family=Roboto&quot; face=&quot;Roboto&quot; style=&quot;font-size: 15px;&quot;&gt;Bit Manipulation&lt;/font&gt;&lt;/b&gt;&lt;/p&gt;" style="rounded=1;whiteSpace=wrap;html=1;fillColor=#dae8fc;strokeColor=none;shadow=1;treeFolding=1;movable=1;resizable=1;rotatable=1;deletable=1;editable=1;locked=0;connectable=1;" parent="1" vertex="1">
          <mxGeometry x="288" y="258" width="129" height="94" as="geometry" />
        </mxCell>
        <mxCell id="UkTJap6GeNjWdgkHiNkX-5" style="edgeStyle=orthogonalEdgeStyle;rounded=0;orthogonalLoop=1;jettySize=auto;html=1;" parent="1" source="UkTJap6GeNjWdgkHiNkX-6" target="UkTJap6GeNjWdgkHiNkX-4" edge="1">
          <mxGeometry relative="1" as="geometry" />
        </mxCell>
        <UserObject label="&lt;p style=&quot;line-height: 260%;&quot;&gt;&lt;b&gt;&lt;font data-font-src=&quot;https://fonts.googleapis.com/css?family=Roboto&quot; face=&quot;Roboto&quot; style=&quot;font-size: 18px;&quot;&gt;DATA STRUCTURE AND ALGORITHM&lt;/font&gt;&lt;/b&gt;&lt;/p&gt;" link="https://github.com/SanjeetDutt/NOTES/blob/master/draw_io/000_DataStructureAndAlgo.drawio" id="UkTJap6GeNjWdgkHiNkX-6">
          <mxCell style="rounded=1;whiteSpace=wrap;html=1;fillColor=#d5e8d4;strokeColor=none;shadow=1;treeFolding=1;editable=1;movable=1;resizable=1;rotatable=1;deletable=1;locked=0;connectable=1;" parent="1" vertex="1">
            <mxGeometry x="65" y="258" width="197" height="94" as="geometry" />
          </mxCell>
        </UserObject>
        <mxCell id="UkTJap6GeNjWdgkHiNkX-7" value="" style="group" parent="1" vertex="1" connectable="0">
          <mxGeometry x="845" y="-328" width="652" height="395" as="geometry" />
        </mxCell>
        <mxCell id="UkTJap6GeNjWdgkHiNkX-8" value="&lt;p style=&quot;line-height: 142%;&quot;&gt;&lt;b&gt;&lt;font data-font-src=&quot;https://fonts.googleapis.com/css?family=Roboto&quot; face=&quot;Roboto&quot; style=&quot;font-size: 15px;&quot;&gt;Conversions&lt;/font&gt;&lt;/b&gt;&lt;/p&gt;" style="rounded=1;whiteSpace=wrap;html=1;fillColor=#dae8fc;strokeColor=none;shadow=1;treeFolding=0;movable=1;resizable=1;rotatable=1;deletable=1;editable=1;locked=0;connectable=1;" parent="UkTJap6GeNjWdgkHiNkX-7" vertex="1">
          <mxGeometry y="79" width="129" height="94" as="geometry" />
        </mxCell>
        <mxCell id="UkTJap6GeNjWdgkHiNkX-9" value="Binary to Decimal Conversion" style="swimlane;whiteSpace=wrap;html=1;fillColor=#b1ddf0;strokeColor=default;swimlaneFillColor=#FFFFFF;gradientColor=none;" parent="UkTJap6GeNjWdgkHiNkX-7" vertex="1">
          <mxGeometry x="319" width="277" height="93" as="geometry" />
        </mxCell>
        <mxCell id="UkTJap6GeNjWdgkHiNkX-10" value="" style="shape=image;verticalLabelPosition=bottom;labelBackgroundColor=default;verticalAlign=top;aspect=fixed;imageAspect=0;image=data:image/svg+xml,PHN2ZyB4bWxuczp4bGluaz0iaHR0cDovL3d3dy53My5vcmcvMTk5OS94bGluayIgeG1sbnM9Imh0dHA6Ly93d3cudzMub3JnLzIwMDAvc3ZnIiB2aWV3Qm94PSItLjIzOTA1MSAtLjIzNTI1NCAyNDIuODE3MTE4IDE0Ljk1Nzg3NSIgaGVpZ2h0PSIxNC45NTc4NzVwdCIgd2lkdGg9IjI0Mi44MTcxMThwdCIgdmVyc2lvbj0iMS4xIj4mI3hhOzxkZWZzPiYjeGE7PHBhdGggZD0iTTMuODk3Mzg1LTIuNTQyNDY2QzMuODk3Mzg1LTMuMzk1MjY4IDMuODA5NzE0LTMuOTEzMzI1IDMuNTQ2Ny00LjQyMzQxMkMzLjE5NjAxNS01LjEyNDc4MiAyLjU1MDQzNi01LjMwMDEyNSAyLjExMjA4LTUuMzAwMTI1QzEuMTA3ODQ2LTUuMzAwMTI1IC43NDEyMi00LjU1MDkzNCAuNjI5NjM5LTQuMzI3NzcxQy4zNDI3MTUtMy43NDU5NTMgLjMyNjc3NS0yLjk1NjkxMiAuMzI2Nzc1LTIuNTQyNDY2Qy4zMjY3NzUtMi4wMTY0MzggLjM1MDY4NS0xLjIxMTQ1NyAuNzMzMjUtLjU3Mzg0OEMxLjA5OTg3NSAuMDE1OTQgMS42ODk2NjQgLjE2NzM3MiAyLjExMjA4IC4xNjczNzJDMi40OTQ2NDUgLjE2NzM3MiAzLjE4MDA3NSAuMDQ3ODIxIDMuNTc4NTgtLjc0MTIyQzMuODczNDc0LTEuMzE1MDY4IDMuODk3Mzg1LTIuMDI0NDA4IDMuODk3Mzg1LTIuNTQyNDY2Wk0yLjExMjA4LS4wNTU3OTFDMS44NDEwOTYtLjA1NTc5MSAxLjI5MTE1OC0uMTgzMzEzIDEuMTIzNzg2LTEuMDIwMTc0QzEuMDM2MTE1LTEuNDc0NDcxIDEuMDM2MTE1LTIuMjIzNjYxIDEuMDM2MTE1LTIuNjM4MTA3QzEuMDM2MTE1LTMuMTg4MDQ1IDEuMDM2MTE1LTMuNzQ1OTUzIDEuMTIzNzg2LTQuMTg0MzA5QzEuMjkxMTU4LTQuOTk3MjYgMS45MTI4MjctNS4wNzY5NjEgMi4xMTIwOC01LjA3Njk2MUMyLjM4MzA2NC01LjA3Njk2MSAyLjkzMzAwMS00Ljk0MTQ2OSAzLjA5MjQwMy00LjIxNjE4OUMzLjE4ODA0NS0zLjc3NzgzMyAzLjE4ODA0NS0zLjE4MDA3NSAzLjE4ODA0NS0yLjYzODEwN0MzLjE4ODA0NS0yLjE2Nzg3IDMuMTg4MDQ1LTEuNDUwNTYgMy4wOTI0MDMtMS4wMDQyMzRDMi45MjUwMzEtLjE2NzM3MiAyLjM3NTA5My0uMDU1NzkxIDIuMTEyMDgtLjA1NTc5MVoiIGlkPSJnMS00OCIvPiYjeGE7PHBhdGggZD0iTTIuNTAyNjE1LTUuMDc2OTYxQzIuNTAyNjE1LTUuMjkyMTU0IDIuNDg2Njc1LTUuMzAwMTI1IDIuMjcxNDgyLTUuMzAwMTI1QzEuOTQ0NzA3LTQuOTgxMzIgMS41MjIyOTEtNC43OTAwMzcgLjc2NTEzMS00Ljc5MDAzN1YtNC41MjcwMjRDLjk4MDMyNC00LjUyNzAyNCAxLjQxMDcxLTQuNTI3MDI0IDEuODcyOTc2LTQuNzQyMjE3Vi0uNjUzNTQ5QzEuODcyOTc2LS4zNTg2NTUgMS44NDkwNjYtLjI2MzAxNCAxLjA5MTkwNS0uMjYzMDE0SC44MTI5NTFWMEMxLjEzOTcyNi0uMDIzOTEgMS44MjUxNTYtLjAyMzkxIDIuMTgzODExLS4wMjM5MVMzLjIzNTg2Ni0uMDIzOTEgMy41NjI2NCAwVi0uMjYzMDE0SDMuMjgzNjg2QzIuNTI2NTI2LS4yNjMwMTQgMi41MDI2MTUtLjM1ODY1NSAyLjUwMjYxNS0uNjUzNTQ5Vi01LjA3Njk2MVoiIGlkPSJnMS00OSIvPiYjeGE7PHBhdGggZD0iTTIuMjQ3NTcyLTEuNjI1OTAzQzIuMzc1MDkzLTEuNzQ1NDU1IDIuNzA5ODM4LTIuMDA4NDY4IDIuODM3MzYtMi4xMjAwNUMzLjMzMTUwNy0yLjU3NDM0NiAzLjgwMTc0My0zLjAxMjcwMiAzLjgwMTc0My0zLjczNzk4M0MzLjgwMTc0My00LjY4NjQyNiAzLjAwNDczMi01LjMwMDEyNSAyLjAwODQ2OC01LjMwMDEyNUMxLjA1MjA1NS01LjMwMDEyNSAuNDIyNDE2LTQuNTc0ODQ0IC40MjI0MTYtMy44NjU1MDRDLjQyMjQxNi0zLjQ3NDk2OSAuNzMzMjUtMy40MTkxNzggLjg0NDgzMi0zLjQxOTE3OEMxLjAxMjIwNC0zLjQxOTE3OCAxLjI1OTI3OC0zLjUzODczIDEuMjU5Mjc4LTMuODQxNTk0QzEuMjU5Mjc4LTQuMjU2MDQgLjg2MDc3Mi00LjI1NjA0IC43NjUxMzEtNC4yNTYwNEMuOTk2MjY0LTQuODM3ODU4IDEuNTMwMjYyLTUuMDM3MTExIDEuOTIwNzk3LTUuMDM3MTExQzIuNjYyMDE3LTUuMDM3MTExIDMuMDQ0NTgzLTQuNDA3NDcyIDMuMDQ0NTgzLTMuNzM3OTgzQzMuMDQ0NTgzLTIuOTA5MDkxIDIuNDYyNzY1LTIuMzAzMzYyIDEuNTIyMjkxLTEuMzM4OTc5TC41MTgwNTctLjMwMjg2NEMuNDIyNDE2LS4yMTUxOTMgLjQyMjQxNi0uMTk5MjUzIC40MjI0MTYgMEgzLjU3MDYxTDMuODAxNzQzLTEuNDI2NjVIMy41NTQ2N0MzLjUzMDc2LTEuMjY3MjQ4IDMuNDY2OTk5LS44Njg3NDIgMy4zNzEzNTctLjcxNzMxQzMuMzIzNTM3LS42NTM1NDkgMi43MTc4MDgtLjY1MzU0OSAyLjU5MDI4Ni0uNjUzNTQ5SDEuMTcxNjA2TDIuMjQ3NTcyLTEuNjI1OTAzWiIgaWQ9ImcxLTUwIi8+JiN4YTs8cGF0aCBkPSJNMi4wMTY0MzgtMi42NjIwMTdDMi42NDYwNzctMi42NjIwMTcgMy4wNDQ1ODMtMi4xOTk3NTEgMy4wNDQ1ODMtMS4zNjI4ODlDMy4wNDQ1ODMtLjM2NjYyNSAyLjQ3ODcwNS0uMDcxNzMxIDIuMDU2Mjg5LS4wNzE3MzFDMS42MTc5MzMtLjA3MTczMSAxLjAyMDE3NC0uMjMxMTMzIC43NDEyMi0uNjUzNTQ5QzEuMDI4MTQ0LS42NTM1NDkgMS4yMjczOTctLjgzNjg2MiAxLjIyNzM5Ny0xLjA5OTg3NUMxLjIyNzM5Ny0xLjM1NDkxOSAxLjA0NDA4NS0xLjUzODIzMiAuNzg5MDQxLTEuNTM4MjMyQy41NzM4NDgtMS41MzgyMzIgLjM1MDY4NS0xLjQwMjc0IC4zNTA2ODUtMS4wODM5MzVDLjM1MDY4NS0uMzI2Nzc1IDEuMTYzNjM2IC4xNjczNzIgMi4wNzIyMjkgLjE2NzM3MkMzLjEzMjI1NCAuMTY3MzcyIDMuODczNDc0LS41NjU4NzggMy44NzM0NzQtMS4zNjI4ODlDMy44NzM0NzQtMi4wMjQ0MDggMy4zNDc0NDctMi42MzAxMzcgMi41MzQ0OTYtMi44MDU0NzlDMy4xNjQxMzQtMy4wMjg2NDMgMy42MzQzNzEtMy41NzA2MSAzLjYzNDM3MS00LjIwODIxOVMyLjkxNzA2MS01LjMwMDEyNSAyLjA4ODE2OS01LjMwMDEyNUMxLjIzNTM2Ny01LjMwMDEyNSAuNTg5Nzg4LTQuODM3ODU4IC41ODk3ODgtNC4yMzIxM0MuNTg5Nzg4LTMuOTM3MjM1IC43ODkwNDEtMy44MDk3MTQgLjk5NjI2NC0zLjgwOTcxNEMxLjI0MzMzNy0zLjgwOTcxNCAxLjQwMjc0LTMuOTg1MDU2IDEuNDAyNzQtNC4yMTYxODlDMS40MDI3NC00LjUxMTA4MyAxLjE0NzY5Ni00LjYyMjY2NSAuOTcyMzU0LTQuNjMwNjM1QzEuMzA3MDk4LTUuMDY4OTkxIDEuOTIwNzk3LTUuMDkyOTAyIDIuMDY0MjU5LTUuMDkyOTAyQzIuMjcxNDgyLTUuMDkyOTAyIDIuODc3MjEtNS4wMjkxNDEgMi44NzcyMS00LjIwODIxOUMyLjg3NzIxLTMuNjUwMzExIDIuNjQ2MDc3LTMuMzE1NTY3IDIuNTM0NDk2LTMuMTg4MDQ1QzIuMjk1MzkyLTIuOTQwOTcxIDIuMTEyMDgtMi45MjUwMzEgMS42MjU5MDMtMi44OTMxNTFDMS40NzQ0NzEtMi44ODUxODEgMS40MTA3MS0yLjg3NzIxIDEuNDEwNzEtMi43NzM1OTlDMS40MTA3MS0yLjY2MjAxNyAxLjQ4MjQ0MS0yLjY2MjAxNyAxLjYxNzkzMy0yLjY2MjAxN0gyLjAxNjQzOFoiIGlkPSJnMS01MSIvPiYjeGE7PHBhdGggZD0iTTQuNjUwNTYtMy4zMjM1MzdMMi4yNTk1MjctNS43MDI2MTVDMi4xMTYwNjUtNS44NDYwNzcgMi4wOTIxNTQtNS44Njk5ODggMS45OTY1MTMtNS44Njk5ODhDMS44NzY5NjEtNS44Njk5ODggMS43NTc0MS01Ljc2MjM5MSAxLjc1NzQxLTUuNjMwODg0QzEuNzU3NDEtNS41NDcxOTggMS43ODEzMi01LjUyMzI4OCAxLjkxMjgyNy01LjM5MTc4MUw0LjMwMzg2MS0yLjk4ODc5MkwxLjkxMjgyNy0uNTg1ODAzQzEuNzgxMzItLjQ1NDI5NiAxLjc1NzQxLS40MzAzODYgMS43NTc0MS0uMzQ2N0MxLjc1NzQxLS4yMTUxOTMgMS44NzY5NjEtLjEwNzU5NyAxLjk5NjUxMy0uMTA3NTk3QzIuMDkyMTU0LS4xMDc1OTcgMi4xMTYwNjUtLjEzMTUwNyAyLjI1OTUyNy0uMjc0OTY5TDQuNjM4NjA1LTIuNjU0MDQ3TDcuMTEzMzI1LS4xNzkzMjhDNy4xMzcyMzUtLjE2NzM3MiA3LjIyMDkyMi0uMTA3NTk3IDcuMjkyNjUzLS4xMDc1OTdDNy40MzYxMTUtLjEwNzU5NyA3LjUzMTc1Ni0uMjE1MTkzIDcuNTMxNzU2LS4zNDY3QzcuNTMxNzU2LS4zNzA2MSA3LjUzMTc1Ni0uNDE4NDMxIDcuNDk1ODktLjQ3ODIwN0M3LjQ4MzkzNS0uNTAyMTE3IDUuNTgzMDY0LTIuMzc5MDc4IDQuOTg1MzA1LTIuOTg4NzkyTDcuMTczMTAxLTUuMTc2NTg4QzcuMjMyODc3LTUuMjQ4MzE5IDcuNDEyMjA0LTUuNDAzNzM2IDcuNDcxOTgtNS40NzU0NjdDNy40ODM5MzUtNS40OTkzNzcgNy41MzE3NTYtNS41NDcxOTggNy41MzE3NTYtNS42MzA4ODRDNy41MzE3NTYtNS43NjIzOTEgNy40MzYxMTUtNS44Njk5ODggNy4yOTI2NTMtNS44Njk5ODhDNy4xOTcwMTEtNS44Njk5ODggNy4xNDkxOTEtNS44MjIxNjcgNy4wMTc2ODQtNS42OTA2Nkw0LjY1MDU2LTMuMzIzNTM3WiIgaWQ9ImcwLTIiLz4mI3hhOzxwYXRoIGQ9Ik0zLjg4NTQzIDIuOTA1MTA2QzMuODg1NDMgMi44NjkyNCAzLjg4NTQzIDIuODQ1MzMgMy42ODIxOTIgMi42NDIwOTJDMi40ODY2NzUgMS40MzQ2MiAxLjgxNzE4Ni0uNTM3OTgzIDEuODE3MTg2LTIuOTc2ODM3QzEuODE3MTg2LTUuMjk2MTM5IDIuMzc5MDc4LTcuMjkyNjUzIDMuNzY1ODc4LTguNzAzMzYyQzMuODg1NDMtOC44MTA5NTkgMy44ODU0My04LjgzNDg2OSAzLjg4NTQzLTguODcwNzM1QzMuODg1NDMtOC45NDI0NjYgMy44MjU2NTQtOC45NjYzNzYgMy43Nzc4MzMtOC45NjYzNzZDMy42MjI0MTYtOC45NjYzNzYgMi42NDIwOTItOC4xMDU2MDQgMi4wNTYyODktNi45MzM5OThDMS40NDY1NzUtNS43MjY1MjYgMS4xNzE2MDYtNC40NDczMjMgMS4xNzE2MDYtMi45NzY4MzdDMS4xNzE2MDYtMS45MTI4MjcgMS4zMzg5NzktLjQ5MDE2MiAxLjk2MDY0OCAuNzg5MDQxQzIuNjY2MDAyIDIuMjIzNjYxIDMuNjQ2MzI2IDMuMDAwNzQ3IDMuNzc3ODMzIDMuMDAwNzQ3QzMuODI1NjU0IDMuMDAwNzQ3IDMuODg1NDMgMi45NzY4MzcgMy44ODU0MyAyLjkwNTEwNloiIGlkPSJnMi00MCIvPiYjeGE7PHBhdGggZD0iTTMuMzcxMzU3LTIuOTc2ODM3QzMuMzcxMzU3LTMuODg1NDMgMy4yNTE4MDYtNS4zNjc4NyAyLjU4MjMxNi02Ljc1NDY3QzEuODc2OTYxLTguMTg5MjkgLjg5NjYzOC04Ljk2NjM3NiAuNzY1MTMxLTguOTY2Mzc2Qy43MTczMS04Ljk2NjM3NiAuNjU3NTM0LTguOTQyNDY2IC42NTc1MzQtOC44NzA3MzVDLjY1NzUzNC04LjgzNDg2OSAuNjU3NTM0LTguODEwOTU5IC44NjA3NzItOC42MDc3MjFDMi4wNTYyODktNy40MDAyNDkgMi43MjU3NzgtNS40Mjc2NDYgMi43MjU3NzgtMi45ODg3OTJDMi43MjU3NzgtLjY2OTQ4OSAyLjE2Mzg4NSAxLjMyNzAyNCAuNzc3MDg2IDIuNzM3NzMzQy42NTc1MzQgMi44NDUzMyAuNjU3NTM0IDIuODY5MjQgLjY1NzUzNCAyLjkwNTEwNkMuNjU3NTM0IDIuOTc2ODM3IC43MTczMSAzLjAwMDc0NyAuNzY1MTMxIDMuMDAwNzQ3Qy45MjA1NDggMy4wMDA3NDcgMS45MDA4NzIgMi4xMzk5NzUgMi40ODY2NzUgLjk2ODM2OUMzLjA5NjM4OS0uMjUxMDU5IDMuMzcxMzU3LTEuNTQyMjE3IDMuMzcxMzU3LTIuOTc2ODM3WiIgaWQ9ImcyLTQxIi8+JiN4YTs8cGF0aCBkPSJNNC43NzAxMTItMi43NjE2NDRIOC4wNjk3MzhDOC4yMzcxMTEtMi43NjE2NDQgOC40NTIzMDQtMi43NjE2NDQgOC40NTIzMDQtMi45NzY4MzdDOC40NTIzMDQtMy4yMDM5ODUgOC4yNDkwNjYtMy4yMDM5ODUgOC4wNjk3MzgtMy4yMDM5ODVINC43NzAxMTJWLTYuNTAzNjExQzQuNzcwMTEyLTYuNjcwOTg0IDQuNzcwMTEyLTYuODg2MTc3IDQuNTU0OTE5LTYuODg2MTc3QzQuMzI3NzcxLTYuODg2MTc3IDQuMzI3NzcxLTYuNjgyOTM5IDQuMzI3NzcxLTYuNTAzNjExVi0zLjIwMzk4NUgxLjAyODE0NEMuODYwNzcyLTMuMjAzOTg1IC42NDU1NzktMy4yMDM5ODUgLjY0NTU3OS0yLjk4ODc5MkMuNjQ1NTc5LTIuNzYxNjQ0IC44NDg4MTctMi43NjE2NDQgMS4wMjgxNDQtMi43NjE2NDRINC4zMjc3NzFWLjUzNzk4M0M0LjMyNzc3MSAuNzA1MzU1IDQuMzI3NzcxIC45MjA1NDggNC41NDI5NjQgLjkyMDU0OEM0Ljc3MDExMiAuOTIwNTQ4IDQuNzcwMTEyIC43MTczMSA0Ljc3MDExMiAuNTM3OTgzVi0yLjc2MTY0NFoiIGlkPSJnMi00MyIvPiYjeGE7PHBhdGggZD0iTTUuMzU1OTE1LTMuODI1NjU0QzUuMzU1OTE1LTQuODE3OTMzIDUuMjk2MTM5LTUuNzg2MzAxIDQuODY1NzUzLTYuNjk0ODk0QzQuMzc1NTkyLTcuNjg3MTczIDMuNTE0ODE5LTcuOTUwMTg3IDIuOTI5MDE2LTcuOTUwMTg3QzIuMjM1NjE2LTcuOTUwMTg3IDEuMzg2OC03LjYwMzQ4NyAuOTQ0NDU4LTYuNjExMjA4Qy42MDk3MTQtNS44NTgwMzIgLjQ5MDE2Mi01LjExNjgxMiAuNDkwMTYyLTMuODI1NjU0Qy40OTAxNjItMi42NjYwMDIgLjU3Mzg0OC0xLjc5MzI3NSAxLjAwNDIzNC0uOTQ0NDU4QzEuNDcwNDg2LS4wMzU4NjYgMi4yOTUzOTIgLjI1MTA1OSAyLjkxNzA2MSAuMjUxMDU5QzMuOTU3MTYxIC4yNTEwNTkgNC41NTQ5MTktLjM3MDYxIDQuOTAxNjE5LTEuMDY0MDFDNS4zMzIwMDUtMS45NjA2NDggNS4zNTU5MTUtMy4xMzIyNTQgNS4zNTU5MTUtMy44MjU2NTRaTTIuOTE3MDYxIC4wMTE5NTVDMi41MzQ0OTYgLjAxMTk1NSAxLjc1NzQxLS4yMDMyMzggMS41MzAyNjItMS41MDYzNTFDMS4zOTg3NTUtMi4yMjM2NjEgMS4zOTg3NTUtMy4xMzIyNTQgMS4zOTg3NTUtMy45NjkxMTZDMS4zOTg3NTUtNC45NDk0NCAxLjM5ODc1NS01LjgzNDEyMiAxLjU5MDAzNy02LjUzOTQ3N0MxLjc5MzI3NS03LjM0MDQ3MyAyLjQwMjk4OS03LjcxMTA4MyAyLjkxNzA2MS03LjcxMTA4M0MzLjM3MTM1Ny03LjcxMTA4MyA0LjA2NDc1Ny03LjQzNjExNSA0LjI5MTkwNS02LjQwNzk3QzQuNDQ3MzIzLTUuNzI2NTI2IDQuNDQ3MzIzLTQuNzgyMDY3IDQuNDQ3MzIzLTMuOTY5MTE2QzQuNDQ3MzIzLTMuMTY4MTIgNC40NDczMjMtMi4yNTk1MjcgNC4zMTU4MTYtMS41MzAyNjJDNC4wODg2NjctLjIxNTE5MyAzLjMzNTQ5MiAuMDExOTU1IDIuOTE3MDYxIC4wMTE5NTVaIiBpZD0iZzItNDgiLz4mI3hhOzxwYXRoIGQ9Ik0zLjQ0MzA4OC03LjY2MzI2M0MzLjQ0MzA4OC03LjkzODIzMiAzLjQ0MzA4OC03Ljk1MDE4NyAzLjIwMzk4NS03Ljk1MDE4N0MyLjkxNzA2MS03LjYyNzM5NyAyLjMxOTMwMy03LjE4NTA1NiAxLjA4NzkyLTcuMTg1MDU2Vi02LjgzODM1NkMxLjM2Mjg4OS02LjgzODM1NiAxLjk2MDY0OC02LjgzODM1NiAyLjYxODE4Mi03LjE0OTE5MVYtLjkyMDU0OEMyLjYxODE4Mi0uNDkwMTYyIDIuNTgyMzE2LS4zNDY3IDEuNTMwMjYyLS4zNDY3SDEuMTU5NjUxVjBDMS40ODI0NDEtLjAyMzkxIDIuNjQyMDkyLS4wMjM5MSAzLjAzNjYxMy0uMDIzOTFTNC41Nzg4MjktLjAyMzkxIDQuOTAxNjE5IDBWLS4zNDY3SDQuNTMxMDA5QzMuNDc4OTU0LS4zNDY3IDMuNDQzMDg4LS40OTAxNjIgMy40NDMwODgtLjkyMDU0OFYtNy42NjMyNjNaIiBpZD0iZzItNDkiLz4mI3hhOzxwYXRoIGQ9Ik01LjI2MDI3NC0yLjAwODQ2OEg0Ljk5NzI2QzQuOTYxMzk1LTEuODA1MjMgNC44NjU3NTMtMS4xNDc2OTYgNC43NDYyMDItLjk1NjQxM0M0LjY2MjUxNi0uODQ4ODE3IDMuOTgxMDcxLS44NDg4MTcgMy42MjI0MTYtLjg0ODgxN0gxLjQxMDcxQzEuNzMzNDk5LTEuMTIzNzg2IDIuNDYyNzY1LTEuODg4OTE3IDIuNzczNTk5LTIuMTc1ODQxQzQuNTkwNzg1LTMuODQ5NTY0IDUuMjYwMjc0LTQuNDcxMjMzIDUuMjYwMjc0LTUuNjU0Nzk1QzUuMjYwMjc0LTcuMDI5NjM5IDQuMTcyMzU0LTcuOTUwMTg3IDIuNzg1NTU0LTcuOTUwMTg3Uy41ODU4MDMtNi43NjY2MjUgLjU4NTgwMy01LjczODQ4MUMuNTg1ODAzLTUuMTI4NzY3IDEuMTExODMxLTUuMTI4NzY3IDEuMTQ3Njk2LTUuMTI4NzY3QzEuMzk4NzU1LTUuMTI4NzY3IDEuNzA5NTg5LTUuMzA4MDk1IDEuNzA5NTg5LTUuNjkwNjZDMS43MDk1ODktNi4wMjU0MDUgMS40ODI0NDEtNi4yNTI1NTMgMS4xNDc2OTYtNi4yNTI1NTNDMS4wNDAxLTYuMjUyNTUzIDEuMDE2MTg5LTYuMjUyNTUzIC45ODAzMjQtNi4yNDA1OThDMS4yMDc0NzItNy4wNTM1NDkgMS44NTMwNTEtNy42MDM0ODcgMi42MzAxMzctNy42MDM0ODdDMy42NDYzMjYtNy42MDM0ODcgNC4yNjc5OTUtNi43NTQ2NyA0LjI2Nzk5NS01LjY1NDc5NUM0LjI2Nzk5NS00LjYzODYwNSAzLjY4MjE5Mi0zLjc1MzkyMyAzLjAwMDc0Ny0yLjk4ODc5MkwuNTg1ODAzLS4yODY5MjRWMEg0Ljk0OTQ0TDUuMjYwMjc0LTIuMDA4NDY4WiIgaWQ9ImcyLTUwIi8+JiN4YTs8cGF0aCBkPSJNOC4wNjk3MzgtMy44NzM0NzRDOC4yMzcxMTEtMy44NzM0NzQgOC40NTIzMDQtMy44NzM0NzQgOC40NTIzMDQtNC4wODg2NjdDOC40NTIzMDQtNC4zMTU4MTYgOC4yNDkwNjYtNC4zMTU4MTYgOC4wNjk3MzgtNC4zMTU4MTZIMS4wMjgxNDRDLjg2MDc3Mi00LjMxNTgxNiAuNjQ1NTc5LTQuMzE1ODE2IC42NDU1NzktNC4xMDA2MjNDLjY0NTU3OS0zLjg3MzQ3NCAuODQ4ODE3LTMuODczNDc0IDEuMDI4MTQ0LTMuODczNDc0SDguMDY5NzM4Wk04LjA2OTczOC0xLjY0OTgxM0M4LjIzNzExMS0xLjY0OTgxMyA4LjQ1MjMwNC0xLjY0OTgxMyA4LjQ1MjMwNC0xLjg2NTAwNkM4LjQ1MjMwNC0yLjA5MjE1NCA4LjI0OTA2Ni0yLjA5MjE1NCA4LjA2OTczOC0yLjA5MjE1NEgxLjAyODE0NEMuODYwNzcyLTIuMDkyMTU0IC42NDU1NzktMi4wOTIxNTQgLjY0NTU3OS0xLjg3Njk2MUMuNjQ1NTc5LTEuNjQ5ODEzIC44NDg4MTctMS42NDk4MTMgMS4wMjgxNDQtMS42NDk4MTNIOC4wNjk3MzhaIiBpZD0iZzItNjEiLz4mI3hhOzwvZGVmcz4mI3hhOzxnIHRyYW5zZm9ybT0ibWF0cml4KDEuMTMgMCAwIDEuMTMgLTYzLjk4NjA0MyAtNjIuOTY5NTkzKSIgaWQ9InBhZ2UxIj4mI3hhOzx1c2UgeGxpbms6aHJlZj0iI2cyLTQwIiB5PSI2NS43NTM0MjUiIHg9IjU2LjQxMzI2NyIvPiYjeGE7PHVzZSB4bGluazpocmVmPSIjZzItNDkiIHk9IjY1Ljc1MzQyNSIgeD0iNjAuOTY1NTkzIi8+JiN4YTs8dXNlIHhsaW5rOmhyZWY9IiNnMi00OCIgeT0iNjUuNzUzNDI1IiB4PSI2Ni44MTg1ODMiLz4mI3hhOzx1c2UgeGxpbms6aHJlZj0iI2cyLTQ5IiB5PSI2NS43NTM0MjUiIHg9IjcyLjY3MTU3MyIvPiYjeGE7PHVzZSB4bGluazpocmVmPSIjZzItNDkiIHk9IjY1Ljc1MzQyNSIgeD0iNzguNTI0NTY0Ii8+JiN4YTs8dXNlIHhsaW5rOmhyZWY9IiNnMi00MSIgeT0iNjUuNzUzNDI1IiB4PSI4NC4zNzc1NTQiLz4mI3hhOzx1c2UgeGxpbms6aHJlZj0iI2cyLTYxIiB5PSI2NS43NTM0MjUiIHg9IjkyLjI1MDcwOSIvPiYjeGE7PHVzZSB4bGluazpocmVmPSIjZzItNDkiIHk9IjY1Ljc1MzQyNSIgeD0iMTA0LjY3NjE5Ii8+JiN4YTs8dXNlIHhsaW5rOmhyZWY9IiNnMC0yIiB5PSI2NS43NTM0MjUiIHg9IjExMy4xODU4NDQiLz4mI3hhOzx1c2UgeGxpbms6aHJlZj0iI2cyLTUwIiB5PSI2NS43NTM0MjUiIHg9IjEyNS4xNDEwMDQiLz4mI3hhOzx1c2UgeGxpbms6aHJlZj0iI2cxLTUxIiB5PSI2MC44MTcyMzkiIHg9IjEzMC45OTM5OTQiLz4mI3hhOzx1c2UgeGxpbms6aHJlZj0iI2cyLTQzIiB5PSI2NS43NTM0MjUiIHg9IjEzOC4zODI5NzMiLz4mI3hhOzx1c2UgeGxpbms6aHJlZj0iI2cyLTQ4IiB5PSI2NS43NTM0MjUiIHg9IjE1MC4xNDQyODgiLz4mI3hhOzx1c2UgeGxpbms6aHJlZj0iI2cwLTIiIHk9IjY1Ljc1MzQyNSIgeD0iMTU4LjY1Mzk0MSIvPiYjeGE7PHVzZSB4bGluazpocmVmPSIjZzItNTAiIHk9IjY1Ljc1MzQyNSIgeD0iMTcwLjYwOTEwMiIvPiYjeGE7PHVzZSB4bGluazpocmVmPSIjZzEtNTAiIHk9IjYwLjgxNzIzOSIgeD0iMTc2LjQ2MjA5MiIvPiYjeGE7PHVzZSB4bGluazpocmVmPSIjZzItNDMiIHk9IjY1Ljc1MzQyNSIgeD0iMTgzLjg1MTA3MSIvPiYjeGE7PHVzZSB4bGluazpocmVmPSIjZzItNDkiIHk9IjY1Ljc1MzQyNSIgeD0iMTk1LjYxMjM4NiIvPiYjeGE7PHVzZSB4bGluazpocmVmPSIjZzAtMiIgeT0iNjUuNzUzNDI1IiB4PSIyMDQuMTIyMDM5Ii8+JiN4YTs8dXNlIHhsaW5rOmhyZWY9IiNnMi01MCIgeT0iNjUuNzUzNDI1IiB4PSIyMTYuMDc3MiIvPiYjeGE7PHVzZSB4bGluazpocmVmPSIjZzEtNDkiIHk9IjYwLjgxNzIzOSIgeD0iMjIxLjkzMDE5Ii8+JiN4YTs8dXNlIHhsaW5rOmhyZWY9IiNnMi00MyIgeT0iNjUuNzUzNDI1IiB4PSIyMjkuMzE5MTY4Ii8+JiN4YTs8dXNlIHhsaW5rOmhyZWY9IiNnMi00OSIgeT0iNjUuNzUzNDI1IiB4PSIyNDEuMDgwNDgzIi8+JiN4YTs8dXNlIHhsaW5rOmhyZWY9IiNnMC0yIiB5PSI2NS43NTM0MjUiIHg9IjI0OS41OTAxMzciLz4mI3hhOzx1c2UgeGxpbms6aHJlZj0iI2cyLTUwIiB5PSI2NS43NTM0MjUiIHg9IjI2MS41NDUyOTgiLz4mI3hhOzx1c2UgeGxpbms6aHJlZj0iI2cxLTQ4IiB5PSI2MC44MTcyMzkiIHg9IjI2Ny4zOTgyODgiLz4mI3hhOzwvZz4mI3hhOzwvc3ZnPg==;" parent="UkTJap6GeNjWdgkHiNkX-9" vertex="1">
          <mxGeometry x="13.000882833729747" y="43.99741046407962" width="243" height="15" as="geometry" />
        </mxCell>
        <mxCell id="UkTJap6GeNjWdgkHiNkX-11" value="" style="shape=image;verticalLabelPosition=bottom;labelBackgroundColor=default;verticalAlign=top;aspect=fixed;imageAspect=0;image=data:image/svg+xml,PHN2ZyB4bWxuczp4bGluaz0iaHR0cDovL3d3dy53My5vcmcvMTk5OS94bGluayIgeG1sbnM9Imh0dHA6Ly93d3cudzMub3JnLzIwMDAvc3ZnIiB2aWV3Qm94PSItLjIzOTA1MSAtLjI0NDk0MSA5Ni40MTMxMDEgMTAuMDIzOTMiIGhlaWdodD0iMTAuMDIzOTNwdCIgd2lkdGg9Ijk2LjQxMzEwMXB0IiB2ZXJzaW9uPSIxLjEiPiYjeGE7PGRlZnM+JiN4YTs8cGF0aCBkPSJNNC43NzAxMTItMi43NjE2NDRIOC4wNjk3MzhDOC4yMzcxMTEtMi43NjE2NDQgOC40NTIzMDQtMi43NjE2NDQgOC40NTIzMDQtMi45NzY4MzdDOC40NTIzMDQtMy4yMDM5ODUgOC4yNDkwNjYtMy4yMDM5ODUgOC4wNjk3MzgtMy4yMDM5ODVINC43NzAxMTJWLTYuNTAzNjExQzQuNzcwMTEyLTYuNjcwOTg0IDQuNzcwMTEyLTYuODg2MTc3IDQuNTU0OTE5LTYuODg2MTc3QzQuMzI3NzcxLTYuODg2MTc3IDQuMzI3NzcxLTYuNjgyOTM5IDQuMzI3NzcxLTYuNTAzNjExVi0zLjIwMzk4NUgxLjAyODE0NEMuODYwNzcyLTMuMjAzOTg1IC42NDU1NzktMy4yMDM5ODUgLjY0NTU3OS0yLjk4ODc5MkMuNjQ1NTc5LTIuNzYxNjQ0IC44NDg4MTctMi43NjE2NDQgMS4wMjgxNDQtMi43NjE2NDRINC4zMjc3NzFWLjUzNzk4M0M0LjMyNzc3MSAuNzA1MzU1IDQuMzI3NzcxIC45MjA1NDggNC41NDI5NjQgLjkyMDU0OEM0Ljc3MDExMiAuOTIwNTQ4IDQuNzcwMTEyIC43MTczMSA0Ljc3MDExMiAuNTM3OTgzVi0yLjc2MTY0NFoiIGlkPSJnMC00MyIvPiYjeGE7PHBhdGggZD0iTTMuNDQzMDg4LTcuNjYzMjYzQzMuNDQzMDg4LTcuOTM4MjMyIDMuNDQzMDg4LTcuOTUwMTg3IDMuMjAzOTg1LTcuOTUwMTg3QzIuOTE3MDYxLTcuNjI3Mzk3IDIuMzE5MzAzLTcuMTg1MDU2IDEuMDg3OTItNy4xODUwNTZWLTYuODM4MzU2QzEuMzYyODg5LTYuODM4MzU2IDEuOTYwNjQ4LTYuODM4MzU2IDIuNjE4MTgyLTcuMTQ5MTkxVi0uOTIwNTQ4QzIuNjE4MTgyLS40OTAxNjIgMi41ODIzMTYtLjM0NjcgMS41MzAyNjItLjM0NjdIMS4xNTk2NTFWMEMxLjQ4MjQ0MS0uMDIzOTEgMi42NDIwOTItLjAyMzkxIDMuMDM2NjEzLS4wMjM5MVM0LjU3ODgyOS0uMDIzOTEgNC45MDE2MTkgMFYtLjM0NjdINC41MzEwMDlDMy40Nzg5NTQtLjM0NjcgMy40NDMwODgtLjQ5MDE2MiAzLjQ0MzA4OC0uOTIwNTQ4Vi03LjY2MzI2M1oiIGlkPSJnMC00OSIvPiYjeGE7PHBhdGggZD0iTTUuMjYwMjc0LTIuMDA4NDY4SDQuOTk3MjZDNC45NjEzOTUtMS44MDUyMyA0Ljg2NTc1My0xLjE0NzY5NiA0Ljc0NjIwMi0uOTU2NDEzQzQuNjYyNTE2LS44NDg4MTcgMy45ODEwNzEtLjg0ODgxNyAzLjYyMjQxNi0uODQ4ODE3SDEuNDEwNzFDMS43MzM0OTktMS4xMjM3ODYgMi40NjI3NjUtMS44ODg5MTcgMi43NzM1OTktMi4xNzU4NDFDNC41OTA3ODUtMy44NDk1NjQgNS4yNjAyNzQtNC40NzEyMzMgNS4yNjAyNzQtNS42NTQ3OTVDNS4yNjAyNzQtNy4wMjk2MzkgNC4xNzIzNTQtNy45NTAxODcgMi43ODU1NTQtNy45NTAxODdTLjU4NTgwMy02Ljc2NjYyNSAuNTg1ODAzLTUuNzM4NDgxQy41ODU4MDMtNS4xMjg3NjcgMS4xMTE4MzEtNS4xMjg3NjcgMS4xNDc2OTYtNS4xMjg3NjdDMS4zOTg3NTUtNS4xMjg3NjcgMS43MDk1ODktNS4zMDgwOTUgMS43MDk1ODktNS42OTA2NkMxLjcwOTU4OS02LjAyNTQwNSAxLjQ4MjQ0MS02LjI1MjU1MyAxLjE0NzY5Ni02LjI1MjU1M0MxLjA0MDEtNi4yNTI1NTMgMS4wMTYxODktNi4yNTI1NTMgLjk4MDMyNC02LjI0MDU5OEMxLjIwNzQ3Mi03LjA1MzU0OSAxLjg1MzA1MS03LjYwMzQ4NyAyLjYzMDEzNy03LjYwMzQ4N0MzLjY0NjMyNi03LjYwMzQ4NyA0LjI2Nzk5NS02Ljc1NDY3IDQuMjY3OTk1LTUuNjU0Nzk1QzQuMjY3OTk1LTQuNjM4NjA1IDMuNjgyMTkyLTMuNzUzOTIzIDMuMDAwNzQ3LTIuOTg4NzkyTC41ODU4MDMtLjI4NjkyNFYwSDQuOTQ5NDRMNS4yNjAyNzQtMi4wMDg0NjhaIiBpZD0iZzAtNTAiLz4mI3hhOzxwYXRoIGQ9Ik0zLjU2MjY0LTQuMzE1ODE2QzQuMTYwMzk5LTQuNjM4NjA1IDUuMDMzMTI2LTUuMTg4NTQzIDUuMDMzMTI2LTYuMTkyNzc3QzUuMDMzMTI2LTcuMjMyODc3IDQuMDI4ODkyLTcuOTUwMTg3IDIuOTI5MDE2LTcuOTUwMTg3QzEuNzQ1NDU1LTcuOTUwMTg3IC44MTI5NTEtNy4wNzc0NiAuODEyOTUxLTUuOTg5NTM5Qy44MTI5NTEtNS41ODMwNjQgLjkzMjUwMy01LjE3NjU4OCAxLjI2NzI0OC00Ljc3MDExMkMxLjM5ODc1NS00LjYxNDY5NSAxLjQxMDcxLTQuNjAyNzQgMi4yNDc1NzItNC4wMTY5MzZDMS4wODc5Mi0zLjQ3ODk1NCAuNDkwMTYyLTIuNjc3OTU4IC40OTAxNjItMS44MDUyM0MuNDkwMTYyLS41Mzc5ODMgMS42OTc2MzQgLjI1MTA1OSAyLjkxNzA2MSAuMjUxMDU5QzQuMjQ0MDg1IC4yNTEwNTkgNS4zNTU5MTUtLjcyOTI2NSA1LjM1NTkxNS0xLjk4NDU1OEM1LjM1NTkxNS0zLjIwMzk4NSA0LjQ5NTE0My0zLjc0MTk2OCAzLjU2MjY0LTQuMzE1ODE2Wk0xLjkzNjczNy01LjM5MTc4MUMxLjc4MTMyLTUuNDk5Mzc3IDEuMzAzMTEzLTUuODEwMjEyIDEuMzAzMTEzLTYuMzk2MDE1QzEuMzAzMTEzLTcuMTczMTAxIDIuMTE2MDY1LTcuNjYzMjYzIDIuOTE3MDYxLTcuNjYzMjYzQzMuNzc3ODMzLTcuNjYzMjYzIDQuNTQyOTY0LTcuMDQxNTk0IDQuNTQyOTY0LTYuMTgwODIyQzQuNTQyOTY0LTUuNDUxNTU3IDQuMDE2OTM2LTQuODY1NzUzIDMuMzIzNTM3LTQuNDgzMTg4TDEuOTM2NzM3LTUuMzkxNzgxWk0yLjQ5ODYzLTMuODQ5NTY0TDMuOTQ1MjA1LTIuOTA1MTA2QzQuMjU2MDQtMi43MDE4NjggNC44MDU5NzgtMi4zMzEyNTggNC44MDU5NzgtMS42MDE5OTNDNC44MDU5NzgtLjY5MzQgMy44ODU0My0uMDcxNzMxIDIuOTI5MDE2LS4wNzE3MzFDMS45MTI4MjctLjA3MTczMSAxLjA0MDEtLjgxMjk1MSAxLjA0MDEtMS44MDUyM0MxLjA0MDEtMi43Mzc3MzMgMS43MjE1NDQtMy40OTA5MDkgMi40OTg2My0zLjg0OTU2NFoiIGlkPSJnMC01NiIvPiYjeGE7PHBhdGggZD0iTTguMDY5NzM4LTMuODczNDc0QzguMjM3MTExLTMuODczNDc0IDguNDUyMzA0LTMuODczNDc0IDguNDUyMzA0LTQuMDg4NjY3QzguNDUyMzA0LTQuMzE1ODE2IDguMjQ5MDY2LTQuMzE1ODE2IDguMDY5NzM4LTQuMzE1ODE2SDEuMDI4MTQ0Qy44NjA3NzItNC4zMTU4MTYgLjY0NTU3OS00LjMxNTgxNiAuNjQ1NTc5LTQuMTAwNjIzQy42NDU1NzktMy44NzM0NzQgLjg0ODgxNy0zLjg3MzQ3NCAxLjAyODE0NC0zLjg3MzQ3NEg4LjA2OTczOFpNOC4wNjk3MzgtMS42NDk4MTNDOC4yMzcxMTEtMS42NDk4MTMgOC40NTIzMDQtMS42NDk4MTMgOC40NTIzMDQtMS44NjUwMDZDOC40NTIzMDQtMi4wOTIxNTQgOC4yNDkwNjYtMi4wOTIxNTQgOC4wNjk3MzgtMi4wOTIxNTRIMS4wMjgxNDRDLjg2MDc3Mi0yLjA5MjE1NCAuNjQ1NTc5LTIuMDkyMTU0IC42NDU1NzktMS44NzY5NjFDLjY0NTU3OS0xLjY0OTgxMyAuODQ4ODE3LTEuNjQ5ODEzIDEuMDI4MTQ0LTEuNjQ5ODEzSDguMDY5NzM4WiIgaWQ9ImcwLTYxIi8+JiN4YTs8L2RlZnM+JiN4YTs8ZyB0cmFuc2Zvcm09Im1hdHJpeCgxLjEzIDAgMCAxLjEzIC02My45ODYwNDMgLTY1LjU2MjYpIiBpZD0icGFnZTEiPiYjeGE7PHVzZSB4bGluazpocmVmPSIjZzAtNjEiIHk9IjY1Ljc1MzQyNSIgeD0iNTYuNDEzMjY3Ii8+JiN4YTs8dXNlIHhsaW5rOmhyZWY9IiNnMC01NiIgeT0iNjUuNzUzNDI1IiB4PSI2OC44Mzg3NDgiLz4mI3hhOzx1c2UgeGxpbms6aHJlZj0iI2cwLTQzIiB5PSI2NS43NTM0MjUiIHg9Ijc3LjM0ODQwMiIvPiYjeGE7PHVzZSB4bGluazpocmVmPSIjZzAtNTAiIHk9IjY1Ljc1MzQyNSIgeD0iODkuMTA5NzE3Ii8+JiN4YTs8dXNlIHhsaW5rOmhyZWY9IiNnMC00MyIgeT0iNjUuNzUzNDI1IiB4PSI5Ny42MTkzNyIvPiYjeGE7PHVzZSB4bGluazpocmVmPSIjZzAtNDkiIHk9IjY1Ljc1MzQyNSIgeD0iMTA5LjM4MDY4NSIvPiYjeGE7PHVzZSB4bGluazpocmVmPSIjZzAtNjEiIHk9IjY1Ljc1MzQyNSIgeD0iMTE4LjU1NDUwNSIvPiYjeGE7PHVzZSB4bGluazpocmVmPSIjZzAtNDkiIHk9IjY1Ljc1MzQyNSIgeD0iMTMwLjk3OTk4NiIvPiYjeGE7PHVzZSB4bGluazpocmVmPSIjZzAtNDkiIHk9IjY1Ljc1MzQyNSIgeD0iMTM2LjgzMjk3NiIvPiYjeGE7PC9nPiYjeGE7PC9zdmc+;" parent="UkTJap6GeNjWdgkHiNkX-9" vertex="1">
          <mxGeometry x="57.00218718155577" y="72.99741046407962" width="96" height="10" as="geometry" />
        </mxCell>
        <mxCell id="UkTJap6GeNjWdgkHiNkX-12" style="edgeStyle=orthogonalEdgeStyle;rounded=0;orthogonalLoop=1;jettySize=auto;html=1;" parent="UkTJap6GeNjWdgkHiNkX-7" source="UkTJap6GeNjWdgkHiNkX-8" target="UkTJap6GeNjWdgkHiNkX-9" edge="1">
          <mxGeometry relative="1" as="geometry" />
        </mxCell>
        <mxCell id="UkTJap6GeNjWdgkHiNkX-13" value="Decimal to Binary Conversion" style="swimlane;whiteSpace=wrap;html=1;fillColor=#b1ddf0;strokeColor=default;swimlaneFillColor=#FFFFFF;gradientColor=none;" parent="UkTJap6GeNjWdgkHiNkX-7" vertex="1">
          <mxGeometry x="319" y="119" width="333" height="276" as="geometry" />
        </mxCell>
        <mxCell id="UkTJap6GeNjWdgkHiNkX-14" value="" style="shape=image;verticalLabelPosition=bottom;labelBackgroundColor=default;verticalAlign=top;aspect=fixed;imageAspect=0;image=data:image/png,iVBORw0KGgoAAAANSUhEUgAAANsAAADNCAYAAAAxDAXGAAAAAXNSR0IArs4c6QAAAARnQU1BAACxjwv8YQUAAAAJcEhZcwAADsMAAA7DAcdvqGQAAA/TSURBVHhe7d1JbBvXHQbwT7bkeI1tyY635EYKhaKe2gAF1Z7cHkhfBLRV2kuENgF1FHtQCxQ6Gj3UQEChSBMxdh05jhelsWUnIbM2h4JsU8fyEkZoRSJo0aBpkKZZasmLbKvvDd+Ii8RF0ptHmu/7AYTFoUTyT/ObN28482fLvABDPvjgAzz88MPqmn1Yv931r1H/EpHHGDYiQxg2IkMYNiJDGDYiQxg2IkMYNiJDGDYiQxg2IkNa0um0sSNIiGzGw7UMYv08XIuIDGDYiAxh2IgMYdiIDLEobFmM9LRgIKGuEhnGka1ucuFvaSm8DIDrgubFsNVZIJqB/PRFXuLhGEIceptWHcPmbtYlMLCwZu/BSFbdvNRmX2IALT0j4hZJ3i5/v/Dv5chQOGIU3p+r3ONJpaNN4Ugj/078/oh4Dotu0yPYGwbS06o+qdLzWWn9VC91H9lioYPoyrhr9hQih5bzFha/759ArzMyZBANiJGhxY+p4dz9ZaJApN8NZ07h4zm3+/Nv4MSAH5HuuHNb7vY0QgvhlsTjRYC4c/sogmqpHiIkB2NAdyd8aklNz2eZ9VP91D1s4XgSg+rdtXjNXl047r7pfTjQF5ALMKpS4OvsFu/HKWRyVx2Fj+cbHEYYaUzLB8yO4GAsgOhQPkLO7alxvFrwhPKPp0cq4lejkB/jfWKT0n3yy34+tdVP9cM5mxgdphbejXKkcDfB5CUEMdZ4amHOFg+L4B0q2TQ1/3zIOwwbAujyqx/FOJfbRCy85EdCTwWHnM3Ag0WTrDo+H9KugcPmg9wKik2odb3YrOoJrX69HgvldxpkRw4iFujDAfnm9R1A36I3u0k+DA4XjG51fz6kW0OPbMHROMKxUG4Tyj+FYbGptTpiDhTvw7jaNPNHuhFPDqodEuLNnsygb9ydQ6lL0Q4JjwV7xVgWQ2790gDPh7TiKTYGsX6eYkNEBjBsRIYwbESGsAcJkSHcQWIQ669f/Z98ds35d1fHZuffeuBmJFnh2PmLOHr2PXWtPhg2anqf/ncGJ165jNOJK87P9cKwUdM79vJF7Ni1F1va9+DoRP1GN4aNmtp/Pp/B8Vcu4U7bDrRu3IkT8UvOsnpg2KipHT7zHh7c9xDWtq5zLjsf2IenTv1F3WqW1rBlR3qKjuNr5jP8EwO5GnsWDhQuPataXCxsceC+B/KvS/189sUsXnztCmbnt6klwN22Dpx7+6pzm2n6wpYdQf94HzLqVJBMNIBYSH/rgIaQGEAoHUY4oK4XCMcLTodxz+K0Qq49Qz+GIf7rG8LhMxewd98+rGm9Ty0Rb3jx804xf3vq1LtqiTn6wuYbRHLhCHp5hkgfAu5Z0E0l174gPDyELrWEpCBGxQomObhwcmBdff7VdWdUm5nfrpbkzbWK0e0P7zu/Y5J3c7bMFFLoRmeTneiYHel3+oKUG7RiIXczks126umImKvt2bNXzNPyo5pLLuvYsdv43M2jsOXW/oHokOamOHUmN5XlOXBLJk2ef5bfhCxtJkTmfCFGrFPxy5hBu1qy2O22HTj71hXnd03xJGxOVyhEMdZU5++LFUh/BN01NvzJNRNyTwQlkw6fvYjde/YsOaq5Fka3cXOjm/awyb10oXQUmYL5W3PIYCpVuJkoVijiutMda6mzp7PTYsZa2N+ETPjy2g2cTlzCLBbP1UrdbuvA2TevOn9jgsaw5XZ9N2fQpNwOgIU9jU6fRtUdS9SbGSieoyUORZBy+5uQMXKutnuXHNXWqyXlyd9p79iF3542M7rpC1vikLOmF6t6+J01v7pY8llTsLe7qO1c8650ynE7MxeM+OK6yc/bvhIjlDNXW2IPZDm3W3Ojm/xbr/EUG4NYv7f1R48n8daFj3GzdY9aUpuW6x9h/zf34hc//Y5a4g2P9kYSmXVt9iZOvnq5prlaKbln8owY3eR9eIlho6Zw5MxF7Nz5QE1ztVLyb7Zu3+H5524MG93zZq7fwkkxV1vJqOaSc7czb77v3JdX2IOEjPJizvabE3/CG+9+hBute9WSlVkj5m7ffWQfhn7ybbVEL+4gMYj1669/9sYc9j/+LDZ0dGJt2wa1dGXuzF3HzKd/wztHw9i4vk0t1YebkXRPe25iEh0dO1cdNEnex9ZtO/DM+AW1RC+Gje5ZN27exvGXLy7rc7Vq5BkBL75+2blv3Rg2umfJblntYlRrXbf6Uc0l72vL1g487cFRJQwb3ZNuzd3B869c0jqquebWitHtjSvOY+jEsNE96ejERWxv79A6qrnkfW7ash1Pa567aQ2bDT1IKtVoUw+WJckvrDRQvxxxZNPV2fny56ut1u3WHTgdn9Q6uukLmw09SCrVaFMPliUlMOCPAAXfEV74La86jZ0To9p2b0Y1l7zvzfe3Y1Tj6KYvbDb0IKlUozU9WMpITCCGMIbdE4ad7whPYSqTu6rL7Tt3MXZ+UszV8h2zvDLX2o5Tr11yHlMH7+ZsTdqDpEilGm2ov0B2Og0EulB6rmxa89pmTMzVtm5tFyPPJrXEO/IxNm6Sczc9eyY9CluT9iApUqlGG+qvxofObvWjJnfECPOcoVHNJUc3+R0B8rFXy5OwNWcPkmKVarSh/uqykIOdTs+dm8T9929D233ej2ou+VgbNm3BMy+u/jsCtIeteXuQ5FWq0Yb6l+KTw1hqCqVTtG5N29F35+dzeyBXcWT/Ssk9kyfjk85zWA2NYWv2HiRSpRptqL+CYG9xNzGnTUYYvZq2o+UeyM1iVDMxVyvlzN02b8Uzq5y76QubDT1IKtVoeQ8WpyFSJoq0230slEY0U1vbv1qMiU3I2bvm5mql5ta045SYu60GT7ExiPWvrP5j5ydx+s1p3Fr3kFpSJzP/wA/2+zHww0fUguXxaG8kkT7y0KwZD48WqdWcmLu98OoldW35GDZqaM+/PImNm7YY3QNZjnwO69ZvQuyllR1VwrBRQ/vdWXkMpPk9kOXcEaOb/H7ulWAPEjJqOXO2F8Sb+sTrf63/XK3UzN/x6Pe+hie+/w21oDbcQWIQ619e/fsfP4I7Gx4Um2+b1ZLGMHfzGlpm/ol3jj6hltSGm5HUkGRruvs2bGy4oEnyObWt34gjYhN3ORg2akiHX3rP0/PVVuvWmg4cPz+prtWGYaOGc/q1q1gnRo629Y03qrnkc1u7bgPGztX+UQDDRg3n2d9fwGyFbw1tFPJzN3luXa0YNmoo469fdeZD69ZvUUsal3yOzuh2vrbRTWvYbOnB4da51HePVbrNBqut/8mxP+LLr67j5hcfVr3c+PxDzF3/n/pLfeR9yvte6jFLLzMzN3Di1do+d9O36182e+kHxtQR7/JF98sve5/PH4x67+/6ll/4F0I6GkffeAjjfRkkF85Zq3RbTnPv+l99/W//eXkBffJYEjMtu7XP7WTYNuMT/OyxHrWkNvu/VflcD+8+Z5Ph84+jL5OE+5o3z5tNnk7jX/INVem25g6by1z9P/75aXw8s82TsO3Z/CVO/vpRtUQP7+ZslvXgIKrGo7CJtZv1PTiIinkSNvbgIFpMe9hs7cFBVI3GsMmJMYNGVI6+sFnRg0Pu3pZ1ic1kUWsq4i/4TKnSbTawvf7qeIqNQayfu/6JyACGjcgQho3IEPYgIaNsnrNxB4lBrJ87SIjIAIaNyBCGjcgQho3IEIaNyBCtYbO+B4k8O92C+suyvf4q9IVNvND9433IzM9DfpqQiQYQCw2guV7v3MG2/RiGKK+EuM0fAaIZp/75eFjU3wN7jsO1vf7q9IXNN4hkwak1vgN9CCCN6aZ6sYMYFW+k5KBfXS+QmEAMYQy7J8wGh0QgU5gq/ZLpZmV7/TXwbs5mWQ+S7HQaCHShNIbp5lrblGV7/bXwKGzsQSLGdnR2qx+t5H39Bg9+0sKTsLEHiZSFXNnby/b6F9MeNlt7kPjkajw1hdIpSrcl29G2118LjWGzvAdJsBdhxDDh7n512kSE0WvLdrTt9ddAX9is70ESxGgminRI1R1KI5rJt15vfrbXXx1PsTGI9eut/0dDp/Dv2e08xYaIijFsRIYwbESGsAcJGWXznI07SAxi/dxBQkQGMGxEhjBsRIYwbESGMGxEhmgNmy09SJaWOxC7sP7mOi60NmX7s5DGsFnRg6S6cDxXv3MZtekw3Er9WUjSFzYrepBQeRX6s5DDuzmbZT1IXDH3FJMWdpaiYh6FzcYeJD4MJvObkJkoEPHbtxlN5XkSNvYgkVvVw8VnLpP1tIfN1h4ki2SnxYw1gC5OYUjRGDa7e5AkBornaIlDEaQCfThg9RqHCukLmxU9SMoL9naLOVq+bvtWOpX6s5CkL2zB0fznS4UXWz5rKq3futE9t+u/6DUQl6TVvUOLebKDhIgWY9iIDGHYiAxhDxIyij1IDGEPDtbPHiRE5DmGjcgQho3IEIaNyBCGjcgQrWGzuwcJ65etMXpsrr8KfWGzvQeJ9T1YEhjwR4BoJndcZDws6ufZ6oX0hc32HiS215+YQAxhDLsHHgeHEA2kMFX6JdsW827OZmkPkgWW1Z+dTgOBLpSeK5tmx6cFHoXNxh4khWyvX/Khs1v9SA5PwmZ7DxL2YJGykIMd5WkPm+09SGyt3yeHsdQUSqdo3dbOIxbTGDa7e5BYX3+wt7ibmNMmI4xee7ejF9EXNst7kFhfv2yLkIki7TapDaURzYxaPGddTF/Y2IPE7vol+fHHQu1JsP1IMU92kBDRYgwbkSEMG5Eh7EFCRrEHiSHswcH62YOEiDzHsBEZwrARGcKwERnCsBEZojVs1vfgENzXwNbvJbO9/kr0hY09OJwvA+zHMETpFrK9/ur0hc32HhzqywCTg7Z+ibbt9Vfn3ZzN9h4kRCU8Cht7cBCV8iRs7MFBtJj2sNneg4SoHI1hs70HCVFl+sJmfQ+O3K7vlhaxCS1eh1TEb9nnTbbXX52+sFnfgyO367u0/qQ181bb66/Okx0kRLQYw0ZkCMNGZAh7kJBR7EFiCHtwsH6GzRC+2Vi/zvof++U43p/+l7qm19c79+LYr/rUNT0YNoNYv931cwcJkSEMG5EhDBuRIQybTtkR9DjHB+YuNvZgofIYNm0SGPBHgGgmd1xgPIxYqAc8DpdcDJsuiQnEEMawe+BtcAjRQApTpV8yTdZi2DTJTqeBQBdK292k7el4RFUwbJ7xobNb/UgkMGyeyUIOdkQuhk0TnxzGUlMonaJ1s5cfKQybLsFehBHDhLu732kTEUYve/mRwrBpE8RoJop0SH3OFkojmhll30xawLDpJFuwy8/YnEsSbL9BhRg2IkMYNiJDGDYiQ9iDhMgQnqltEOvnmdpEZADDRmQIw0ZkCMNGZAjDRmQIw0ZkCMNGZAjDRmQIw0ZkCMNGZAjDRmQIw0ZkCMNGZATwf973DClwB64kAAAAAElFTkSuQmCC;" parent="UkTJap6GeNjWdgkHiNkX-13" vertex="1">
          <mxGeometry x="13.003926311990654" y="32.00006926163387" width="219" height="205" as="geometry" />
        </mxCell>
        <mxCell id="UkTJap6GeNjWdgkHiNkX-15" value="45 =&amp;gt; 1010101" style="text;html=1;align=center;verticalAlign=middle;resizable=0;points=[];autosize=1;strokeColor=none;fillColor=none;" parent="UkTJap6GeNjWdgkHiNkX-13" vertex="1">
          <mxGeometry x="223" y="130" width="99" height="26" as="geometry" />
        </mxCell>
        <mxCell id="UkTJap6GeNjWdgkHiNkX-16" style="edgeStyle=orthogonalEdgeStyle;rounded=0;orthogonalLoop=1;jettySize=auto;html=1;" parent="UkTJap6GeNjWdgkHiNkX-7" source="UkTJap6GeNjWdgkHiNkX-8" target="UkTJap6GeNjWdgkHiNkX-13" edge="1">
          <mxGeometry relative="1" as="geometry" />
        </mxCell>
        <mxCell id="UkTJap6GeNjWdgkHiNkX-17" value="&lt;p style=&quot;line-height: 142%;&quot;&gt;&lt;b&gt;&lt;font data-font-src=&quot;https://fonts.googleapis.com/css?family=Roboto&quot; face=&quot;Roboto&quot; style=&quot;font-size: 15px;&quot;&gt;Bitwise&amp;nbsp;&lt;/font&gt;&lt;/b&gt;&lt;/p&gt;&lt;p style=&quot;line-height: 142%;&quot;&gt;&lt;b&gt;&lt;font data-font-src=&quot;https://fonts.googleapis.com/css?family=Roboto&quot; face=&quot;Roboto&quot; style=&quot;font-size: 15px;&quot;&gt;Operations&lt;/font&gt;&lt;/b&gt;&lt;/p&gt;" style="rounded=1;whiteSpace=wrap;html=1;fillColor=#dae8fc;strokeColor=none;shadow=1;treeFolding=0;movable=1;resizable=1;rotatable=1;deletable=1;editable=1;locked=0;connectable=1;" parent="1" vertex="1">
          <mxGeometry x="822" y="266" width="129" height="94" as="geometry" />
        </mxCell>
        <mxCell id="UkTJap6GeNjWdgkHiNkX-18" value="Bitwise Operator" style="swimlane;whiteSpace=wrap;html=1;fillColor=#b1ddf0;strokeColor=default;swimlaneFillColor=#FFFFFF;gradientColor=none;" parent="1" vertex="1">
          <mxGeometry x="1036" y="162.5" width="408" height="301" as="geometry" />
        </mxCell>
        <mxCell id="UkTJap6GeNjWdgkHiNkX-19" value="1. AND ( &amp;amp; )&lt;br&gt;&lt;div style=&quot;&quot;&gt;&lt;span style=&quot;background-color: initial;&quot;&gt;2. OR ( | )&lt;/span&gt;&lt;/div&gt;&lt;div style=&quot;&quot;&gt;3. XOR ( ^ ) Addition with carry forward&lt;/div&gt;&lt;div style=&quot;&quot;&gt;4. NOT ( ~ or ! )&lt;/div&gt;&lt;div style=&quot;&quot;&gt;5. Left shift ( &amp;lt;&amp;lt; )&lt;/div&gt;&lt;div style=&quot;&quot;&gt;6. Right shift ( &amp;gt;&amp;gt; )&lt;/div&gt;" style="text;html=1;align=left;verticalAlign=middle;resizable=0;points=[];autosize=1;strokeColor=none;fillColor=none;" parent="UkTJap6GeNjWdgkHiNkX-18" vertex="1">
          <mxGeometry x="6.5" y="28" width="225" height="98" as="geometry" />
        </mxCell>
        <mxCell id="UkTJap6GeNjWdgkHiNkX-20" value="" style="shape=image;verticalLabelPosition=bottom;labelBackgroundColor=default;verticalAlign=top;aspect=fixed;imageAspect=0;image=data:image/png,iVBORw0KGgoAAAANSUhEUgAAAY4AAACBCAYAAADXJV0dAAAAAXNSR0IArs4c6QAAAARnQU1BAACxjwv8YQUAAAAJcEhZcwAADsMAAA7DAcdvqGQAAA7VSURBVHhe7d1LbFTXHcfxH11018qWKkAQCHVNF/UDsBMJbEKFiJyGSMEKKqgoSkMgZFMFRNIkFU0XQSiPEoSjbkqL3CJEHhXIdAEKwkUl2EZKcMCPLIpr3DigOKpkq8tu2nPvPePnPHwGP871+X6kUeeO7ZL/mTv3f15z/4v+ZyiL3t5eVVRU2KPwED/xEz/xh6pQ/N+y/wsAwLSQOAAAThb19PRknar6z/L/2mcAgNB89+637bOpcq5xdIx8bp8BAEKzoWSdfTYVU1UAACckDgCAExIHAMAJiQMA4CSwxDGoD4/WqO7g+McRddifRjpOm9eOntFX9viry8+q7vQ1ewQACGxXVZQ4tql17XmdeHTF6HHT0vfU/vTG5FcmiRLHjq/35vw53ESJ+aVOqXF3p16psi9amZ9Vbs28P4mJ74F9z+4lP8vI9v+XCt+c0b63jqrHHkYmxp8t3u1699ghbbBHqdB9RHXNmvjfHcd+SVte+5N2Lh7/2sJrj+md21beNrimdw6+qJbk5Ulmth3YVZXTCtWvrZa+/nJ0hBGPOOIRRnSC1mjHhS6p88V4dLLv8mD8O/EoZHTE8qw+/CZ+GQVd0yed1WqsqVbLreyjuMpl1eq5cGrCKDCb6IPUfqwzeezerpbmsfcnNaKLqblAlJukNxrLay9LF7ZNiWV8vO/WnNVLaRsFVz2j/cvG/3ebz9epo9LWw2NJY4G3x7TO7YJtsFGvjHu9UtXa/1rmd+cueQaeOAbVdrNLlWsf0QP2lTErtPPlTn201SSWGjMiMW9MnPFNb+CNC6tNZs+8WeN6S8iv++9qWdagXQ0Nquz8e/YP0Nq9ky4w01B1KE4e00k4/jAXzo/PxhfACSOlxbt0okAsG9Zsn9DZSQfzeXrGXOhMJ+yd7qjz9boZNWzX7vEjiYXeHgXP7eLbYK4FmTh6TPZORgvRkLdaW6rHho7Tc1afmJMfbjpumQ9FlKQXP6It5gPUnHWE8KC9wPzRbSRX9WM1pul9+eYTteY69+JYbuvLrPEnFxctXZmls+M5cwH8jemItXz8rOl8dalx9/hpqxDao8C5XXQbzL0gE8f4YW777tVqesthuinK/maI2NecTFWlbnpkvpiRWnNn5kORTBH23Pwkey/RtPHumi41nRrbpLAwrdbKnKPVLv1ryD41xnd2ojW6tK65PfDoXjXe61LPspe1a8qaVADtUfDcnn4bzKfAp6qMOJM7viFR8ogTz3sqNydwNPRGfl91XTIXiwbV2w/FA9UNqrx3SW05EvaGp98zF5ijemNBJ+Z8PchqPbjEPjVGOzupm5KbqOP0i2qp2R6/t2emfG7CaI/85/b022A+kTiiefdCb0jO+dMH9eAy+xR5JGtJMh+WHXEv0TziXSNdau3KlRg26hV7UWizr+QVv4/b9UhadlYtXqnyXB2WOJYcPU+7yJx9ms9zdtS5v+FQ/N62NI/bCh9Ue+Q4t4ttg3kQ+BqHeTSfVePu3AvcSc84ueDF01LRrofM30ZrJEvfS+c20LnUfSpeSxrb/ZE8oo0HeXuL9qLQFO1syyfavmjex8qtz3i9JXOijdoVzfc3T5omLRjLCu18LI2jjsGJu6im7LIKrD2yntvFtsHc4+64mHXxHnZl+65Msidd9jsY0e81L524zz3+0ESjk2hnW87vcURJKaW72+LvN5y1B5HJsSTxjn33KDKx3dIg/r5CvBtx8vc4kq2no3Es0PaY3rltFWwDK/77Sd+DmUH5vsdB4gAATMEXAAEAM4bEAQBwQuIAADjJWXO8Ysl1+wxB6quxTwCEqPc7RdQc179P2icIEokDCNt6FscBADOExAEAcELiAAA4IXEAPhp8X+c2vKkBewj4hMQBr4x8uEcnN6wffVxJ1w2ZAAdtupLSc9zLxDHw5706+Yu9unLLvhCMId18M4l97HEq9b3OgbenmQRML/tvx6Xaj65rT4d5HNum/oP5et2DurlvLMkkD3976dNuh2lJV+wRp/jjEdd6nfsw111v0xd/sWb2vJkZHiaObt35tFxlD5er/+aUG/YHofTJI9rzuz+axxHVLr+q1j+nuR3adKelQmWNFeq/OuEm0lN9NaBhlatk3H3gpqP0wF+SRNPxF9VWnVfr2wX+nXnh0A4O0hF7xC3+gTNNUuM26fjpvMkgPfFns1KlBW/KODvnzf3yL3Hc+lz9yx/Sup88pNJPP1+QPYjpW6JVteXSvSGN2FdSp+Oq+qse1bpdj6q05Wr+93PDJpXpvDqjXmbU4zx4XmXHfqVV9seFrdCqLRXSP7/0r71c2qEoHscecYnfvPedLdtU8+qvVNNoz4eCPI+/WLN+3hTHu8QxcPOqSmurVLKkSmWmt915yZNaifNiSAM3+pL2sK+kzcDV8yrdstGMIjaqzPQI818E6rX52DYNH/+pTu4YUI3pSW52KkAwqIHW3uTfs6/4wq0diuFv7BGX+KPRxnDjprjDsGrX/oKjjoTf8Rdr9s+b4viVOIYuqzOaploTleNLetvDN7oXVg9iGob/esiubxzSjbuZ9kihuOdohtl10dxT0iMcbr2W+/3seFMnD/bFw3KpTyOZz0j0+r73c/5dnGjiOe6f6kZ35t/ziGs7OPA+9ohL/PZ3a3fVJ8cFLpipiL9Ys3je3C+vEsfIrc80vPwhrbLXyZI1D6n07mcaCGzQMbbGYR7PL9ONw2/pZgrbYKT9sobNMHuV/SyX1JnhdvdlDWS9BrTpSjw1dVKbXz2pLY29urEjWeyMel36wcqcPcmxee5oQb3c/N0e3fSjYxZzawc3vscecYp/xc/0VMdJrR29/q/Q2hPX9dTO0RcmSEP8xZrN8+Z+eZQ4kmkZ3f1AZzM7ig5/oGHT8+y/FfB01Zp1KjNtMPy1PU6NZOpA3U06G/cIzWNHk3k/e9XfnuXMH/zS/KxCpQ8kh6tevW6Sx3m1mr9rHd8DLSReJ+nVcPYi8fPAsR3uh3exR0KPP58kKWafjp3DdiuCP4nj1sfxtEzt67anbR/bnyzX8F8/9mZRaM5FmwVUrtKl9jgtOk7HUwejW2vtY/sBM9zONme9YqVKzYfixpmxnSOrNm2zzxwuBtFi4rgENO9c2+F++BZ7JPT480q+x5F1y/FctlsRvEkc0aK4Hn5CaydN55c0PGF6EVd1J6DvdIytcZjHH66q7PnXprSL7+Lppcbnxk05JEp2Pmfez/O6M2VPer02d7yrspaXkt5V9DgobYk+MB/t1/BBc5xjq+XYPHf0N8l01+R/d764t4Mbn2OPhB5/sWa73e4Xt1VHdtxWfX4Nvq9z8c4yl+3IwAzituoAgJlC4gAAOGGqCtkxVQWELc9UFTXHkRvJAwgWNcdRnO/tsU/C09vbq4qK6BvsYSJ+4s8XP2scAAAnJA4AgBMSBwDACYkDAOCExAEAcOJf4hi6rHOZ+zSZR3B1x0OPv69J9YsWaZF9vHDRvh4K4g87fqOvqT6Ovb6pz77iH88SR7euHP5AytSjeH6T+v+QzloUxQk9/ot6YfUB6fhtRbvE/3dhn05srZfHn58ZRvzBx28Sxs/1ax2vsy95yq/EEd9CfJNqGuytYNc8ptrlaaxFUaTQ47/YohPap1/vL0+OH/+l+QC164vbyeGCR/xhx6/H9XuTMNv2r7bH/vIqcYwM3ZOWL5tS6W14KIwud+jx9/2jR6r7kSZ/bHr+EUaXk/jDjj9NPJuqmmyJSpbZp0EKPf5y/bDSPg0S8Ycdv788TxxDGjGd8HCFHn+fok5ouIg/7Pj95VXiKFliutd372nEHmeULklZ+bsihR5/edS9bP9Ck6e0K39o57wXOOIPO/408WvEsWbdxDKxcR3yTfr+Gnu80IUe/+ON2qcTaslswbz4Wx1o36fGx+3xQkf8YcefIv7dHTf6HsPhDzQcH5Sr9vX01du+Lz7FPx93x4328a8+oPb4oE7Hb7cps8lmLs3b3VGJP+D4o+24W03qnKju+G21zXEjFIqf26ojN26rbo/CQ/zEny9+zxfHAQC+IXEAAJyQOAAATqg5jpx6h9bbZwAwhsVx5MbiuD0KD/ETP4vjAIAZQ+IAADghcQAAnJA4AABOSBwAACdeJo6RS2/F9bbPXQqmZuoYao5TczoFNadnU9Dxp+T89yxxdOuKuVj+TU+odrl9KSjUHKfmdDpqTs8O4k/L+e9Z4qjSZnPBfKphsT0ODDXHqTltLhhpqDk9OwKPP0XnP2scHqHmODWnEa40nf8kDq9Rc5ya0wiXv+c/icNr1Byn5jTC5e/5T+LwCDXHqTmNcKXp/Cdx+ISa49ScRrhSdP57dnfcaDtuk/rtUUbpk0f0VGan0UJHzXFqTtujDB9rTs+O0OM3UnL+c1t15MZt1e1ReIif+PPFz1QVAMAJiQMA4ITEAQBwQs1x5ETNcQDZsDiO3Fgct0fhIX7iZ3EcADBjSBwAACckDgCAExIHAMAJiQMA4MS/xBF6zW0j6Jrr1BwPu+a2Qfz+x+9Z4gi95nboNdfTU3N5dlBzm/jTEb9fiSP0mtuh11yn5jg1x4k/FfF7lThCr7kdOmqOA+ng3xrHBKHX3A4dNccBH3meOEKvuR06ao4DPvIqcYReczt01BwH0sGvEUfoNbdDR81xIBX8uzuuTzW355xnNdepOW6P5kroNbeJPy3xc1t15MZt1e1ReIif+PPF7/niOADANyQOAIATEgcAwAk1x5ETNccBZMPiOHJjcdwehYf4iZ/FcQDAjCFxAACckDgAAE5IHAAAJyQOAIATLxNH0DW3jdDjp+Z0wPGHXnM+JfF7ljhCr7lNzXFqTgcef+g151MSv2eJI/Ca28HHT83poOMPveZ8iuJnjQOAF0KvOZ+m+EkcADwVes15f+MncQDwVOg15/2Nn8QBwAuh15xPU/wkDgB+CL3mfIri9+zuuJ7V3J5zodccT0/N5dkRevxG0DXnjZTEz23VkRu3VbdH4SF+4s8XP1NVAAAnJA4AgBMSBwDACTXHkRM1xwFkk3NxnMUh4id+4g8V8eePn6kqAIATEgcAwAmJAwDghMQBAHAg/R9+qPAsIIYR6wAAAABJRU5ErkJggg==;" parent="UkTJap6GeNjWdgkHiNkX-18" vertex="1">
          <mxGeometry x="6.502275216239013" y="144.00174575079052" width="398" height="129" as="geometry" />
        </mxCell>
        <mxCell id="UkTJap6GeNjWdgkHiNkX-21" style="edgeStyle=orthogonalEdgeStyle;rounded=0;orthogonalLoop=1;jettySize=auto;html=1;" parent="1" source="UkTJap6GeNjWdgkHiNkX-17" target="UkTJap6GeNjWdgkHiNkX-18" edge="1">
          <mxGeometry relative="1" as="geometry" />
        </mxCell>
        <mxCell id="UkTJap6GeNjWdgkHiNkX-22" value="Properties" style="swimlane;whiteSpace=wrap;html=1;fillColor=#fad9d5;strokeColor=#ae4132;swimlaneFillColor=#ffffff;" parent="1" vertex="1">
          <mxGeometry x="1565" y="139.5" width="331" height="347" as="geometry" />
        </mxCell>
        <mxCell id="UkTJap6GeNjWdgkHiNkX-23" value="&lt;div style=&quot;&quot;&gt;&lt;span style=&quot;background-color: initial;&quot;&gt;1. A &amp;amp; 1 &lt;span style=&quot;white-space: pre;&quot;&gt;&#x9;&lt;/span&gt;= 0 ( if A is even )&lt;/span&gt;&lt;/div&gt;&lt;div style=&quot;&quot;&gt;&lt;span style=&quot;background-color: initial;&quot;&gt;&lt;span style=&quot;white-space: pre;&quot;&gt;&#x9;&lt;/span&gt;&lt;span style=&quot;white-space: pre;&quot;&gt;&#x9;&lt;/span&gt;= 1 ( if A is odd )&lt;br&gt;&lt;/span&gt;&lt;/div&gt;&lt;div style=&quot;&quot;&gt;&lt;span style=&quot;background-color: initial;&quot;&gt;&lt;br&gt;&lt;/span&gt;&lt;/div&gt;&lt;div style=&quot;&quot;&gt;&lt;span style=&quot;background-color: initial;&quot;&gt;2. A &amp;amp; 0 &lt;span style=&quot;white-space: pre;&quot;&gt;&#x9;&lt;/span&gt;= 0&lt;/span&gt;&lt;/div&gt;&lt;div style=&quot;&quot;&gt;&lt;span style=&quot;background-color: initial;&quot;&gt;&lt;br&gt;&lt;/span&gt;&lt;/div&gt;&lt;div style=&quot;&quot;&gt;&lt;span style=&quot;background-color: initial;&quot;&gt;3. A &amp;amp; A&lt;span style=&quot;white-space: pre;&quot;&gt;&#x9;&lt;/span&gt;= A&lt;/span&gt;&lt;/div&gt;&lt;div style=&quot;&quot;&gt;&lt;span style=&quot;background-color: initial;&quot;&gt;&lt;br&gt;&lt;/span&gt;&lt;/div&gt;&lt;div style=&quot;&quot;&gt;&lt;span style=&quot;background-color: initial;&quot;&gt;4. A | 0&lt;span style=&quot;white-space: pre;&quot;&gt;&#x9;&lt;/span&gt;= A&lt;/span&gt;&lt;/div&gt;&lt;div style=&quot;&quot;&gt;&lt;span style=&quot;background-color: initial;&quot;&gt;&lt;br&gt;&lt;/span&gt;&lt;/div&gt;&lt;div style=&quot;&quot;&gt;&lt;span style=&quot;background-color: initial;&quot;&gt;5. A | A&lt;span style=&quot;white-space: pre;&quot;&gt;&#x9;&lt;/span&gt;= A&amp;nbsp;&lt;/span&gt;&lt;/div&gt;&lt;div style=&quot;&quot;&gt;&lt;span style=&quot;background-color: initial;&quot;&gt;&lt;br&gt;&lt;/span&gt;&lt;/div&gt;&lt;div style=&quot;&quot;&gt;&lt;span style=&quot;background-color: initial;&quot;&gt;6. A ^ 0&lt;span style=&quot;white-space: pre;&quot;&gt;&#x9;&lt;/span&gt;= A&lt;/span&gt;&lt;/div&gt;&lt;div style=&quot;&quot;&gt;&lt;span style=&quot;background-color: initial;&quot;&gt;&lt;br&gt;&lt;/span&gt;&lt;/div&gt;&lt;div style=&quot;&quot;&gt;&lt;span style=&quot;background-color: initial;&quot;&gt;7. A ^ A&lt;span style=&quot;white-space: pre;&quot;&gt;&#x9;&lt;/span&gt;= 0&lt;/span&gt;&lt;/div&gt;&lt;div style=&quot;&quot;&gt;&lt;span style=&quot;background-color: initial;&quot;&gt;&lt;br&gt;&lt;/span&gt;&lt;/div&gt;&lt;div style=&quot;&quot;&gt;&lt;span style=&quot;background-color: initial;&quot;&gt;8. A ^ 1&lt;span style=&quot;white-space: pre;&quot;&gt;&#x9;&lt;/span&gt;= Flip the rightmost bit&lt;/span&gt;&lt;/div&gt;&lt;div style=&quot;&quot;&gt;&lt;span style=&quot;background-color: initial;&quot;&gt;&lt;br&gt;&lt;/span&gt;&lt;/div&gt;&lt;div style=&quot;&quot;&gt;&lt;span style=&quot;background-color: initial;&quot;&gt;9. Cumulative&amp;nbsp;Property: &lt;span style=&quot;white-space: pre;&quot;&gt;&#x9;&lt;span style=&quot;white-space: pre;&quot;&gt;&#x9;&lt;/span&gt;&lt;/span&gt;A &amp;amp; B = B &amp;amp; A&lt;/span&gt;&lt;/div&gt;&lt;div style=&quot;&quot;&gt;&lt;span style=&quot;background-color: initial;&quot;&gt;&lt;br&gt;&lt;/span&gt;&lt;/div&gt;&lt;div style=&quot;&quot;&gt;&lt;span style=&quot;background-color: initial;&quot;&gt;10. Associative Property : &lt;span style=&quot;white-space: pre;&quot;&gt;&#x9;&lt;/span&gt;(A &amp;amp; B ) &amp;amp; C = A &amp;amp; ( B &amp;amp; C)&lt;/span&gt;&lt;/div&gt;" style="text;html=1;align=left;verticalAlign=middle;resizable=0;points=[];autosize=1;strokeColor=none;fillColor=none;" parent="UkTJap6GeNjWdgkHiNkX-22" vertex="1">
          <mxGeometry x="5.5" y="30.5" width="320" height="300" as="geometry" />
        </mxCell>
        <mxCell id="UkTJap6GeNjWdgkHiNkX-24" style="edgeStyle=orthogonalEdgeStyle;rounded=0;orthogonalLoop=1;jettySize=auto;html=1;" parent="1" source="UkTJap6GeNjWdgkHiNkX-18" target="UkTJap6GeNjWdgkHiNkX-22" edge="1">
          <mxGeometry relative="1" as="geometry" />
        </mxCell>
        <mxCell id="UkTJap6GeNjWdgkHiNkX-25" value="" style="group" parent="1" vertex="1" connectable="0">
          <mxGeometry x="1433" y="654" width="426" height="363" as="geometry" />
        </mxCell>
        <mxCell id="UkTJap6GeNjWdgkHiNkX-26" value="Right Shift" style="swimlane;whiteSpace=wrap;html=1;fillColor=#fad9d5;strokeColor=#ae4132;swimlaneFillColor=#ffffff;" parent="UkTJap6GeNjWdgkHiNkX-25" vertex="1">
          <mxGeometry width="426" height="263" as="geometry" />
        </mxCell>
        <mxCell id="UkTJap6GeNjWdgkHiNkX-27" value="" style="shape=image;verticalLabelPosition=bottom;labelBackgroundColor=default;verticalAlign=top;aspect=fixed;imageAspect=0;image=data:image/png,iVBORw0KGgoAAAANSUhEUgAAAYUAAACgCAYAAADjNXB5AAAAAXNSR0IArs4c6QAAAARnQU1BAACxjwv8YQUAAAAJcEhZcwAADsMAAA7DAcdvqGQAACa0SURBVHhe7Z3bz11F/caXAoW2FFpoLbQFfEVA8YCJUYlnMUbwwJV3XmriDf+AV/7uvdFr45WaYKJeIImJhxCDQGoQjVYRaKnY09vzgZYWEPdvPtP9bKf7fffs3b3e2bP22+eTrKzZ6zSznvnOzHdmzVr7bb1AY4wxxgTe3l8bY4wxbhSMMcb8DzcKxhhjBrhRMMYYM8CNgjHGmAFuFIwxxgxwo1CY48ePx/Ubb7wR113h9ddfj+szZ840b775ZgwzO1nbZ0Ea71tvvdX897//bc6dOxd/18b65LE+eWrrQzypDugDk9RDfk+hEK+99lqzbt26/q+LmXLVVVdFo8VINmzY0N9TB9KzZs2aGL5w4UJz3XXXRSN629ve1vznP/+J65KgBWCkxHv11VcPtoGMuBbWJ4/1ydMVfQR1zjXXXBPXNBjXX399f89S3CgUBoNA4rVr10ZjwHi7Aul5+9vfHpezZ89GQ5HxzAoVFFDhoeFcv3593FYT65PH+uSprQ9x0TgQP70olonqnyCqKUDwFHrBSPu/er1gqL2FhYXejTfeSCNcfQnG0vvgBz/YC4Uo/g7G0guezeD3rJZrr702xk34vvvu623cuHHJMTUW65NfrE9+6YI+oWHshQYhhon/Pe95Ty/0rOKSwz2FwuC90EIzlLRt27bmmWeeae64447+3rrgYZE21pgBng3d3mC4/SPKoriBNYu8K22vCWmwPqMhDdZnNKShpj4ME1H/BEc0Ptug/llcXMwOHYEfNBeCZwqAAQRvJoYPHTrUbN26NYZrQxc7eFXRUDEcGS7pPX/+fP+oclBYiId4T58+HQvLTTfdFLu7XSjQ1ieP9clTW59Tp07FoSI9u2RNmmgQGMrK4Z5CITBSDFQPwmgYZBhsm+W463KQDoz2lVdeaTZt2hQNleceorRZoAUFG69OsI10oE26vQbWJ4/1ydMFfQT1DQ+92TZJvG4UCoO8ZAbeAkNIGHIXoNHCk1D266GU0poacAmkCwar33hRrLWvJtYnj/XJU1sfeijUNTQGxIc2xPnqq6/GdOWo25yucsgUjCA1WG0fh44FMhg4D2NLwdiGr6eCkgMDBcVDOuVdkdbLgfgmiTOF+GS0eHYaYoP03nNg4IJzMH6FdQ22pddLz8nRVp/hfCIPuZbychzWJ09bfdJjuli+2upDxa/KX9qQ12wbvp9h3Ch0FIxIL76QkXQ/MSqMjTFUPbNQV5mHSjJWCsqsYHyS+FjGjVWuJOjBOCmF5ODBg1EvChu6EGYhzDbCHMOxnMO5pVGhJv+AuImXvFTlXBLrk4d77nL5qqmPh48KQouMQSGxCiJhbc+Bx6ZCjSEAD4rS+dfsw0BUKQPXx5AmMVzSQ1pYKx6ZA9ty6J5guLCk+3K00Qe4TwrKDTfcEM9BHzRLQUc043pUAnShKeiTQHqm1QdIH3GlenAdfk+SBuuTp40+XS9fUEuf8ZZlqpAaLDMJAIN96aWXYhhPhszF08NACWNEGPYkBrsSEB/gXam7rG2zAI+OCo84MXb04f4Js6iQE+YYjuWcWUGeQKoJldGklW5brM9o5qF81dLHPYWCkKnTejKgY6lwMdL0sxkyaKBrS5jj0u3jID1cn7XOkzmwbRx4oXiWnAucr22T0FYfUHrRgAK8HHh7Gled5L4Ex06rz969e5uFhYUY5hwWCjRzxglPkg7rk6etPjq2i+Wrpj6TWZapApl47NixGMYgyUzG7eUtyKuhQMtIWJcecwS8Kyp/ho6Y+8xCmG3yvEpCIQPuVRUeHhX6qAAQZhv7OEa66NySqEArDeQfBVrj+6WxPuMhnq6Wr5r6uFHoKLToJ0+ejC+7YRQYJka7Y8eOuI2u/l133RWPxXAo1IDxjPIIVxLmYCtdjEWzEGYb+0qjgkEjxP0DD+d4gQntWAjrgR3HqAdTulABDSNx8hYp+cGQA2nht9JbEuuTp+vlq6Y+Hj4qiLppSExBYyGs7TnwujEEjfuqe4sXg1eu6+K1yEg13jnpmCPpIS2sL7d7y3nERXpUmTB0xFgtaR93f9BGHwoIBZTGiAJM+rlvzk8ffHNNCj33pmN17jg4d1p9BJqQLlXOXGOSuMH65GmjT9fLl6ihz/iSa6pAQQUMFoPSeKcyFzBsDFbdWYwFo1GhLwlGReWRek2E2TauQK4EGDZQiVFYuW/ipRBRcFkIs419HMOxoHNLQhxoQWFWpYs3OmmBbov1ydP18lVTHzcKHQVjBQwQo5AR48VgMLw6r22qjLWmwM8CKhTSQqFiIcy2WYD3dOLEiRhGKwou8VOIBGG2sU96cs6knl4b0IECrJ6UKhYo3f0H65On6+Wrpj5uFDoMFS1eC0ZBQcVAgDXjoRg2Uwj5jQHRNcSj4LzSqBtKvMTJQpht6iKXhKEOxsTltaET8UNayNmWen6cw7mzgnwjLeijeKlcSmN9xtPl8iVq6ONGocNgsPK8Uy+PWQiCMAYD8iAYCigNBUPp4KGYZhyxbRaFhqEOCgleG395StcarajY0IOFMNvYxzEcyzkaJinJ0aNH45q4KdjkHfFSwSi/SmJ9xtPl8lVTHzcKHYWKFe+EhWlzGC3GwAMxCjPd3H379sVjMRi2qVubGnUpKEwUDhZmG7HotwpaaVR58XCbbj0eFRpQ2FkIs419HAOzqPBgy5YtMV5g7J7CDKRrVlif0XS9fNXUx41CR8EgNAyzefPmgXeA8WKceC233XZbNBYMXB7fLCFN6VCRutezQFMEAT0o3IKCzSLYpwIN6bklIY/QRB4oUNnMIn7rk2ceylctfdwodBQMEK9AwzKAcWIUdPEpyPyWh5dWxhhTaSgkjLsybxpvk4Uw22bRU0AfeU94UhRm0sAsknRhG/s4BjhnFoWbHpOG0ijYDAHs378/7iM9pbE+ebpevmrq4/cUCkLmUUEiMQbIQljbc1BI8RB40IVxUHgxDAyWF2wovDJcurZckwdQimsSOI7zWHOd1POf9BrErUoEDyb1OMfRRh9BAaUgoxfnqLAD1yJNXA8tdeykcJ02+hA36WFBJ/JHle8kWJ88bfSZh/JVSx83CgWZNlNmBelpY7RtsT55rE8e65NnWn3qK2eMMaYzuFEwxhgzwI2CMcaYAW4UjDHGDHCjYIwxZoAbBWOMMQPcKBhjjBngRqEg+hN05genn77VXOXa8LIO6SI9vKgDms88K3gpR3rw4hS/mdPdBaxPHuuTp7Y+vIvAG9vEJ41g3DscbhQKwjfZeTOSDOFtRNEFo8VYeKOTtyV5kxXDUcOlD3GVBF0wTt6AZs1XIdGJN0sv563oUlifPNYnT219eDObN6L5UOVwfDScOfxGcyH4dgnfY9fr84Bh8Jo6DQRvFdaEgkR6lP2sSRPpnUX6iB8oKGowlR4tNbE+eaxPni7oQ2NAD4VGgHjpSeGQqtcyCjcKBZHB6nslfI2RxqIrYLR4E3hW+haMvrdSGoyUxpLCoQKeFqIuYH3yWJ88NfWhIVCDQLzowmfR6UHQWPDJjVFcVNMUQcNEZAqLPles77TXhO737bffHo2FMOkDDBbDLY0KMmsKNn8DSXrUxa6N9cljffLU1gdoFFjQh0ZUw1jjHFP3FApBg0BrTEutMc7UkyGjakJhUnrkdWGsrOXVlESFGkOlN4VWpAcvJtWpFtYnj/XJ0wV9NFJBXZOmZxxuFAqBrGQCRosBYBg333xz8/LLL8dhpHHjerOA7+njxZAWGjHSO6t00Y3lW/XEKfSfuLmu7SyxPnmsT56a+kA6ZEX9wyfBX3nllagPWo3CjUIhkHV47E6tNpBJNcFA06zXeCMexSx6MYoP0KUr3X5hffJYnzy19QH+J4Iha+oaGlCGrhYXF8c2TG4UOg7ZkzYu9DwOHTrUfOITn2j+9a9/DbqhMkLWGroqieIgzueee6757Gc/G70i0so+uskUgBQ8F47Hg1oprE8e65Onq/rU5Kr/C/TDpkNgqBQKjBC0prBgkAxDvfDCC81nPvOZuI/jWfAC8ESGC9RKw/XpquOl8Tecu3btal588cXm05/+dEyf0oSXonvh2QrpV+Fqg/XJY33ydF2fqgSBTQd5/fXX+6FeLxhhLxhk/9dFnn322d6mTZt6odD0gucSF0jPKw3pEn/5y196W7du7QVvrhe6rP2tF+E4pQ84pi3WJ4/1yTMP+tTCPYWOEgx1MPYX8mmJZ4N39cQTTzTHjh2LXV1gH7Od8HZKQ5qIj3TyZ/0LCwvNk08+Gd8s/fjHPz7Yl6ZZ56TbpsX65LE+ebquT1WCIKaDpJ4RXgwLBGOO3kswzt6ePXuidxW64XGfYP8sCAWmH+r1zp0713vppZdiehT/hQsXLkkLaSb9K4H1yWN98syDPrVwT6Gj4JWE/Bl4NPJgUg+JKa47d+5sQmFqPve5z0UvhmPxeGYB8TEmDMz+uPXWW5tnnnmm2b17dxyLZWw2FL7BgznSpjSm9zEN1ieP9ckzD/pUIwhjOkrqwSzH4uJi74UXXuh94AMf6O3bty9uw+OaJXhzLHD27NmYnoWFhd7+/fvjNkjTRDgU8v6vdlifPNYnzzzoU4NV3uTNNxrjDPkUxzxDtzWuRejaNu9617viSym/+tWv4jbmIs8CvCbAi9Or+6zvvvvu5t57721++ctfxul9gDcm5PGtBNYnj/XJ02V9auL3FOYUChMFhOzzPO+lWJ881idPV/SpgZ8pzCkYpOd5j8b65LE+eWrrU5VwA2ZOCYWjH/I87+WwPnmsT56a+tTEPYU5JeRd9EaCQXqe9zJYnzzWJ09tfaoSbsTMKZ7nncf65LE+eWrqUxP3FOaYYISe553B+uSxPnlq6lMVWgYzv+CtsMBZz/NegvXJY33y1NSnFrNpcs2Kg0cCeCme570U65PH+uTpgj7VoGUw80swyEvGNV999dXeiy++2Nu4cWP8zf50tgS/Z+HJhELVD/V6f/3rXwfpYTtpBM0kIU1iePy4LdYnj/XJ01V9SuJnCnMKHpU8LdBa87wZh2WuNzM3+B3yOnpihGcxJou3xD9N4V3h8f3xj38cjA0znxu4B44L3fOYftK1UumzPnmsT56u61OUcDNmDpGXBHgnwYj7vy6yc+fO3pYtW6LXgnfFwjGMi84KPCx5TX/+85/jzI10jFaQrtTbWglPy/rksT555kGfUrinMKcEQ41eEoR8XOLZbN++vfnd734X53l/8pOfHHhSwdij91UavCa8KuLE47vjjjuap59+ujl8+HBz//33xzSzKM2kH/Rb9zEt1ieP9cnTdX1K4m8fzSkYqYwWAwaMUgaMkdK9xWBZr1+/Ph4DwbuJ3dzSUJj5w3I4depULNAPPPBAc+DAgZhm0gEMB5BuflMRrATWJ4/1yTMP+pTCPYU5BaPEQDFYjJff2q715s2b41gs32xhLBZjxbA5h3VpUq+JMN7VH/7wh/hNG9JDutnOfVCI0kKo+5gW65PH+uSZB32KEW7czCnBY1ky1ply8ODB+BbmPffc0/vb3/4Wx0ZZZoHGeBkXFnwTZteuXXFsmLVIvxXD/aTntMH65LE+ebqsT0nm/DH5lQ3eiDyaYLxxHJa1CIWnefe73x3XP/vZz+JxHI9HUxp5bXhyQNro5r/vfe9rPvaxjzWPPvpoHBIApZljYKW63tYnj/XJ02V9ihJuxKximLf93HPP9datW9c7cOBA3HbmzJm4DgUurlPvZlbzvDG9I0eO9LdeJJ1BMiusTx7rk6e2PiXwM4VVzPHjx5tNmzbFb7b86U9/akIXt/niF784+J4LXg8e2YUK87z5A5Vdu3bFB3V6OMjxLBqbLY31yWN98tTUpyj9xsGsQlIP66mnnupt2LAhfkMmGGt/60X4nXpZoVD1Q9MjLwnwlIbjxLsKBaZ36NChS+IenoNeEuuTx/rkqalPSdxTWKUEg40eVMjjOLXvrrvuil945E3ML3zhC9GLYR9eC14Mv0G/5ZlNSyjIg3Fh4uH6ujbgXf3mN79pTpw4EdMj7w6virHj0lifPNYnT219SuL3FFYxFBSMj8J1/vz55t///nfz/ve/P/5RCPO/2Q8UIsyA3+qKt4VCoEJNAQcKBPGogDO18CMf+UizZ8+e+LCO+Olezwrrk8f65KmpT0ncU1jF4M1gjBgtYbwr3gpl7PNLX/pS3B666fEYClNaCNt6MpzPdeXx6XpaU6i3bNnS/P73v2/+8Y9/NA899FA8nu0q9KWxPnmsT56a+hQlJNisYoIBDsYzmc8dDLa3efPmTszz5p+tSMeOHTt6oWDHbelY8iywPnmsT56a+pSi44/BTRtOnz4dPZK1a9fG78MzK4J53h/96Eerz/PGg+KftUgP/3/7i1/8Iu6bxXiwsD55rE+e2voUg5bBrF7wZIIx9n95nvcw1ieP9cnTdX2mwc8UVil4J/K0QGsedOGpeB689clhffLMgz5T028czCpDXhLgzQQj7v+6iOfBW58c1ifPPOgzLe4prFKCoQ5mO4R8XuLZ4F15Hrz1GYX1ydN1fdrg9xRWKRipjBYDBowyNWDPg7c+o7A+eeZBn2lxT2GVQmHBQOXRyIPRGqP1PHjrMwrrk2ce9JmakFCzSgnGt2SsM8Xz4K1PDuuTZx70mYYON1emLXgj8miC8UZvijXgQXkevPXJYX3ydF2fqQk3ZK5gPM87j/XJY33y1NZnGvxM4QrG87zzWJ881idPTX1a0W8czBVI6mF5nvdSrE8e65Onpj5tcE/hCiUYbPSggg14nvcyWJ881idPbX3a4PcUrmAoKBgfheu853kvwfrksT55aurTBvcUrmDwZjBGjJYw3pXnef8P65PH+uSpqU8rQoLMFUwwwMF4JvO5g8F6nneC9cljffLU1GdaKj/mNjU57XneWaxPHuuTp7Y+U0PLYK5c8GSCMfZ/eZ73MNYnj/XJ03V9lsPPFK5Q8E7kaYHWPOjCU/E8eOuTw/rkmQd9RtJvHMwVhrwkwJsJRtz/dRHPg7c+OaxPnnnQZxTuKVyhBEMdzHYIdrDEs8G78jx46zMK65On6/rk8HsKVygYqYwWAwaMMjVgz4O3PqOwPnnmQZ9RuKdwhUJhwUDl0ciD0Rqj9Tx46zMK65NnHvQZSUiIuUIJxrdkrDPF8+CtTw7rk2ce9FmOis2RqQ3eiDyaYLzRm2INeFCeB299clifPF3XZyQhwcaMZNQ872Dg0QsDeVr/KfB1R+IgLqF53ps2beodPnw4/lY68LJCwYrhWWF98lifPLX1WQ4/UzAjyc3zlhcEwYDjAzq2ha76ijyww2tK49Ca6+LJhYLU7Ny5s/na174W95EGvCzi1thwaaxPHuuTp6Y+WfqNgzFLCMbYDy2d5804beiSx33pmCyez0qA1ybwmIY9uOeff74XCnFv9+7dg32ck3p+pbE+eaxPnpr65HBPwSyLvJNgI8vO88arCoUnelV4XozZEmbbSngxujaQhlBQLvGeNm/eHN8I/fvf/z6YuUE6SBdhHVcK65PH+uSprU8Ov6dgRkI3lcKBMQZv5ZJ53hs3bowP6lhT4DByur3AbxXIaUmvQUEACjXmyr7g1cUC9MADDzT//Oc/mxtvvDEWHAqM0lEa65PH+uSpqU8ONwpmJBQcjBavhbHMdevWNQ8++GBzzz33NN/73vfiPqAwcYyMlUJIAWwDZqlluACk18eruvfee5vvf//78TcoPaWxPnmsT56a+mQJohkzkmCAy87zZuwT9u7d23v88cdjWMdxzkoQCsGSsWARvKy4Zn538PIG87xJ46OPPhrDs8D65LE+eWrqMwr3FMxITp8+HbvVIG8Fc/nKV77S3H333c173/ve5oc//GGzuLjYPP/889HTAY6Rl9MWmWcoCAMPSZ7fwYMHm23btjVf/epXY3ruvPPOgcfHJwRKY33yWJ88XdBnWUIEI3kzeTpO+OzZs5dsmwW0niJ0t+L63LlzcT0PDKd1ntJ+4sSJfuji25fAHOpvf/vb8QuPmM/VV1/dC93dFfm6Yyi0E3tBOo70fOc734kzSUjP2rVre6Ggx32lsT55rE+eWegzTf05slHgYnSxlhNa3ZiSEMeort88oLSjHVrSoHYJda3HaXzy5MmBMf30pz/tLSws9K699tposCpIrAVT+iZlkvhzfPe73+0Fjyqmgel8rFkoRG2xPnmsTx7qztwiSunTpv4c+bSCJ910s+imhAji0/FQwcV9vDZOuORCHHqYwudkefoebrIJosRw10Ev0ot+aLl+/fr+nosPmJa751kuaKtlOUg7MPshGGX8xC+f+t27d2/s6nI/rLm/22+/PR5LPgWDjuHl4kwXIO5R3eDlzkkX4g7eVbN///6oL3ZBOkG22maxPvnF+uQX6s7cUlqfVvVnv3FYAi1NuHj/10Vo4UIE/V9lGTVUlbayXQf9dA902UImx/SHzInbapLqSHqULtJLHuO9kN50Pzz22GPxEwGYzjXXXBO7ucFoB13SUKDiehxcD324NvGwENa2cSi+n//85zEdeFehAMX19u3b4742WJ881icP6cgtpfVpU38u38wHaGmGW2FauCBafNBRGlpvXtoAPOszZ84MvO95gHSiH600oF3I5Lge5V3NkuG85TfpQnPSKK8pGHDczsK9fP7zn292794dH84Fo4v3ycMyziFMvrF9EtI4BduG07Yceuj28MMPN0888UTzoQ99KKYZW8H7aov1yWN92lFanzb158jZR6GlGVyYhHNRujRUbJxSumFAJOAmECQF8Uhbl1G6pVXwCmKaQ4sff8soa5JqrAImmBnBH5GwfTgP0J/7eOSRR5onn3wynseLN3SBb7rppngMNpMDDdJrqnAoPA7iJ23XX399/E1B+cY3vtH8+Mc/bm655ZY4LNAW65PH+owm1WI5Suuj+IevDWPrzyDuSE6dOjUYLgqJGHQ91O0pScikuFZ3KbR2g4csi4uLcd1l0m4aaQe6dMwu6BrkcdotlfZsD8Ybf6t7LmQDP/jBD3rBy4ph0CyKcXBtrscybE+XM5GBdLPonJ/85Ce9D3/4wzG8UlifPNZnKUrbqAVK6qM8UL5cTv05slGg8nrwwQfj2BbjbKHliWGtZ7GEnklch1Ytru+///7ekSNH+insPppxhMGxfOpTn4r3EXpfg3ustYQucnxJJngrcSyVbcGjuCRtTM+T9uwbznu2sQ5d4bhmDJRrTWIjw8eRjltvvTWmKz1u1KI0Y5usSYvSsRKL9ckv1ie/cP3cwjEl9WGZtv7MvrwWEhC7KayD5xuHknQ420qjLiFxEh8LYW3vOl1PP+lx/o7G+uSxPnnmVZ/6yhljjOkMbhSMMcYMcKNgjDFmgBsFY4wxA9woGGOMGeBGwRhjzAA3CsYYYwYUbRRee+21uObbGyygbfMO844F93bhwsVvHDEP+K23Ln5fhGMU1vxkmHQOtc6VZppjLAjrujpG55SG1/BFem9vvPFGP1SeLusDirOW/SuuVBPlG59ZAOkh++VzNrPC+oymZvkq1iggJt/3Yc33OljSbfMOGcV9YFB8JPC6666Lv8+fPx+/NcJ+Kn/CenFEpJk8ClVorNEMo+QaXFPXU5h9HJOeUxq+gwXE9eabbw7uT4W7NF3XJ7X1GvZPhUdcVGLKGyoU4kaDHTt2NEeOHIn2mepxww03DCrAklifPDXLV7FGATG5Ad7iQ3gWwmxj37zDhwHJKDJMyKgBw+I3++kx8Fsog3NQoaEX68OHDw8+YMW5XItF12Efx6TnlIaCcfz48Rj3li1b+lubZsOGDc3Jkyf7v8rRdX1q2z92SKVGJSavc82aNbGyI34+ePmOd7wj6oSNopGOk5YlsT55apavoqWDT77SDUNkFsJsWw3QglO50EuQZ4NREeZrhtpH44Gxpw3BpF1A4uDYrVu3xsKiCo9tLKr42McxbEu9mpJgrHgzxMn9cu8UHgx206ZN/aPK0mV9oKb9Hz16NFZqVC76Eih68LVNNMAm4dSpU4M/bmG/9emGPjXLV7FvH3E8FSLHa+yO1pnzuDmJnoO4qVy5BuexENb2mihNoK5oCvco4yKtHIsebCejyeQcXJ/KDOPQ/XItPBiuA1wLg0ZrHYORY8RKWw6O4TzWl5u/xE06KFx4Mhyvc0nDJN6U0iwtdQ1tz9F1fbpg/9gZla16rBqSAK7Fdl0nva9J7BM41vqMhmOn1Yf01Cpf45WbEmUqN0BmsxCGSTK866SZqoqJLvDjjz8ejZwMpfLB6IBMxjBgEoPiWsr4xcXFuCZD2SbPirAMRcewjXNLQ4UMGCxhjIx7hEkKZFu6rk9t+8fWqNTQAXujwlOekQ6GIZRPHIuXLpueRf5Znzw1y1exq+Oxbdy4MRZCboqFMNvYN+9gOBgVkEksL7/8cvyjjoceeqh5+umnm4MHD8b9GJO8VxoPnZdD3Wj+U5VuLnAuXgpjmyyE2QYcw7Ewiy44HjhxY6g0fhRk7lFd3dJ0XZ/a9o898u+Jiot8UgNJRYgWDEXgwJB3pAvQS5qVxPrkqVq+ghAjYXdIWAyHxMU1v7VtHMtdfkyUlxAqz7hWfDpX27tA8CLif08Eo+4dOHAgpjFkYFw//PDDvV//+teDP7q4nHuHYLD9UK8XDDR+H30YtrFPpOeMg/RMm78cwz0DGnCtUBHH35PSNn+7rA8sl9/LbRvFStg/tsf5um99T1/XYp/uLVSAcT0p1idPG304plb5KtoPoUuGx0b3i4Uw2yYBz4HWnCmeeNqcm/4Oaa+6AGvSRFczZHp8KIWXEUSPaXzsscear3/9682Xv/zl5re//W0853KQVseOHYueChoMwzb2cQxMqm9bQiEaeCykgftmCIAZHbOiy/oAcRH/NPa/EmCfeN+s1VPVTBa8T9KDneKFAraM7c4K6zOamuWr6J/scMzw5ZfbthzES/ft5ptvjhUumca5/EYkGo2aYDQaA6UbShqZ3kb3DkgvlREPigRGxT1h+GRyDrqtGmfFcNGfLiW/uQYwC4F9GBB5o2N17jjQs03+0kBz78Cae2eta42DuNGEOImPhbC255gHfXQ/KcttG0UbfZReKjGOVXrTssS1aCy5HsNrys9Jrg9cw/qMhmu00ada+QoHjYTd4QIxHMSKa35rW44gdlyHyi/+NygLYdC+SVB3LhTomJ4gVCf+5zi9B7p5pOvZZ5+Nf33HfZJWlpARvW9961txaClkaP+MyTh+/Hg/dDE+NEivQZhtaVrSc8bRJn9DwxzX5Cuk11JXfBxKt87jGjCpfXRZH8XZxv513LT6APEq7YK8C5VK/9elYMeTYn3ytNGnZvkq2lPQEJC6hHj4XA8vexJC4getOOfygJB0aF9NiJ/uXTq3+tChQ/HlF+6RfTxw/tGPfhTTT6u/ffv2qAkPQCfVIPVqCZMHOpdroUe6fxIPWLTNXzwX3kTVseQzPaNQGcff4yDuqTyZhC7r09b+2+jDvZIPSice7+bNm+MQ5zvf+c5ot8D1SBf3JztWfOPgGOszGo5po0+t8lWsUUgjDq1kXGvcblyiBOdxDsMBDAVs27ateeqpp5qFhYX+EfVgSILhCuDNQzKMqY68JPXNb36zeeSRR5r77rvvki4gxo6xMYQxDt07UHhohEZVaBh48LIGhSk9N0eb/A0eeLwPzid9kxpqiuyAOImPhfAk9tF1fdJ7ID5QnJPcH7TRRw0gFQuVGfdPOUKDtDJMCV5pvD7DoJPANazPaLjGtPrULF9FewpUksMCLrdtOXRcegO6KajdU8CIIK309+/fHxsKMpNF90Cmstxyyy3RGCetlNJeiIyYfEghT7QP0nPG0TZ/h++DxpH75xqTNHzTGq3ouj5t7B/a6kMZwe6491QDeqr0ZPViVLoPOEcNaA7rk6etPrXKV9FGAVKPOg1PAl05ZvZQAVP5kjHEz3Ye4tYEPbgf0gekEWNBFwxKhqQuILCPjEbHcaSGmHoNw5mpbToGho14FG3zl3vhPN27tJi00VPaiZP4WAgvd5/DzIM+0Mb+2+jDcdxz6mESP5UZlSEVH5Wv8govWPk3KdYnT1t9apWvzg4f6UZAceumIJPsmcA9qLdAWhh3xKAxKG0XMnalf1JPQ15T2hshrHO5Trqd8OV4WqRn2vxd7j45l4JG+sblL8gOOI/4pM8k9gFd1ie9h2nsH9rqA+QT96zv5cgLBlUuWstOJ610rE+eNvrULF/FewptmPamukLX0096nL+jsT55rE+eedWnvnLGGGM6gxsFY4wxA9woGGOMGeBGwRhjzAA3CsYYYwa4UTDGGDPAjYIxxpgBIxsFXp7gDVBeAALm2PImKHNdta0kvGzEXFpeFBmOcxbxrwS8FAPMUZaeMIs5yuPQfGmteSkGZpU2XvbTXGni1AtMmlNdG+uTx/rkqa1Pm/pz5Mtr3ARvgLKbCHiDj4ZBUMmVhLf5qEx1Y7zFx82NSG7nQHi9WcvLIqRbL69wX7UNF32H9SRPyWs+AVFaZ72tyUfI+BYR+Ux6SAOLCnwtrE8e65OnC/pMW39m32imIcDbxcPlglRuvOo96WcC2pC+dcer5/xGTMISfB7QJ3mBjOF/m3mlvrbRko98S4Xsx3j4UBx/YJQ2ZiXZt29fc9ttt8UwaSA/JzXaWWB98lifPLX1aVV/hkQvS2hd4p+UhAv1wsVjmMNDQxHXs1jWrFkzCG/fvj2mYf/+/f0Udp/QoPZDvd7Ro0fjH/AEQxn8h3PNhXwNhhHDwUh7oaFackzJZceOHYMwNqW0dGWxPvnF+uSX2vqwTFt/ZnsKoA9EMZyk1maW0Moy7ELLqy8o0g1T97Gr0E1EWvSShjDpFzpLQ36SJjwXhgn1mWAg3cGgY7gUGhMmbrRiLbqgkfXJY33y1NZHTFN/jhzDQGjgZI1JITSR8Onq0hAPQ1d6jqFMJsP5jG3XkV4YAI0pn9AGhuTQszboSqFiAQxW+Yr2peFPidACKDSKm2/G1y7QYH3yWJ88tfVpU39mewpcmItSqdG6sOY3DUXmtBWBlpT4JCreNunh+Ya2dRkaVTwFGgDNOkoprd840Hfv3r2Df7FLPQm0VoErReopybPbs2dPc+edd8Z8n5UnNQrrk8f65OmCPtPWn9lGYfihCF02Wmie+POwtCS6IVrX4T/UGe4udhUygoZBGYLh0rgiuVrwWkhD5SlpwpBS4y2N4hzOT22vifXJY33y1NanTf059pmCMcaYK4Wm+X+o/1fegR9poQAAAABJRU5ErkJggg==;" parent="UkTJap6GeNjWdgkHiNkX-26" vertex="1">
          <mxGeometry x="18.5" y="29.00035766601559" width="389" height="160" as="geometry" />
        </mxCell>
        <mxCell id="UkTJap6GeNjWdgkHiNkX-28" value="" style="shape=image;verticalLabelPosition=bottom;labelBackgroundColor=default;verticalAlign=top;aspect=fixed;imageAspect=0;image=data:image/svg+xml,PHN2ZyB4bWxuczp4bGluaz0iaHR0cDovL3d3dy53My5vcmcvMTk5OS94bGluayIgeG1sbnM9Imh0dHA6Ly93d3cudzMub3JnLzIwMDAvc3ZnIiB2aWV3Qm94PSItLjIzOTA1MSAtLjIyNzQ0MSA5NC42NjMxOTEgMjQuMzYzNTM1IiBoZWlnaHQ9IjI0LjM2MzUzNXB0IiB3aWR0aD0iOTQuNjYzMTkxcHQiIHZlcnNpb249IjEuMSI+JiN4YTs8ZGVmcz4mI3hhOzxwYXRoIGQ9Ik01LjI2MDI3NC0yLjAwODQ2OEg0Ljk5NzI2QzQuOTYxMzk1LTEuODA1MjMgNC44NjU3NTMtMS4xNDc2OTYgNC43NDYyMDItLjk1NjQxM0M0LjY2MjUxNi0uODQ4ODE3IDMuOTgxMDcxLS44NDg4MTcgMy42MjI0MTYtLjg0ODgxN0gxLjQxMDcxQzEuNzMzNDk5LTEuMTIzNzg2IDIuNDYyNzY1LTEuODg4OTE3IDIuNzczNTk5LTIuMTc1ODQxQzQuNTkwNzg1LTMuODQ5NTY0IDUuMjYwMjc0LTQuNDcxMjMzIDUuMjYwMjc0LTUuNjU0Nzk1QzUuMjYwMjc0LTcuMDI5NjM5IDQuMTcyMzU0LTcuOTUwMTg3IDIuNzg1NTU0LTcuOTUwMTg3Uy41ODU4MDMtNi43NjY2MjUgLjU4NTgwMy01LjczODQ4MUMuNTg1ODAzLTUuMTI4NzY3IDEuMTExODMxLTUuMTI4NzY3IDEuMTQ3Njk2LTUuMTI4NzY3QzEuMzk4NzU1LTUuMTI4NzY3IDEuNzA5NTg5LTUuMzA4MDk1IDEuNzA5NTg5LTUuNjkwNjZDMS43MDk1ODktNi4wMjU0MDUgMS40ODI0NDEtNi4yNTI1NTMgMS4xNDc2OTYtNi4yNTI1NTNDMS4wNDAxLTYuMjUyNTUzIDEuMDE2MTg5LTYuMjUyNTUzIC45ODAzMjQtNi4yNDA1OThDMS4yMDc0NzItNy4wNTM1NDkgMS44NTMwNTEtNy42MDM0ODcgMi42MzAxMzctNy42MDM0ODdDMy42NDYzMjYtNy42MDM0ODcgNC4yNjc5OTUtNi43NTQ2NyA0LjI2Nzk5NS01LjY1NDc5NUM0LjI2Nzk5NS00LjYzODYwNSAzLjY4MjE5Mi0zLjc1MzkyMyAzLjAwMDc0Ny0yLjk4ODc5MkwuNTg1ODAzLS4yODY5MjRWMEg0Ljk0OTQ0TDUuMjYwMjc0LTIuMDA4NDY4WiIgaWQ9ImczLTUwIi8+JiN4YTs8cGF0aCBkPSJNOC4wNjk3MzgtMy44NzM0NzRDOC4yMzcxMTEtMy44NzM0NzQgOC40NTIzMDQtMy44NzM0NzQgOC40NTIzMDQtNC4wODg2NjdDOC40NTIzMDQtNC4zMTU4MTYgOC4yNDkwNjYtNC4zMTU4MTYgOC4wNjk3MzgtNC4zMTU4MTZIMS4wMjgxNDRDLjg2MDc3Mi00LjMxNTgxNiAuNjQ1NTc5LTQuMzE1ODE2IC42NDU1NzktNC4xMDA2MjNDLjY0NTU3OS0zLjg3MzQ3NCAuODQ4ODE3LTMuODczNDc0IDEuMDI4MTQ0LTMuODczNDc0SDguMDY5NzM4Wk04LjA2OTczOC0xLjY0OTgxM0M4LjIzNzExMS0xLjY0OTgxMyA4LjQ1MjMwNC0xLjY0OTgxMyA4LjQ1MjMwNC0xLjg2NTAwNkM4LjQ1MjMwNC0yLjA5MjE1NCA4LjI0OTA2Ni0yLjA5MjE1NCA4LjA2OTczOC0yLjA5MjE1NEgxLjAyODE0NEMuODYwNzcyLTIuMDkyMTU0IC42NDU1NzktMi4wOTIxNTQgLjY0NTU3OS0xLjg3Njk2MUMuNjQ1NTc5LTEuNjQ5ODEzIC44NDg4MTctMS42NDk4MTMgMS4wMjgxNDQtMS42NDk4MTNIOC4wNjk3MzhaIiBpZD0iZzMtNjEiLz4mI3hhOzxwYXRoIGQ9Ik02LjMxMjMyOS00LjU3NDg0NEM2LjQwNzk3LTQuOTY1MzggNi41ODMzMTMtNS4xNTY2NjMgNy4xNTcxNjEtNS4xODA1NzNDNy4yMzY4NjItNS4xODA1NzMgNy4zMDA2MjMtNS4yMjgzOTQgNy4zMDA2MjMtNS4zMzIwMDVDNy4zMDA2MjMtNS4zNzk4MjYgNy4yNjA3NzItNS40NDM1ODcgNy4xODEwNzEtNS40NDM1ODdDNy4xMjUyOC01LjQ0MzU4NyA2Ljk3Mzg0OC01LjQxOTY3NiA2LjM4NDA2LTUuNDE5Njc2QzUuNzQ2NDUxLTUuNDE5Njc2IDUuNjQyODM5LTUuNDQzNTg3IDUuNTcxMTA4LTUuNDQzNTg3QzUuNDQzNTg3LTUuNDQzNTg3IDUuNDE5Njc2LTUuMzU1OTE1IDUuNDE5Njc2LTUuMjkyMTU0QzUuNDE5Njc2LTUuMTg4NTQzIDUuNTIzMjg4LTUuMTgwNTczIDUuNTk1MDE5LTUuMTgwNTczQzYuMDgxMTk2LTUuMTY0NjMzIDYuMDgxMTk2LTQuOTQ5NDQgNi4wODExOTYtNC44Mzc4NThDNi4wODExOTYtNC43OTgwMDcgNi4wODExOTYtNC43NTgxNTcgNi4wNDkzMTUtNC42MzA2MzVMNS4xNzI2MDMtMS4xMzk3MjZMMy4yNTE4MDYtNS4zMDAxMjVDMy4xODgwNDUtNS40NDM1ODcgMy4xNzIxMDUtNS40NDM1ODcgMi45ODA4MjItNS40NDM1ODdIMS45NDQ3MDdDMS44MDEyNDUtNS40NDM1ODcgMS42OTc2MzQtNS40NDM1ODcgMS42OTc2MzQtNS4yOTIxNTRDMS42OTc2MzQtNS4xODA1NzMgMS43OTMyNzUtNS4xODA1NzMgMS45NjA2NDgtNS4xODA1NzNDMi4wMjQ0MDgtNS4xODA1NzMgMi4yNjM1MTItNS4xODA1NzMgMi40NDY4MjQtNS4xMzI3NTJMMS4zNzg4MjktLjg1MjgwMkMxLjI4MzE4OC0uNDU0Mjk2IDEuMDc1OTY1LS4yNzg5NTQgLjU0MTk2OC0uMjYzMDE0Qy40OTQxNDctLjI2MzAxNCAuMzk4NTA2LS4yNTUwNDQgLjM5ODUwNi0uMTExNTgyQy4zOTg1MDYtLjA2Mzc2MSAuNDM4MzU2IDAgLjUxODA1NyAwQy41NDk5MzggMCAuNzMzMjUtLjAyMzkxIDEuMzA3MDk4LS4wMjM5MUMxLjkzNjczNy0uMDIzOTEgMi4wNTYyODkgMCAyLjEyODAyIDBDMi4xNTk5IDAgMi4yNzk0NTIgMCAyLjI3OTQ1Mi0uMTUxNDMyQzIuMjc5NDUyLS4yNDcwNzMgMi4xOTE3ODEtLjI2MzAxNCAyLjEzNTk5LS4yNjMwMTRDMS44NDkwNjYtLjI3MDk4NCAxLjYwOTk2My0uMzE4ODA0IDEuNjA5OTYzLS41OTc3NThDMS42MDk5NjMtLjYzNzYwOSAxLjYzMzg3My0uNzQ5MTkxIDEuNjMzODczLS43NTcxNjFMMi42Nzc5NTgtNC45MTc1NTlIMi42ODU5MjhMNC45MDE2MTktLjE0MzQ2MkM0Ljk1NzQxLS4wMTU5NCA0Ljk2NTM4IDAgNS4wNTMwNTEgMEM1LjE2NDYzMyAwIDUuMTcyNjAzLS4wMzE4OCA1LjIwNDQ4My0uMTY3MzcyTDYuMzEyMzI5LTQuNTc0ODQ0WiIgaWQ9ImcxLTc4Ii8+JiN4YTs8cGF0aCBkPSJNNy44Nzg0NTYtMi43MjU3NzhDOC4xMDU2MDQtMi44MzMzNzUgOC4xMTc1NTktMi45MDUxMDYgOC4xMTc1NTktMi45ODg3OTJDOC4xMTc1NTktMy4wNjA1MjMgOC4wOTM2NDktMy4xNDQyMDkgNy44Nzg0NTYtMy4yMzk4NTFMMS40MTA3MS02LjIxNjY4N0MxLjI1NTI5My02LjI4ODQxOCAxLjIzMTM4Mi02LjMwMDM3NCAxLjIwNzQ3Mi02LjMwMDM3NEMxLjA2NDAxLTYuMzAwMzc0IC45ODAzMjQtNi4xODA4MjIgLjk4MDMyNC02LjA4NTE4MUMuOTgwMzI0LTUuOTQxNzE5IDEuMDc1OTY1LTUuODkzODk4IDEuMjMxMzgyLTUuODIyMTY3TDcuMzc2MzM5LTIuOTg4NzkyTDEuMjE5NDI3LS4xNDM0NjJDLjk4MDMyNC0uMDM1ODY2IC45ODAzMjQgLjA0NzgyMSAuOTgwMzI0IC4xMTk1NTJDLjk4MDMyNCAuMjE1MTkzIDEuMDY0MDEgLjMzNDc0NSAxLjIwNzQ3MiAuMzM0NzQ1QzEuMjMxMzgyIC4zMzQ3NDUgMS4yNDMzMzcgLjMyMjc5IDEuNDEwNzEgLjI1MTA1OUw3Ljg3ODQ1Ni0yLjcyNTc3OFoiIGlkPSJnMi02MiIvPiYjeGE7PHBhdGggZD0iTTguODQ2ODI0LTYuOTEwMDg3QzguOTc4MzMxLTcuNDI0MTU5IDkuMTY5NjE0LTcuNzgyODE0IDEwLjA3ODIwNy03LjgxODY4QzEwLjExNDA3Mi03LjgxODY4IDEwLjI1NzUzNC03LjgzMDYzNSAxMC4yNTc1MzQtOC4wMzM4NzNDMTAuMjU3NTM0LTguMTY1MzggMTAuMTQ5OTM4LTguMTY1MzggMTAuMTAyMTE3LTguMTY1MzhDOS44NjMwMTQtOC4xNjUzOCA5LjI1MzMtOC4xNDE0NjkgOS4wMTQxOTctOC4xNDE0NjlIOC40NDAzNDlDOC4yNzI5NzYtOC4xNDE0NjkgOC4wNTc3ODMtOC4xNjUzOCA3Ljg5MDQxMS04LjE2NTM4QzcuODE4NjgtOC4xNjUzOCA3LjY3NTIxOC04LjE2NTM4IDcuNjc1MjE4LTcuOTM4MjMyQzcuNjc1MjE4LTcuODE4NjggNy43NzA4NTktNy44MTg2OCA3Ljg1NDU0NS03LjgxODY4QzguNTcxODU2LTcuNzk0NzcgOC42MTk2NzYtNy41MTk4MDEgOC42MTk2NzYtNy4zMDQ2MDhDOC42MTk2NzYtNy4xOTcwMTEgOC42MDc3MjEtNy4xNjExNDYgOC41NzE4NTYtNi45OTM3NzNMNy4yMjA5MjItMS42MDE5OTNMNC42NjI1MTYtNy45NjIxNDJDNC41Nzg4MjktOC4xNTM0MjUgNC41NjY4NzQtOC4xNjUzOCA0LjMwMzg2MS04LjE2NTM4SDIuODQ1MzNDMi42MDYyMjctOC4xNjUzOCAyLjQ5ODYzLTguMTY1MzggMi40OTg2My03LjkzODIzMkMyLjQ5ODYzLTcuODE4NjggMi41ODIzMTYtNy44MTg2OCAyLjgwOTQ2NS03LjgxODY4QzIuODY5MjQtNy44MTg2OCAzLjU3NDU5NS03LjgxODY4IDMuNTc0NTk1LTcuNzExMDgzQzMuNTc0NTk1LTcuNjg3MTczIDMuNTUwNjg1LTcuNTkxNTMyIDMuNTM4NzMtNy41NTU2NjZMMS45NDg2OTItMS4yMTk0MjdDMS44MDUyMy0uNjMzNjI0IDEuNTE4MzA2LS4zODI1NjUgLjcyOTI2NS0uMzQ2N0MuNjY5NDg5LS4zNDY3IC41NDk5MzgtLjMzNDc0NSAuNTQ5OTM4LS4xMTk1NTJDLjU0OTkzOCAwIC42Njk0ODkgMCAuNzA1MzU1IDBDLjk0NDQ1OCAwIDEuNTU0MTcyLS4wMjM5MSAxLjc5MzI3NS0uMDIzOTFIMi4zNjcxMjNDMi41MzQ0OTYtLjAyMzkxIDIuNzM3NzMzIDAgMi45MDUxMDYgMEMyLjk4ODc5MiAwIDMuMTIwMjk5IDAgMy4xMjAyOTktLjIyNzE0OEMzLjEyMDI5OS0uMzM0NzQ1IDMuMDAwNzQ3LS4zNDY3IDIuOTUyOTI3LS4zNDY3QzIuNTU4NDA2LS4zNTg2NTUgMi4xNzU4NDEtLjQzMDM4NiAyLjE3NTg0MS0uODYwNzcyQzIuMTc1ODQxLS45NTY0MTMgMi4xOTk3NTEtMS4wNjQwMSAyLjIyMzY2MS0xLjE1OTY1MUwzLjgzNzYwOS03LjU1NTY2NkMzLjkwOTM0LTcuNDM2MTE1IDMuOTA5MzQtNy40MTIyMDQgMy45NTcxNjEtNy4zMDQ2MDhMNi44MDI0OTEtLjIxNTE5M0M2Ljg2MjI2Ny0uMDcxNzMxIDYuODg2MTc3IDAgNi45OTM3NzMgMEM3LjExMzMyNSAwIDcuMTI1MjgtLjAzNTg2NiA3LjE3MzEwMS0uMjM5MTAzTDguODQ2ODI0LTYuOTEwMDg3WiIgaWQ9ImcyLTc4Ii8+JiN4YTs8cGF0aCBkPSJNMy41OTg1MDYtMS40MjI2NjVDMy41Mzg3My0xLjIxOTQyNyAzLjUzODczLTEuMTk1NTE3IDMuMzcxMzU3LS45NjgzNjlDMy4xMDgzNDQtLjYzMzYyNCAyLjU4MjMxNi0uMTE5NTUyIDIuMDIwNDIzLS4xMTk1NTJDMS41MzAyNjItLjExOTU1MiAxLjI1NTI5My0uNTYxODkzIDEuMjU1MjkzLTEuMjY3MjQ4QzEuMjU1MjkzLTEuOTI0NzgyIDEuNjI1OTAzLTMuMjYzNzYxIDEuODUzMDUxLTMuNzY1ODc4QzIuMjU5NTI3LTQuNjAyNzQgMi44MjE0Mi01LjAzMzEyNiAzLjI4NzY3MS01LjAzMzEyNkM0LjA3NjcxMi01LjAzMzEyNiA0LjIzMjEzLTQuMDUyODAyIDQuMjMyMTMtMy45NTcxNjFDNC4yMzIxMy0zLjk0NTIwNSA0LjE5NjI2NC0zLjc4OTc4OCA0LjE4NDMwOS0zLjc2NTg3OEwzLjU5ODUwNi0xLjQyMjY2NVpNNC4zNjM2MzYtNC40ODMxODhDNC4yMzIxMy00Ljc5NDAyMiAzLjkwOTM0LTUuMjcyMjI5IDMuMjg3NjcxLTUuMjcyMjI5QzEuOTM2NzM3LTUuMjcyMjI5IC40NzgyMDctMy41MjY3NzUgLjQ3ODIwNy0xLjc1NzQxQy40NzgyMDctLjU3Mzg0OCAxLjE3MTYwNiAuMTE5NTUyIDEuOTg0NTU4IC4xMTk1NTJDMi42NDIwOTIgLjExOTU1MiAzLjIwMzk4NS0uMzk0NTIxIDMuNTM4NzMtLjc4OTA0MUMzLjY1ODI4MS0uMDgzNjg2IDQuMjIwMTc0IC4xMTk1NTIgNC41Nzg4MjkgLjExOTU1MlM1LjIyNDQwOC0uMDk1NjQxIDUuNDM5NjAxLS41MjYwMjdDNS42MzA4ODQtLjkzMjUwMyA1Ljc5ODI1Ny0xLjY2MTc2OCA1Ljc5ODI1Ny0xLjcwOTU4OUM1Ljc5ODI1Ny0xLjc2OTM2NSA1Ljc1MDQzNi0xLjgxNzE4NiA1LjY3ODcwNS0xLjgxNzE4NkM1LjU3MTEwOC0xLjgxNzE4NiA1LjU1OTE1My0xLjc1NzQxIDUuNTExMzMzLTEuNTc4MDgyQzUuMzMyMDA1LS44NzI3MjcgNS4xMDQ4NTctLjExOTU1MiA0LjYxNDY5NS0uMTE5NTUyQzQuMjY3OTk1LS4xMTk1NTIgNC4yNDQwODUtLjQzMDM4NiA0LjI0NDA4NS0uNjY5NDg5QzQuMjQ0MDg1LS45NDQ0NTggNC4yNzk5NS0xLjA3NTk2NSA0LjM4NzU0Ny0xLjU0MjIxN0M0LjQ3MTIzMy0xLjg0MTA5NiA0LjUzMTAwOS0yLjEwNDExIDQuNjI2NjUtMi40NTA4MDlDNS4wNjg5OTEtNC4yNDQwODUgNS4xNzY1ODgtNC42NzQ0NzEgNS4xNzY1ODgtNC43NDYyMDJDNS4xNzY1ODgtNC45MTM1NzQgNS4wNDUwODEtNS4wNDUwODEgNC44NjU3NTMtNS4wNDUwODFDNC40ODMxODgtNS4wNDUwODEgNC4zODc1NDctNC42MjY2NSA0LjM2MzYzNi00LjQ4MzE4OFoiIGlkPSJnMi05NyIvPiYjeGE7PHBhdGggZD0iTTQuNjE0Njk1LTQuOTEzNTc0QzQuNjE0Njk1LTUuMjYwMjc0IDQuMzI3NzcxLTUuNTQ3MTk4IDMuOTgxMDcxLTUuNTQ3MTk4UzMuMzQ3NDQ3LTUuMjYwMjc0IDMuMzQ3NDQ3LTQuOTEzNTc0UzMuNjM0MzcxLTQuMjc5OTUgMy45ODEwNzEtNC4yNzk5NUM0LjMxNTgxNi00LjI3OTk1IDQuNjE0Njk1LTQuNTU0OTE5IDQuNjE0Njk1LTQuOTEzNTc0Wk03LjYwMzQ4NyAuMjYzMDE0QzcuNjAzNDg3LS4wODM2ODYgNy4zMTY1NjMtLjM3MDYxIDYuOTY5ODYzLS4zNzA2MVM2LjMzNjIzOS0uMDgzNjg2IDYuMzM2MjM5IC4yNjMwMTRTNi42MjMxNjMgLjg5NjYzOCA2Ljk2OTg2MyAuODk2NjM4UzcuNjAzNDg3IC42MDk3MTQgNy42MDM0ODcgLjI2MzAxNFpNMS42MjU5MDMgLjI2MzAxNEMxLjYyNTkwMy0uMDgzNjg2IDEuMzM4OTc5LS4zNzA2MSAuOTkyMjc5LS4zNzA2MVMuMzU4NjU1LS4wODM2ODYgLjM1ODY1NSAuMjYzMDE0Uy42NDU1NzkgLjg5NjYzOCAuOTkyMjc5IC44OTY2MzhTMS42MjU5MDMgLjYwOTcxNCAxLjYyNTkwMyAuMjYzMDE0WiIgaWQ9ImcwLTQxIi8+JiN4YTs8L2RlZnM+JiN4YTs8ZyB0cmFuc2Zvcm09Im1hdHJpeCgxLjEzIDAgMCAxLjEzIC02My45ODYwNDMgLTYwLjg3ODM3OSkiIGlkPSJwYWdlMSI+JiN4YTs8dXNlIHhsaW5rOmhyZWY9IiNnMC00MSIgeT0iNjcuMDMzMzg0IiB4PSI1Ni40MTMyNjciLz4mI3hhOzx1c2UgeGxpbms6aHJlZj0iI2cyLTk3IiB5PSI2Ny4wMzMzODQiIHg9IjY3LjcwNDIzNSIvPiYjeGE7PHVzZSB4bGluazpocmVmPSIjZzItNjIiIHk9IjY3LjAzMzM4NCIgeD0iNzcuMTcwMDA5Ii8+JiN4YTs8dXNlIHhsaW5rOmhyZWY9IiNnMi02MiIgeT0iNjcuMDMzMzg0IiB4PSI4Ni4yNzQ2NiIvPiYjeGE7PHVzZSB4bGluazpocmVmPSIjZzItNzgiIHk9IjY3LjAzMzM4NCIgeD0iOTguNzAwMTQxIi8+JiN4YTs8dXNlIHhsaW5rOmhyZWY9IiNnMy02MSIgeT0iNjcuMDMzMzg0IiB4PSIxMTIuNjQzNTgxIi8+JiN4YTs8dXNlIHhsaW5rOmhyZWY9IiNnMi05NyIgeT0iNTguOTQ1NjI2IiB4PSIxMzAuMTUyODI3Ii8+JiN4YTs8cmVjdCB3aWR0aD0iMTMuOTIxNDI3IiBoZWlnaHQ9Ii40NzgxODciIHk9IjYzLjgwNTQ5OSIgeD0iMTI2LjI2NDU3NSIvPiYjeGE7PHVzZSB4bGluazpocmVmPSIjZzMtNTAiIHk9Ijc1LjIzNDA0NyIgeD0iMTI2LjI2NDU3NSIvPiYjeGE7PHVzZSB4bGluazpocmVmPSIjZzEtNzgiIHk9IjcxLjc4MDMzOSIgeD0iMTMyLjExNzU2NiIvPiYjeGE7PC9nPiYjeGE7PC9zdmc+;" parent="UkTJap6GeNjWdgkHiNkX-26" vertex="1">
          <mxGeometry x="117.995" y="204" width="190.01" height="48" as="geometry" />
        </mxCell>
        <mxCell id="UkTJap6GeNjWdgkHiNkX-29" value="For every right shift, number is &lt;b&gt;divided&amp;nbsp;by 2&lt;/b&gt;" style="text;html=1;align=center;verticalAlign=middle;resizable=0;points=[];autosize=1;strokeColor=#666666;fillColor=none;fontColor=#333333;" parent="UkTJap6GeNjWdgkHiNkX-25" vertex="1">
          <mxGeometry x="86.5" y="292" width="253" height="26" as="geometry" />
        </mxCell>
        <mxCell id="UkTJap6GeNjWdgkHiNkX-30" style="edgeStyle=orthogonalEdgeStyle;rounded=0;orthogonalLoop=1;jettySize=auto;html=1;" parent="UkTJap6GeNjWdgkHiNkX-25" source="UkTJap6GeNjWdgkHiNkX-26" target="UkTJap6GeNjWdgkHiNkX-29" edge="1">
          <mxGeometry relative="1" as="geometry" />
        </mxCell>
        <mxCell id="UkTJap6GeNjWdgkHiNkX-31" value="No issue of overflow" style="text;html=1;align=center;verticalAlign=middle;resizable=0;points=[];autosize=1;strokeColor=#666666;fillColor=none;fontColor=#333333;" parent="UkTJap6GeNjWdgkHiNkX-25" vertex="1">
          <mxGeometry x="150" y="337" width="126" height="26" as="geometry" />
        </mxCell>
        <mxCell id="UkTJap6GeNjWdgkHiNkX-32" style="edgeStyle=orthogonalEdgeStyle;rounded=0;orthogonalLoop=1;jettySize=auto;html=1;" parent="UkTJap6GeNjWdgkHiNkX-25" source="UkTJap6GeNjWdgkHiNkX-29" target="UkTJap6GeNjWdgkHiNkX-31" edge="1">
          <mxGeometry relative="1" as="geometry" />
        </mxCell>
        <mxCell id="UkTJap6GeNjWdgkHiNkX-33" style="edgeStyle=orthogonalEdgeStyle;rounded=0;orthogonalLoop=1;jettySize=auto;html=1;" parent="1" source="UkTJap6GeNjWdgkHiNkX-18" target="UkTJap6GeNjWdgkHiNkX-26" edge="1">
          <mxGeometry relative="1" as="geometry">
            <Array as="points">
              <mxPoint x="1240" y="560" />
              <mxPoint x="1650" y="560" />
            </Array>
          </mxGeometry>
        </mxCell>
        <mxCell id="UkTJap6GeNjWdgkHiNkX-34" style="edgeStyle=orthogonalEdgeStyle;rounded=0;orthogonalLoop=1;jettySize=auto;html=1;" parent="1" source="UkTJap6GeNjWdgkHiNkX-18" target="UkTJap6GeNjWdgkHiNkX-42" edge="1">
          <mxGeometry relative="1" as="geometry" />
        </mxCell>
        <mxCell id="UkTJap6GeNjWdgkHiNkX-35" value="Left shift is very useful to find power of 2" style="swimlane;whiteSpace=wrap;html=1;fillColor=#fff2cc;strokeColor=#d6b656;swimlaneFillColor=#ffffff;" parent="1" vertex="1">
          <mxGeometry x="327.00000000000045" y="631" width="381" height="99" as="geometry" />
        </mxCell>
        <mxCell id="UkTJap6GeNjWdgkHiNkX-36" value="" style="shape=image;verticalLabelPosition=bottom;labelBackgroundColor=default;verticalAlign=top;aspect=fixed;imageAspect=0;image=data:image/svg+xml,PHN2ZyB4bWxuczp4bGluaz0iaHR0cDovL3d3dy53My5vcmcvMTk5OS94bGluayIgeG1sbnM9Imh0dHA6Ly93d3cudzMub3JnLzIwMDAvc3ZnIiB2aWV3Qm94PSItLjIzOTA1MSAtLjIzNTI1NCAxMDEuNDE1Mzg5IDExLjk0NTI5MiIgaGVpZ2h0PSIxMS45NDUyOTJwdCIgd2lkdGg9IjEwMS40MTUzODlwdCIgdmVyc2lvbj0iMS4xIj4mI3hhOzxkZWZzPiYjeGE7PHBhdGggZD0iTTEuMTE1ODE2LTQuNDc5MjAzQzEuMjE5NDI3LTQuNDQ3MzIzIDEuNTM4MjMyLTQuMzY3NjIxIDEuODcyOTc2LTQuMzY3NjIxQzIuODY5MjQtNC4zNjc2MjEgMy40NzQ5NjktNS4wNjg5OTEgMy40NzQ5NjktNS4xODg1NDNDMy40NzQ5NjktNS4yNzYyMTQgMy40MTkxNzgtNS4zMDAxMjUgMy4zNzkzMjgtNS4zMDAxMjVDMy4zNjMzODctNS4zMDAxMjUgMy4zNDc0NDctNS4zMDAxMjUgMy4yNzU3MTYtNS4yNjAyNzRDMi45NjQ4ODItNS4xNDA3MjIgMi41OTgyNTctNS4wNDUwODEgMi4xNjc4Ny01LjA0NTA4MUMxLjY5NzYzNC01LjA0NTA4MSAxLjMwNzA5OC01LjE2NDYzMyAxLjA2MDAyNS01LjI2MDI3NEMuOTgwMzI0LTUuMzAwMTI1IC45NjQzODQtNS4zMDAxMjUgLjk1NjQxMy01LjMwMDEyNUMuODUyODAyLTUuMzAwMTI1IC44NTI4MDItNS4yMTI0NTMgLjg1MjgwMi01LjA2ODk5MVYtMi43MzM3NDhDLjg1MjgwMi0yLjU5MDI4NiAuODUyODAyLTIuNDk0NjQ1IC45ODAzMjQtMi40OTQ2NDVDMS4wNDQwODUtMi40OTQ2NDUgMS4wNjc5OTUtMi41MjY1MjYgMS4xMDc4NDYtMi41OTAyODZDMS4yMDM0ODctMi43MDk4MzggMS41MDYzNTEtMy4xMTYzMTQgMi4xODM4MTEtMy4xMTYzMTRDMi42MzAxMzctMy4xMTYzMTQgMi44NDUzMy0yLjc0OTY4OSAyLjkxNzA2MS0yLjU5ODI1N0MzLjA1MjU1My0yLjMxMTMzMyAzLjA2ODQ5My0xLjk0NDcwNyAzLjA2ODQ5My0xLjYzMzg3M0MzLjA2ODQ5My0xLjMzODk3OSAzLjA2MDUyMy0uOTA4NTkzIDIuODM3MzYtLjU1NzkwOEMyLjY4NTkyOC0uMzE4ODA0IDIuMzY3MTIzLS4wNzE3MzEgMS45NDQ3MDctLjA3MTczMUMxLjQyNjY1LS4wNzE3MzEgLjkxNjU2My0uMzk4NTA2IC43MzMyNS0uOTE2NTYzQy43NTcxNjEtLjkwODU5MyAuODA0OTgxLS45MDg1OTMgLjgxMjk1MS0uOTA4NTkzQzEuMDM2MTE1LS45MDg1OTMgMS4yMTE0NTctMS4wNTIwNTUgMS4yMTE0NTctMS4yOTkxMjhDMS4yMTE0NTctMS41OTQwMjIgLjk4MDMyNC0xLjY5NzYzNCAuODIwOTIyLTEuNjk3NjM0Qy42Nzc0Ni0xLjY5NzYzNCAuNDIyNDE2LTEuNjE3OTMzIC40MjI0MTYtMS4yNzUyMThDLjQyMjQxNi0uNTU3OTA4IDEuMDQ0MDg1IC4xNjczNzIgMS45NjA2NDggLjE2NzM3MkMyLjk1NjkxMiAuMTY3MzcyIDMuODAxNzQzLS42MDU3MjkgMy44MDE3NDMtMS41OTQwMjJDMy44MDE3NDMtMi41MTg1NTUgMy4xMzIyNTQtMy4zMzk0NzcgMi4xOTE3ODEtMy4zMzk0NzdDMS43OTMyNzUtMy4zMzk0NzcgMS40MTg2OC0zLjIxMTk1NSAxLjExNTgxNi0yLjk0MDk3MVYtNC40NzkyMDNaIiBpZD0iZzEtNTMiLz4mI3hhOzxwYXRoIGQ9Ik03Ljg3ODQ1Ni01LjgyMjE2N0M4LjA5MzY0OS01LjkxNzgwOCA4LjExNzU1OS02LjAwMTQ5NCA4LjExNzU1OS02LjA3MzIyNUM4LjExNzU1OS02LjIwNDczMiA4LjAyMTkxOC02LjMwMDM3NCA3Ljg5MDQxMS02LjMwMDM3NEM3Ljg2NjUwMS02LjMwMDM3NCA3Ljg1NDU0NS02LjI4ODQxOCA3LjY4NzE3My02LjIxNjY4N0wxLjIxOTQyNy0zLjIzOTg1MUMxLjAwNDIzNC0zLjE0NDIwOSAuOTgwMzI0LTMuMDYwNTIzIC45ODAzMjQtMi45ODg3OTJDLjk4MDMyNC0yLjkwNTEwNiAuOTkyMjc5LTIuODMzMzc1IDEuMjE5NDI3LTIuNzI1Nzc4TDcuNjg3MTczIC4yNTEwNTlDNy44NDI1OSAuMzIyNzkgNy44NjY1MDEgLjMzNDc0NSA3Ljg5MDQxMSAuMzM0NzQ1QzguMDIxOTE4IC4zMzQ3NDUgOC4xMTc1NTkgLjIzOTEwMyA4LjExNzU1OSAuMTA3NTk3QzguMTE3NTU5IC4wMzU4NjYgOC4wOTM2NDktLjA0NzgyMSA3Ljg3ODQ1Ni0uMTQzNDYyTDEuNzIxNTQ0LTIuOTc2ODM3TDcuODc4NDU2LTUuODIyMTY3WiIgaWQ9ImcwLTYwIi8+JiN4YTs8cGF0aCBkPSJNMy40NDMwODgtNy42NjMyNjNDMy40NDMwODgtNy45MzgyMzIgMy40NDMwODgtNy45NTAxODcgMy4yMDM5ODUtNy45NTAxODdDMi45MTcwNjEtNy42MjczOTcgMi4zMTkzMDMtNy4xODUwNTYgMS4wODc5Mi03LjE4NTA1NlYtNi44MzgzNTZDMS4zNjI4ODktNi44MzgzNTYgMS45NjA2NDgtNi44MzgzNTYgMi42MTgxODItNy4xNDkxOTFWLS45MjA1NDhDMi42MTgxODItLjQ5MDE2MiAyLjU4MjMxNi0uMzQ2NyAxLjUzMDI2Mi0uMzQ2N0gxLjE1OTY1MVYwQzEuNDgyNDQxLS4wMjM5MSAyLjY0MjA5Mi0uMDIzOTEgMy4wMzY2MTMtLjAyMzkxUzQuNTc4ODI5LS4wMjM5MSA0LjkwMTYxOSAwVi0uMzQ2N0g0LjUzMTAwOUMzLjQ3ODk1NC0uMzQ2NyAzLjQ0MzA4OC0uNDkwMTYyIDMuNDQzMDg4LS45MjA1NDhWLTcuNjYzMjYzWiIgaWQ9ImcyLTQ5Ii8+JiN4YTs8cGF0aCBkPSJNNS4yNjAyNzQtMi4wMDg0NjhINC45OTcyNkM0Ljk2MTM5NS0xLjgwNTIzIDQuODY1NzUzLTEuMTQ3Njk2IDQuNzQ2MjAyLS45NTY0MTNDNC42NjI1MTYtLjg0ODgxNyAzLjk4MTA3MS0uODQ4ODE3IDMuNjIyNDE2LS44NDg4MTdIMS40MTA3MUMxLjczMzQ5OS0xLjEyMzc4NiAyLjQ2Mjc2NS0xLjg4ODkxNyAyLjc3MzU5OS0yLjE3NTg0MUM0LjU5MDc4NS0zLjg0OTU2NCA1LjI2MDI3NC00LjQ3MTIzMyA1LjI2MDI3NC01LjY1NDc5NUM1LjI2MDI3NC03LjAyOTYzOSA0LjE3MjM1NC03Ljk1MDE4NyAyLjc4NTU1NC03Ljk1MDE4N1MuNTg1ODAzLTYuNzY2NjI1IC41ODU4MDMtNS43Mzg0ODFDLjU4NTgwMy01LjEyODc2NyAxLjExMTgzMS01LjEyODc2NyAxLjE0NzY5Ni01LjEyODc2N0MxLjM5ODc1NS01LjEyODc2NyAxLjcwOTU4OS01LjMwODA5NSAxLjcwOTU4OS01LjY5MDY2QzEuNzA5NTg5LTYuMDI1NDA1IDEuNDgyNDQxLTYuMjUyNTUzIDEuMTQ3Njk2LTYuMjUyNTUzQzEuMDQwMS02LjI1MjU1MyAxLjAxNjE4OS02LjI1MjU1MyAuOTgwMzI0LTYuMjQwNTk4QzEuMjA3NDcyLTcuMDUzNTQ5IDEuODUzMDUxLTcuNjAzNDg3IDIuNjMwMTM3LTcuNjAzNDg3QzMuNjQ2MzI2LTcuNjAzNDg3IDQuMjY3OTk1LTYuNzU0NjcgNC4yNjc5OTUtNS42NTQ3OTVDNC4yNjc5OTUtNC42Mzg2MDUgMy42ODIxOTItMy43NTM5MjMgMy4wMDA3NDctMi45ODg3OTJMLjU4NTgwMy0uMjg2OTI0VjBINC45NDk0NEw1LjI2MDI3NC0yLjAwODQ2OFoiIGlkPSJnMi01MCIvPiYjeGE7PHBhdGggZD0iTTIuMTk5NzUxLTQuMjkxOTA1QzEuOTk2NTEzLTQuMjc5OTUgMS45NDg2OTItNC4yNjc5OTUgMS45NDg2OTItNC4xNjAzOTlDMS45NDg2OTItNC4wNDA4NDcgMi4wMDg0NjgtNC4wNDA4NDcgMi4yMjM2NjEtNC4wNDA4NDdIMi43NzM1OTlDMy43ODk3ODgtNC4wNDA4NDcgNC4yNDQwODUtMy4yMDM5ODUgNC4yNDQwODUtMi4wNTYyODlDNC4yNDQwODUtLjQ5MDE2MiAzLjQzMTEzMy0uMDcxNzMxIDIuODQ1MzMtLjA3MTczMUMyLjI3MTQ4Mi0uMDcxNzMxIDEuMjkxMTU4LS4zNDY3IC45NDQ0NTgtMS4xMzU3NDFDMS4zMjcwMjQtMS4wNzU5NjUgMS42NzM3MjQtMS4yOTExNTggMS42NzM3MjQtMS43MjE1NDRDMS42NzM3MjQtMi4wNjgyNDQgMS40MjI2NjUtMi4zMDczNDcgMS4wODc5Mi0yLjMwNzM0N0MuODAwOTk2LTIuMzA3MzQ3IC40OTAxNjItMi4xMzk5NzUgLjQ5MDE2Mi0xLjY4NTY3OUMuNDkwMTYyLS42MjE2NjkgMS41NTQxNzIgLjI1MTA1OSAyLjg4MTE5NiAuMjUxMDU5QzQuMzAzODYxIC4yNTEwNTkgNS4zNTU5MTUtLjgzNjg2MiA1LjM1NTkxNS0yLjA0NDMzNEM1LjM1NTkxNS0zLjE0NDIwOSA0LjQ3MTIzMy00LjAwNDk4MSAzLjMyMzUzNy00LjIwODIxOUM0LjM2MzYzNi00LjUwNzA5OCA1LjAzMzEyNi01LjM3OTgyNiA1LjAzMzEyNi02LjMxMjMyOUM1LjAzMzEyNi03LjI1Njc4NyA0LjA1MjgwMi03Ljk1MDE4NyAyLjg5MzE1MS03Ljk1MDE4N0MxLjY5NzYzNC03Ljk1MDE4NyAuODEyOTUxLTcuMjIwOTIyIC44MTI5NTEtNi4zNDgxOTRDLjgxMjk1MS01Ljg2OTk4OCAxLjE4MzU2Mi01Ljc3NDM0NiAxLjM2Mjg4OS01Ljc3NDM0NkMxLjYxMzk0OC01Ljc3NDM0NiAxLjkwMDg3Mi01Ljk1MzY3NCAxLjkwMDg3Mi02LjMxMjMyOUMxLjkwMDg3Mi02LjY5NDg5NCAxLjYxMzk0OC02Ljg2MjI2NyAxLjM1MDkzNC02Ljg2MjI2N0MxLjI3OTIwMy02Ljg2MjI2NyAxLjI1NTI5My02Ljg2MjI2NyAxLjIxOTQyNy02Ljg1MDMxMUMxLjY3MzcyNC03LjY2MzI2MyAyLjc5NzUwOS03LjY2MzI2MyAyLjg1NzI4NS03LjY2MzI2M0MzLjI1MTgwNi03LjY2MzI2MyA0LjAyODg5Mi03LjQ4MzkzNSA0LjAyODg5Mi02LjMxMjMyOUM0LjAyODg5Mi02LjA4NTE4MSAzLjk5MzAyNi01LjQxNTY5MSAzLjY0NjMyNi00LjkwMTYxOUMzLjI4NzY3MS00LjM3NTU5MiAyLjg4MTE5Ni00LjMzOTcyNiAyLjU1ODQwNi00LjMyNzc3MUwyLjE5OTc1MS00LjI5MTkwNVoiIGlkPSJnMi01MSIvPiYjeGE7PHBhdGggZD0iTTEuNTMwMjYyLTYuODUwMzExQzIuMDQ0MzM0LTYuNjgyOTM5IDIuNDYyNzY1LTYuNjcwOTg0IDIuNTk0MjcxLTYuNjcwOTg0QzMuOTQ1MjA1LTYuNjcwOTg0IDQuODA1OTc4LTcuNjYzMjYzIDQuODA1OTc4LTcuODMwNjM1QzQuODA1OTc4LTcuODc4NDU2IDQuNzgyMDY3LTcuOTM4MjMyIDQuNzEwMzM2LTcuOTM4MjMyQzQuNjg2NDI2LTcuOTM4MjMyIDQuNjYyNTE2LTcuOTM4MjMyIDQuNTU0OTE5LTcuODkwNDExQzMuODg1NDMtNy42MDM0ODcgMy4zMTE1ODItNy41Njc2MjEgMy4wMDA3NDctNy41Njc2MjFDMi4yMTE3MDYtNy41Njc2MjEgMS42NDk4MTMtNy44MDY3MjUgMS40MjI2NjUtNy45MDIzNjZDMS4zMzg5NzktNy45MzgyMzIgMS4zMTUwNjgtNy45MzgyMzIgMS4zMDMxMTMtNy45MzgyMzJDMS4yMDc0NzItNy45MzgyMzIgMS4yMDc0NzItNy44NjY1MDEgMS4yMDc0NzItNy42NzUyMThWLTQuMTI0NTMzQzEuMjA3NDcyLTMuOTA5MzQgMS4yMDc0NzItMy44Mzc2MDkgMS4zNTA5MzQtMy44Mzc2MDlDMS40MTA3MS0zLjgzNzYwOSAxLjQyMjY2NS0zLjg0OTU2NCAxLjU0MjIxNy0zLjk5MzAyNkMxLjg3Njk2MS00LjQ4MzE4OCAyLjQzODg1NC00Ljc3MDExMiAzLjAzNjYxMy00Ljc3MDExMkMzLjY3MDIzNy00Ljc3MDExMiAzLjk4MTA3MS00LjE4NDMwOSA0LjA3NjcxMi0zLjk4MTA3MUM0LjI3OTk1LTMuNTE0ODE5IDQuMjkxOTA1LTIuOTI5MDE2IDQuMjkxOTA1LTIuNDc0NzJTNC4yOTE5MDUtMS4zMzg5NzkgMy45NTcxNjEtLjgwMDk5NkMzLjY5NDE0Ny0uMzcwNjEgMy4yMjc4OTUtLjA3MTczMSAyLjcwMTg2OC0uMDcxNzMxQzEuOTEyODI3LS4wNzE3MzEgMS4xMzU3NDEtLjYwOTcxNCAuOTIwNTQ4LTEuNDgyNDQxQy45ODAzMjQtMS40NTg1MzEgMS4wNTIwNTUtMS40NDY1NzUgMS4xMTE4MzEtMS40NDY1NzVDMS4zMTUwNjgtMS40NDY1NzUgMS42Mzc4NTgtMS41NjYxMjcgMS42Mzc4NTgtMS45NzI2MDNDMS42Mzc4NTgtMi4zMDczNDcgMS40MTA3MS0yLjQ5ODYzIDEuMTExODMxLTIuNDk4NjNDLjg5NjYzOC0yLjQ5ODYzIC41ODU4MDMtMi4zOTEwMzQgLjU4NTgwMy0xLjkyNDc4MkMuNTg1ODAzLS45MDg1OTMgMS4zOTg3NTUgLjI1MTA1OSAyLjcyNTc3OCAuMjUxMDU5QzQuMDc2NzEyIC4yNTEwNTkgNS4yNjAyNzQtLjg4NDY4MiA1LjI2MDI3NC0yLjQwMjk4OUM1LjI2MDI3NC0zLjgyNTY1NCA0LjMwMzg2MS01LjAwOTIxNSAzLjA0ODU2OC01LjAwOTIxNUMyLjM2NzEyMy01LjAwOTIxNSAxLjg0MTA5Ni00LjcxMDMzNiAxLjUzMDI2Mi00LjM3NTU5MlYtNi44NTAzMTFaIiBpZD0iZzItNTMiLz4mI3hhOzxwYXRoIGQ9Ik04LjA2OTczOC0zLjg3MzQ3NEM4LjIzNzExMS0zLjg3MzQ3NCA4LjQ1MjMwNC0zLjg3MzQ3NCA4LjQ1MjMwNC00LjA4ODY2N0M4LjQ1MjMwNC00LjMxNTgxNiA4LjI0OTA2Ni00LjMxNTgxNiA4LjA2OTczOC00LjMxNTgxNkgxLjAyODE0NEMuODYwNzcyLTQuMzE1ODE2IC42NDU1NzktNC4zMTU4MTYgLjY0NTU3OS00LjEwMDYyM0MuNjQ1NTc5LTMuODczNDc0IC44NDg4MTctMy44NzM0NzQgMS4wMjgxNDQtMy44NzM0NzRIOC4wNjk3MzhaTTguMDY5NzM4LTEuNjQ5ODEzQzguMjM3MTExLTEuNjQ5ODEzIDguNDUyMzA0LTEuNjQ5ODEzIDguNDUyMzA0LTEuODY1MDA2QzguNDUyMzA0LTIuMDkyMTU0IDguMjQ5MDY2LTIuMDkyMTU0IDguMDY5NzM4LTIuMDkyMTU0SDEuMDI4MTQ0Qy44NjA3NzItMi4wOTIxNTQgLjY0NTU3OS0yLjA5MjE1NCAuNjQ1NTc5LTEuODc2OTYxQy42NDU1NzktMS42NDk4MTMgLjg0ODgxNy0xLjY0OTgxMyAxLjAyODE0NC0xLjY0OTgxM0g4LjA2OTczOFoiIGlkPSJnMi02MSIvPiYjeGE7PC9kZWZzPiYjeGE7PGcgdHJhbnNmb3JtPSJtYXRyaXgoMS4xMyAwIDAgMS4xMyAtNjMuOTg2MDQzIC02Mi45Njk1OTMpIiBpZD0icGFnZTEiPiYjeGE7PHVzZSB4bGluazpocmVmPSIjZzItNTAiIHk9IjY1Ljc1MzQyNSIgeD0iNTYuNDEzMjY3Ii8+JiN4YTs8dXNlIHhsaW5rOmhyZWY9IiNnMS01MyIgeT0iNjAuODE3MjM5IiB4PSI2Mi4yNjYyNTciLz4mI3hhOzx1c2UgeGxpbms6aHJlZj0iI2cyLTYxIiB5PSI2NS43NTM0MjUiIHg9IjcwLjMxOTQwMiIvPiYjeGE7PHVzZSB4bGluazpocmVmPSIjZzItNTEiIHk9IjY1Ljc1MzQyNSIgeD0iODIuNzQ0ODgyIi8+JiN4YTs8dXNlIHhsaW5rOmhyZWY9IiNnMi01MCIgeT0iNjUuNzUzNDI1IiB4PSI4OC41OTc4NzMiLz4mI3hhOzx1c2UgeGxpbms6aHJlZj0iI2cyLTYxIiB5PSI2NS43NTM0MjUiIHg9Ijk3Ljc3MTY5MiIvPiYjeGE7PHVzZSB4bGluazpocmVmPSIjZzItNDkiIHk9IjY1Ljc1MzQyNSIgeD0iMTEwLjE5NzE3MyIvPiYjeGE7PHVzZSB4bGluazpocmVmPSIjZzAtNjAiIHk9IjY1Ljc1MzQyNSIgeD0iMTE5LjM3MDk5MyIvPiYjeGE7PHVzZSB4bGluazpocmVmPSIjZzAtNjAiIHk9IjY1Ljc1MzQyNSIgeD0iMTI4LjQ3NTY0NCIvPiYjeGE7PHVzZSB4bGluazpocmVmPSIjZzItNTMiIHk9IjY1Ljc1MzQyNSIgeD0iMTQwLjkwMTEyNSIvPiYjeGE7PC9nPiYjeGE7PC9zdmc+;" parent="UkTJap6GeNjWdgkHiNkX-35" vertex="1">
          <mxGeometry x="80.94999999999953" y="40.48000000000002" width="219.11" height="26.04" as="geometry" />
        </mxCell>
        <mxCell id="UkTJap6GeNjWdgkHiNkX-37" style="edgeStyle=orthogonalEdgeStyle;rounded=0;orthogonalLoop=1;jettySize=auto;html=1;" parent="1" source="UkTJap6GeNjWdgkHiNkX-42" target="UkTJap6GeNjWdgkHiNkX-35" edge="1">
          <mxGeometry relative="1" as="geometry" />
        </mxCell>
        <mxCell id="UkTJap6GeNjWdgkHiNkX-38" value="Flip the ith bit" style="swimlane;whiteSpace=wrap;html=1;fillColor=#fff2cc;strokeColor=#d6b656;swimlaneFillColor=#ffffff;" parent="1" vertex="1">
          <mxGeometry x="327.00000000000045" y="752" width="381" height="99" as="geometry" />
        </mxCell>
        <mxCell id="UkTJap6GeNjWdgkHiNkX-39" value="Given a number N, flip its ith bit:&lt;br&gt;&lt;br&gt;&lt;b&gt;N = N ^ ( 1 &amp;lt;&amp;lt; i )&lt;/b&gt;" style="text;html=1;align=center;verticalAlign=middle;resizable=0;points=[];autosize=1;strokeColor=none;fillColor=none;" parent="UkTJap6GeNjWdgkHiNkX-38" vertex="1">
          <mxGeometry x="93.99999999999955" y="32" width="188" height="55" as="geometry" />
        </mxCell>
        <mxCell id="UkTJap6GeNjWdgkHiNkX-40" style="edgeStyle=orthogonalEdgeStyle;rounded=0;orthogonalLoop=1;jettySize=auto;html=1;" parent="1" source="UkTJap6GeNjWdgkHiNkX-42" target="UkTJap6GeNjWdgkHiNkX-38" edge="1">
          <mxGeometry relative="1" as="geometry" />
        </mxCell>
        <mxCell id="UkTJap6GeNjWdgkHiNkX-41" style="edgeStyle=orthogonalEdgeStyle;rounded=0;orthogonalLoop=1;jettySize=auto;html=1;" parent="1" source="UkTJap6GeNjWdgkHiNkX-42" target="UkTJap6GeNjWdgkHiNkX-52" edge="1">
          <mxGeometry relative="1" as="geometry">
            <Array as="points">
              <mxPoint x="755" y="783" />
              <mxPoint x="755" y="937" />
            </Array>
          </mxGeometry>
        </mxCell>
        <mxCell id="UkTJap6GeNjWdgkHiNkX-42" value="Left Shift &amp;lt;&amp;lt;" style="swimlane;whiteSpace=wrap;html=1;fillColor=#fad9d5;strokeColor=#ae4132;swimlaneFillColor=#ffffff;" parent="1" vertex="1">
          <mxGeometry x="802" y="654" width="462" height="257" as="geometry" />
        </mxCell>
        <mxCell id="UkTJap6GeNjWdgkHiNkX-43" value="" style="shape=image;verticalLabelPosition=bottom;labelBackgroundColor=default;verticalAlign=top;aspect=fixed;imageAspect=0;image=data:image/png,iVBORw0KGgoAAAANSUhEUgAAAp0AAADbCAYAAAAvSypmAAAAAXNSR0IArs4c6QAAAARnQU1BAACxjwv8YQUAAAAJcEhZcwAADsMAAA7DAcdvqGQAAEJfSURBVHhe7Z0LnB1Vle5X5/3oTsgTQgSSkAYNSQYDeRAcdBTwBryKqFyZGSfggxgQgjAOIzJXvPJUBgnDw0QQuajjz4vBQSES8HFDHpAQIIgYTCeRJORCCI+QzvvRd3/7nOquc3p1d9XpU6dWnf7+v9+XnFpVp3rV3mfX/mrvqnNqmhxCCCGEEEJIgnTL/08IIYQQQkhixB7pDDYv/j/L1NTUqP9nlXDdVEP9EEK6LuHzctbPzYR0dSKbTmx26NAhWfTXrbLmzUZZ/+5u+cvbjfm12WfUwH4yZkBfee/gWvnYsUdIt27dMnmCQz0dPHhQLv39n2T9OzvzUVt0e3WfHBrZK79kB+YVH+YWH5ZZfEa78/MdHx4v3bt3p/EkJMNEMp0wm9t27pZbntkgA/r1kWMOq5WjBvaXYwfX5bfIPhu375RNTq+80yib3t4hV5w0Wka544T5zBIwnLt375ZPLXxB7vnE9HzUFl++/gn5/jdOzy/ZgXnFh7nFh2UWny/+1zL5xYyJ0rdvX288CSHZpENHBcO52Rmxq5b8RT40dqT804lj5YOjjpAxg+oEdrVadNSA/jL9qOFy/oQx8mmnm53BXrVlmzdxWSEY5dy1a1d+2aas5sa84ou5xZfVvCCruQGc13B+izBOQggxSrumE4Zz//79cutzG+T8vxkj44YPkkOIV7lGOUN90eT3yh2rN0rj7j2+HLICTsh79+71r4uPy4qAFk9bQIunLaDFLQhocQsCWjxtAS1uQUCLpy2A8xoNJyHZpk3TGYyaPdqwRQb37y9jBw+UQ669dxUN6ttbph1zhDzwp81y4MCBzJzskGdgkrXjsiCruTGv+GJu8WU1L8hqbj4vd16j6SQk27RrOvft2yertr4rxw87TNDUu5pGD6qTl7fv9FfYWRrtDNCOyYKAFk9bQIunLaDFLQhocQsCWjxtAS1uQUCLpy1CSHWgms5gtAxma2PjPhk5oL969VntGuGOe5M7/j17clPsWbvK1o7Jgqzmxrzii7nFl9W8IKu5EUKqgzZHOmGyMNL5+p79Mqy2r3qfTbWrT48esvtgrhyyONJZfDxWBLR42gJaPG0BLW5BQItbENDiaQtocQsCWjxtEUKqg3an13Evo3/dhQWy+sRk8bFYEdDiaQto8bQFtLgFAS1uQUCLpy2gxS0IaPG0RQipDto1ncHonjbd0VUEsmg4gXY8FmQ1N+YVX8wtvqzmBVnNjRBSHbRpOkFgtoqnOrqSsox2PBYEtHjaAlo8bQEtbkFAi1sQ0OJpC2hxCwJaPG0RQqqDdk1ngHbl2VWUZbTjsSCruTGv+GJu8WU1L8hqboSQ6iCS6USb76rKMtrxWBDQ4mkLaPG0BbS4BQEtbkFAi6ctoMUtCGjxtEUIqQ6ijXRWRA3y4w/XyIm1TpctVNYvlG9jXUjfXlS8TfmVZbTjia/ylzvQ4vFkNa/yC2jxeEqm/QAtbkFAi6ctoMUtCGjxtEUIqQ7MTK+/cudMuWXFdJk4xf3B4vXr5soFtWfJ2pvXyjM7mrweunm6/OLcGrkOHWfx9mVUltGOJ5YSKvdO52Y1r2Y1yE/cBdQkZ+zK8fnsdF4Jtp9O55agOp/bQrnO1SHqMZCJ+kwoL8hqboSQ6sDI9PpCeeCqZXLugvvldLcMwuuX3na5vDDlNvnWxWObY++5+H65whnUBTfNlU2hbcutLKMdTxwlVe5Ai0eV1by8Hp8lJ9fVy7+vcAt51O1iCGjxqEqy/QAtHk8N8tOP1Lhyq5EbHtfWlyagxSNp/Vy5sC5n1Fc6kw7BqC9wRr2zOQItHkkJ5gUBLR5JCZcZIST7mBjpXHrZWbLAdYr/4BynWyz6mwvlD/eJTDj3bDmyOQaNlVPPnS6y4ueyuCEcL6+yjHY80ZVcuXcuN6t5OTXMlc+fO18m3LRWnn7wIr+/pkPKdjEFtHg0Jdt+Opeb02OzZLIz6bfmTXo5yisQ0OJRBKP+R3dOunb22ObYkbPvl6/mjfrG0LZxZTUvyGpuhJDqIP17OtfNlXvvmy6Xz5sjR7rl4PzSsv4v4vpEOXasO5GF405Hjh3v/l0mG9YVxsupLKMdT2QlWO5Ai0eS1bygY+fI/HebZP7FudwAPs+ttospoMUjKeH2A7R4JLm2/8VP50z68sCkB+vKIKDFO1bIqBfEx8opeaP+ZCpllmxeENDiHSv5MiOEZJ9o0+uuJ0hGDfKzWe7q+IJr5Lwx+Zj/g8F6p3UvyR99FqFYoHwctFpXJmUZ7XgiK8FyL/V9XlbzKlZudx51fQx1ah8Jt5/OvLdpzByZt71J5s3OTfsHqNuWoJL3FTLqxevekzfqf3UGqnhdVAEt3qESzgsCWrxDVaDMCCHZJ92Rzse/K3NXXCS3zJ3RHAvOL+HtQHg5LKDFy6Usox1PHAEtDgEtHkVAi0cV0OIQ0OJRBLR4qQJaPK6AFo8qoMUhoMWjCmjxUgS0eKkCWrxDOaP+ohbPC2jxqAJavEMlnBcEtHiHqkCZEUKyT4oPEi2U73x6voy/8WsyNRQPaN7u2HGC62TQHAspQFtXDmUZ7XgiK8FyB1o8kqzmpShAWxdHQItHUsLtB2jxUhSgrStFQItHUUDcdVEEtHgUBcRdF1VAi0dRQNx1UUQIqQ7Se5Bo0S/lYbfvF79eL387sCaverkdDxT86Cy//J38V22A9WsbWu1j01pcW0+XY8YUxsupLKMdTxyBJModaPGoAhbzKhbA1KC2Lo6AFo8qkFT7AVq8FIFylFcgoMU71JicUW8rF9CZPIEW71AJ5wUBLd6hKlBmhJDsk95I5xnz5A/vNBVprXxlilt5waN++coz3HZjzpYPudiLDz0imwv20SDLHlomMuU8mYb7QQvWlU9ZRjueyEqw3IEWjySreSkCWjyugBaPpITbD9DipQho8VIFtHhUrW9oaBXb3JA36scWxuMIaPGoSiovCGjxqEqyzAgh2Se9kc42hKvhwr85Vs7954tEVlwuN9zVMlqz6a6ZcseK6XLJ9+fIiOZty68sox1PdCVX7p3LzWpereVR4nEFtHg0Jdt+OpdboTxKvFQBLd6hRjujPlnkTwsekU0F65xRX+CM+uTzZOrocDyerOYFWc2NEFIdpPsgkaLg/FIQP2OePPHzi+RPV9fLhwfVeH3uapGLn10qn8SJrHj7MirLaMcTSwmVO9DikWU1ryIBfJ61dXEEtHhkJdh+gBYvRaAc5RUIaPGONVY++TVn1FdeLjfd7Yx6Pr7p7ply58rpcvE8Z9QLto8noMU7VrJ5QUCLd6zky4wQkn2MjXSOlXMea5JFt85ove70ebLoLbeuWUvlnFFF2ySgLKMdT2wlUO5lyc1iXuvnymXO0J0OnTff7++R8/LLZ86Vzdp7Igho8VhKqP2UJTcot6uc6SxeV6KAFo8klFfeqPv6c5rpjPrsVSl/zhLMC7KaGyGkOjA30mlNWUY7HgsCWjxtAS0eWaPnyK3O0P1G02Nz5AjtPREEtLgFAS0eSRvmyuWDa+RMKG/SH3Um3S9/NPfznOr7Igpo8chyJqqwHpfKJ8owswK0eGQllBcEtHhkJVhmhJDsQ9PZgbKMdjwWBLR42gJaPG0BLW5BQItHkjPptzhj8qgmZ9LTmypOVkCLWxDQ4mmLEFId0HR2oCyjHY8FAS2etoAWT1tAi1sQ0OIWBLR42gJa3IKAFk9bhJDqgKazA2UZ7XgsCGjxtAW0eNoCWtyCgBa3IKDF0xbQ4hYEtHjaIoRUB8YeJLKnLKMdjwVZzY15xRdziy+reUFWcyOEVAcc6exAWUY7HgsCWjxtAS2etoAWtyCgxS0IaPG0BbS4BQEtnrYIIdVBh6azX4/u0rhvnxx0r7uisox2PBYEtHjaAlo8bQEtbkFAi1sQ0OJpC2hxCwJaPG0RQqqDdk1nTU2NjOzVJK+906hOeVS73tixU4b16ubLIYtox2RBVnNjXvHF3OLLal6Q1dwIIdVBm6YTRqt79+4yonuTvNm4U736rHZtc6ZzRM9cWWTReGrHZEFAi6ctoMXTFtDiFgS0uAUBLZ62gBa3IKDF0xYhpDpo13T27NlTThvcQzZs3iK79u5Tr0CrVfsPHpI/rvurnD6wRnr06JFJ06kdlwVZzY15xRdziy+reUFWcyOEVAeq6YTB6tatm/Tq1UuG1tXKR3o1yvI/r5U9Bw6oN3lXm/YfOiRPv9wgJ3XbKSMH9pfevXv78sga2rFZENDiaQto8bQFtLgFAS1uQUCLd1YHm5qapa3vSECLWxDQ4mmLEFIdtOmkYLJgtgYMGCAnDq2T9zVukd8sf0Y2vLZN3tm5W70azbp27N7rj++xp1bJEW9uktOG9vHHH5jOrI12asdoQeXK7aD7J1AQ64zKlVegcuVX7rzC6myOSeYGdSa/JHI7ePCQvP7X9fLFo/rJnV/6rBw4cDB2bknkBXWmrAIlkVu58iKEZJ+aJkf+dQEIHzx4UHbt2iXbtm2T1157TTZte0v+cLBOtjX1lHer8Eab/t1FDq/ZL9O6NcqYwQPkiCOOkGHDhkn//v0zMcWOOtu7d69s3bpVLl35quwxerbu8eIuOTC+X36pNJqaDsnurf9Pll3xjzL85A/IhDnfytVPJ+qoHHkFlDO/cuYVphw5JpUb6Gx+Zc/Nta+mQwdl829/JX++5xYZ+v5T5MQrr5eanj1dStFnQpIos3J93sqdW7ny6tOtRv5j8kgZPny4HwTw+yCEZI42TSfAqgMHDsjOnTvlrbfe8tq+fbvs3r1b9u/f701ptYCRTNzD2rdvXz+6OXjwYK/a2lpvOLMwvY762rdvn7z55puyceNGeeONN/xyO1WcCg1v95Kxg/bll+KD4zl06JD89re/lR/84AcyadIkufLKK339daYz6mxeAeXOr1x5hSlXjknkBsqRX7lzQ05oT3feeacsX75czj33XPn4xz8uffr0iTUTkkRe5fq8lTO3cuUFkzl06FA5+uij/f+47SvucRFCbNCu6QRYDeO5Z88eaWxslB07dvjRT5x8Ee/g7ZkAJzA8qY+TWb9+/bzRhGBAs2I4QVBXqCOMTuMCARcH1VBHYdCR4fN3/fXXy+9//3uZOXOmnH/++b6+LNwGYT0/wDKMTzDz84UvfEG2bNniczvxxBP9TAjOH2mVmdW6LEde2Abn4IEDB/pZp7q6usw+2EkIiWA6ATbBCQQGBicR/A8hVg2GBicwnARxMoPxhPA6zY6kVIITPUajMdVeLXUUJhh9nzFjhh/RxSjKtGnTfIdkoc6s5wdYhvFAG0JOmzZtktNOO80bzUceecRP9+JCFeeLtLBal+XIC9vg3IzRTphVnJuxTAjJJpFMZwA2DUwM/g9i1QBObsEJLjippXWy7gyoj6B+qq2OAI4FFzyvvPKKTJgwwY9IL126VA4//PDmWyHSxHp+gGUYH+SE2Z6f/exnMnv2bJkyZYrcf//9fvQNpjMtI2S1LsuZV/i8HJynCSEZxZ0cSsIZmqpUNaEdX9Z18ODBpp07dzbNnz8fTrpp2rRpTQ0NDU3vvvtu04EDB9T3VFLW84NYhvGFv4u/f+GFF/qcvvSlLzVt3LixadeuXT5f7T2VkNW6TCIvQkj2KfnyPLjirDZVE9rxZV3AdUD+QQ6AURRMveHhhPBISFoClvODAMswnty50k8XBzlhpBM5BdPEaQlYrEtQ7rwIIdmHN8eQTIGODNN24c7f0n1e1vMDLMN4wHAiJzyct2bNGp/LSSedVGCg0sJqXWahHRBCKg/PACQzWO78gfX8AMuwNJDT888/71+PHz/ePwyD+xLTNFFWyyoL7YAQkg40nSRTWOz8w1jPD7AM4wEThan1JUuW+OXjjjvOTxUjp7QNlNW6zEI7IIRUHp4BSGaw3PkD6/kBlmF8gpyeeuopvzx58mQ/aof7OdPEal1moR0QQtKBppNkBqudf4D1/ADLMB7IB6N2+GGM1atX+9ipp57qp4wxamfB3Fk1w5bbASEkHWg6SSaw3PkD6/kBlmFpICdMFePHFurr62XIkCHeRKVtOC2WVRbaASEkPWg6SWaw2PmHsZ4fYBnGAyYKo3YrVqzwy3ggBgbKwlSx1brMQjsghKQDTSfJBJY7f2A9P8AyjE+QU/DVPxMnTvQGClPFaZaZ1brMQjsghKQHTSfJBFY7/wDr+QGWYTyQD0bt8H2TTz/9tI8FJirtqWKrdZmFdkAISQ+aTmIey50/sJ4fYBmWBnLCVPGOHTtkxIgRMmrUKG+i0iwvq2WVhXZACEkXmk6SCSx2/mGs5wdYhvGAiTp48GDzVPGkSZO8gbIwVWy1LrPQDggh6UHTScxjufMH1vMDLMP4ICdMFa9atcovn3zyyT4nC1PYFusyC+2AEJIuNJ3EPFY7/wDr+QGWYXyQE6aKg++bPOGEE3xOmCpOE6t1mYV2QAhJF5pOYh6rnX+A9fwAyzAeyAdTxevXr5ctW7ZIbW1t80MxyCltc2fVDFtvB4SQdOHZgJjGcucPrOcHWIalganixYsX+9eWprAtllUW2gEhJH1oOol5LHb+YaznB1iG8YCJ0qaKLZSZ1brMQjsghKQLTScxjeXOH1jPD7AM44NRO0wVP/fcc3556tSpzaN2aWK1LrPQDggh6UPTSUxjtfMPsJ4fYBnGAwYKOW3btk3WrFnjzdNxxx3n/4eBStNEWa3LLLQDQkj68IxAzGK58wfW8wMsw9JATk8++aR/PX78eBkwYIAftUvTRFktqyy0A0KIDWg6iWksdv5hrOcHWIbxgInCVPHSpUv9cvCrOsgpbQNltS6z0A4IIenDMwIxi+XOH1jPD7AM4wMDhZyeffZZvzxlyhQTU8VW6zIL7YAQYgOaTmIWq51/gPX8AMswHjBQEH7GMZgqhokKckrTRFmtyyy0A0KIDXhWICax3PkD6/kBlmFp4Kt/nn76adm7d68cc8wxUldXl7qJslpWVvMihNiEppOYxWLnH8Z6foBlGA8YKOS0ZMkSvwwDBSNlYarYal1moR0QQmzAswIxieXOH1jPD7AM44OcMFW8fPlyvzx58mSfE34/PE2s1mUW2gEhxA40ncQkVjv/AOv5AZZhPJAP7k/E902uXr3ax6ZPn948ape2ubNqhq23A0KIHWg6iTksd/7Aen6AZVgayAlfcI6p4vr6ehkyZIjPKW3DabGsstAOCCG2oOkkJrHY+Yexnh9gGcYDJgpTxcH3TQZfcG5hqthqXWahHRBC7EDTScxhufMH1vMDLMP4IKfwVHHw++GYKk6zzKzWZRbaASHEFjSdxBxWO/8A6/kBlmF8kBOmivEkNjjllFP8qB2mitPEal1moR0QQmxB00nMYbXzD7CeH2AZxgP5YKr4pZde8t85OWLECBk1alRzTmmbO6tm2Ho7IITYgmcHYgrLnT+wnh9gGcYHOWGqeMWKFX4Zvx/eu3dvE1PYFusyC+2AEGIPmk5iCqudf4D1/ADLMD7ICaN2y5Yt88sTJkzwU8UWTKdVM2y9HRBC7EHTSUxhtfMPsJ4fYBnGBznh/sRgqnjatGnNo3ZpYrUus9AOCCH2oOkkprDa+QdYzw+wDOOBfDBVvG7dOnn11VeltrbWm6ggp7TNnVUzbL0dEELswTMEMYPlzh9Yzw+wDEsjPFU8adIkP2qHnNI2nBbLKgvtgBBiE5pOYgqLnX8Y6/kBlmE8YKIwavfMM8/45eD3wy189Y/VusxCOyCE2IOmk5jBcucPrOcHWIbxwagdcnrqqaf88rhx43xOGLVLE6t1mYV2QAixCU0nMYPVzj/Aen6AZRgPGCjktG3bNlmzZo3PBV9yjlE75JSmibJal1loB4QQm/AsQUxgufMH1vMDLMPSQE6LFy/2r/HVP3V1dc05pYXVsspCOyCE2IWmk5jBYucfxnp+gGUYD5gojNoFU8XB/YkWpoqt1mUW2gEhxCY8SxATWO78gfX8AMswPjBQyOnZZ5/1yyeeeGJzTmlitS6z0A4IIXah6SQmsNr5B1jPD7AM4wEDBeFnHFevXu1jeCgmGLVL00RZrcsstANCiF1oOknqWO78gfX8AMuwNGCi8AXne/fulfr6ehk6dGhzTmlhtays5kUIyQ40ncQEFjv/MNbzAyzDeMBAYdRuyZIlfhkGCqN2Fn7K0WpdZqEdEELswjMFSR3LnT+wnh9gGcYnyCmYKp48ebI3UGlPFVutyyy0A0KIbWg6SepY7fwDrOcHWIbxQD4Ytdu/f788//zzPhY8FINROwvmzqoZttwOCCG2oekkqWK58wfW8wMsw9JATs8995y/R3HEiBEycuRIb6LSNpwWyyoL7YAQYh+aTpI6Fjv/MNbzAyzDeMBE4ffDg6niwEBZmCq2WpdZaAeEENvQdJJUsdz5A+v5AZZhfJATpoqXLVvml/GrOsgJU8VplpnVusxCOyCE2Iemk6SK1c4/wHp+gGUYH+QUnio+5ZRT/KgdporTxGpdZqEdEELsQ9NJUsVq5x9gPT/AMowH8sFU8bp16/xviA8ZMkRGjRrVnFPa5s6qGbbeDggh9uEZg6SG5c4fWM8PsAzjg5wwVfzkk0/65RNOOEF69+5tYgrbYl1moR0QQrIBTSdJDaudf4D1/ADLMD7IqXiqGAbKgum0aoattwNCSDag6SSpYbXzD7CeH2AZxgc5YaoYv6wDpk6d6u9PxKhdmlityyy0A0JINqDpJKlhtfMPsJ4fYBnGA/lgqvjVV1/1qq2tlQkTJngTBQOVtrmzaoattwNCSDbgWYOkguXOH1jPD7AMSwNTxYGBGj9+fPNUcZomympZZaEdEEKyA00nSQ2LnX8Y6/kBlmE8YKLCU8UwUBi1Q05pGyirdZmFdkAIyQY8a5BUsNz5A+v5AZZhfDBqh5yWL1/ul6dMmeJzSttAWa3LLLQDQkh2oOkkqWC18w+wnh9gGcYDBgo54Wt/1qxZ43M56aST/FQxckrTRFmtyyy0A0JIduCZg1Qcy50/sJ4fYBmWBnIKTxXX1dX5Ubs0TZTVsspCOyCEZAuaTpIKFjv/MNbzAyzDeMBEYdRu5cqVfvm4445rvj8xbQNltS6z0A4IIdmBZw5ScSx3/sB6foBlGB8YKOT01FNP+eXJkyf7UTv8fniaWK3LLLQDQki2oOkkFcdq5x9gPT/AMowHDBTU2Ngoq1ev9rFTTz3VTxlj1C5NE2W1LrPQDggh2YKmk1QUy50/sJ4fYBmWBkwUDNTevXulvr7e/4Y4TFSa5WW1rKzmRQjJNjSdpOJY7PzDWM8PsAzjAQOFUbtgqhgPxMBAWZgqtlqXWWgHhJBsQdNJKorlzh9Yzw+wDOMT5PTss8/65YkTJ3oDhaniNMvMal1moR0QQrIHTSepKFY7/wDr+QGWYTyQD0btwr8fHpiotKeKrdZlFtoBISR70HSSimG58wfW8wMsw9JATs8//7zs2LFDRowYIaNGjfImKs3yslpWWWgHhJBsQtNJKorFzj+M9fwAyzAeMFH4/fAnn3zSL0+aNMkbKAtTxVbrMgvtgBCSPWg6ScWw3PkD6/kBlmF8kBOmiletWuWXTz75ZJ+ThSlsi3WZhXZACMkmNJ2kYljt/AOs5wdYhvFBTpgqfu655/zyCSec4HPCVHGaWK3LLLQDQkg2oekkFcNq5x9gPT/AMowH8sFU8bp162TLli1SW1vb/FAMckrb3Fk1w9bbASEkm/AsQiqC5c4fWM8PsAxLw+oUtsWyykI7IIRkF5pOUjGs3yeWhfvYWIbxgInCVPGyZcv8cjBVbKHMrNZlFtoBISSb0HSSimC58wfW8wMsw/hg1C48VTx16tTmUbs0sVqXWWgHhJDsQtNJKoLVzj/Aen6AZRgPGCjktG3bNtmwYYM3TxMmTPD/w0ClaaKs1mUW2gEhJLvwTEISx3LnD6znB1iGpYGp4sWLF/vX48ePl969e/tRuzRNlNWyykI7IIRkG5pOUhEsdv5hrOcHWIbxgIlCTsFUcfCrOsgpbQNltS6z0A4IIdmFZxKSOJY7f2A9P8AyjA9G7TBVvHz5cr88ZcoUE1PFVusyC+2AEJJtaDpJ4ljt/AOs5wdYhvGAgUJOjY2NsmbNGm+e8CR2kFOaJspqXWahHRBCsg3PJiRRLHf+wHp+gGVYGsjpqaee8q+POeYYGTBgQOomympZZaEdEEKyD00nSRyLnX8Y6/kBlmE8YKIwVbxkyRK/bGmq2GpdZqEdEEKyDc8mJFEsd/7Aen6AZRgf5ISp4sBETZ482eeE3w9PE6t1mYV2QAjJPjSdJFGsdv4B1vMDLMN4IB+M2mGqePXq1T42ffr05lG7tM2dVTNsvR0QQrIPTSdJDMudP7CeH2AZlgZy+vOf/yx79+6V+vp6GTJkiM8pbcNpsayy0A4IIdUBTSdJFIudfxjr+QGWYTxgovBTjsHvhx933HF+1M7CVLHVusxCOyCEZB+aTpIYljt/YD0/wDKMT5BT8NU/wVRx2mVmtS6z0A4IIdUBTSdJDKudf4D1/ADLMB7IB6N2uD/x6aef9rFp06b5Ubu0p4qt1mUW2gEhpDqg6SSJYLnzB9bzAyzD0kBOzz//vOzYsUNGjBgho0eP9jmlWV5WyyoL7YAQUj3QdJLEsNj5h7GeH2AZRgcGCsJX/6xYscLH8AXnGLWzUGZW6zIL7YAQUh3QdJKyY73zt54fYBlGB3ng98JnzJgh69at86N2q1at8uuOP/54nxO++ietMrNal1bzIoRULzSdpGxkofO3nB9gGcYD+eB+xF//+tfy2GOPyV133SW7d+9u/r7JYKoY+WBbqFJYrUureRFCqh+aTlIWLHf+wHp+wHqOFvPD1PC+ffv8CB341a9+JS+//LJs2bJFamtr5YQTTpDf/e53Mnz4cPne977nt69EXhbLCljNixDSNaDpJGXBaucfYD0/wDIsDUwPjxs3Turq6vzI3U9/+lMff//73y+LFy+WmTNnyvbt272RguGqRE5Wy8pqXoSQrgFNJykbFjv/MNbzAyzDeODv4CnrPn36yNSpU30syAlfdD5nzhz//+zZs+Uzn/mMn0quVJlZrcsstAMSD9QRhIsE1C9FVVr47EW5SK1xG/CMQjoNPmy7du2SrVu3yqxZs+SJJ57wIyf4ab0pU6b4p2MxwoLO/+tf/7oMGjRI+vbt6+8dqwTW8wMsw/jg9AVTuW3bNpk3b55cd911+TUt4N5FxIcNGyaDBw/2OcGoJonVusxCOyDxQBtAp3/p7/8k69/ZmY8SUnlGD+wnd3x4vD9f4KJVg6aTlAWrnX+A9fwAyzA+yAmjce+8847/GccPfvCD+TU5zjjjDLn22mtl6NChXjBYwT2LSWK1LrPQDkg8YDhxX+6nFr4g935iej5KSOX5wn8tk1/MmOjPGW1dqPJMQsoGPmS9e/f2HX0xiF1zzTW+0+/fv39FOv5irOcHWIbxwP5hiPDENe5DnDhxYn6N+On2b3zjG360DurXr19Ff2XHal1moR2QaOAiAqYTo9d+maJSFMBnEZ9JfDY1aDpJWbDc+QPr+QGWYWngb8Ac4b5OPH0NcH/iN7/5TRkyZIgX7l9E3si/ElguK+vtgMQjGL3Ovaao9ATwWWzLcAKaTlI2LHb+YaznB1iG8UFOMEeY0vnoRz/qfzv8xhtvlPe85z1+Sj2t8rJal1loByQ66OBxr65/TVEpCuCz2J7p7H4tbniKQbAz/B982IPXXUlBGQTgRF4thI8vbv1iezwhjA5rw4YN/t6wI488srkjQ2eHstLeWwlZzw9iGcYXcsKUDqaFcV8ncsH9iAMGDEi1vKzWZRbaQbkUnMsAjqnawOd+586d8qtXd8jHjj8qHyWk8vz65U3y30cO8OfhtmZJIj9IhM1wolr0162y5s1GWf/ubvnL2435tV2TUQP7yZgBfeW9g2vlY8ce4UcFsn5SQz3jJFbqk5BN7r0H9+6WfTu2y/53t0v3vv2kZ63rxPrVSk0P15F1cuSk26v75NDIXvml+CSZX2dzCyh3juXKK6Cc+ZWtzJrcxdGBA3Jwz245dGC/dHN5dO/dp+Q6tVqXoBy5Wc0rKaI8VZtFcL7GdObrr78uF614Vb7/cT5IRNLjyw8vk/lTRsrhhx/u7xsv2XTCbG7buVtueWaDDOjXR445rFaOGthfjh1cl9+ia7Jx+07Z5PTKO42y6e0dcsVJo2WUK5ssT0nBcAZPQt5TwpOQfgRl3z7Z5a689+3bKz179pJ+eCChV+6n9TrLl69/Qr7/jdPzS/FJMr/O5hZQ7hzLlVdAOfMrV27BRfFBZzzxP9pgd3elXWqdWq1LUI7crOaVFF+M8FRtFik2nXf/d5pOkh6zf9Wx6ezQHeHktNmZqquW/EU+NHak/NOJY+WDo46QMYPq3AceH/quq6MG9JfpRw2X8yeMkU873exM+aot27xxyyI4gSH35ichlWPuSO46xnX2PV0HVisDBg6S/rV10sN1aN26dVe3jyugxaMqyfyAFo+rcucItHipKmd+QIvHFXKqqenm8+jZq3en6xRo8bhK4vMGtHgcWc0rKYGOnqqtBnBkFJWWotCu6fRXw/v3y63PbZDz/2aMjBs+SHC7MtVao5wJv2jye+WO1RulcfceX3ZZJLhyBsXHGEVNuLLBKFOvXtLDXeng/5ru3dVtSxHQ4lGVZH5Ai8dVuXMEWrxUlTM/oMVLEfIKcsP/2jZRBbR4XJW7LiGgxePIal5JCXT0VG01UGwCKKqSikKbpjMY9Xq0YYsM7t9fxg4eKIfcXqm2Nahvb5l2zBHywJ82Z/bn45BzYJi1Y4yiJnGdv5PUuM7f/a9tU6o6k1egpPIrR26BypljOfMKVK78ksitHCpnXuUqq0Dlys1qXknI5+bOazSdFJWcotCu6cTPoa3a+q4cP+ww9Q9QrTV6UJ28vH2nv6rO6mhngHZ8aQtocQsCWjxtAS1uQUCLpy2gxS0IaPG0BbS4BXUV4KkpKi1FQTWdwWgXjNPGxn0yckB/9eqRaq0Rrqw2uTLbsyc3xZ7lK+vw9JQVAS1uQUCLpy2gxS0IaPG0BbS4BQEtnraAFregrgJ6G4pKS1Foc6QThgkjna/v2S/DavuqDZlqrT49esjug7myy/xIp/sUWZPVvCCruVnNC7Kam9W8IKu5Wc0L6irgUCkqLUWh3el13JfoX1OxBKrhKcliQ21BQItbENDiaQtocQsCWjxtAS1uQUCLpy2gxS2oq1DcF1FUJRWFdk1nMFKnTSNTbQtk3XAC7djSltW8IKu5Wc0Lspqb1bwgq7lZzQvqKqDb6dpaKN/sVyN/f0eDsi6sqNtFUTn3VT69csepMq7fLFmsrEtKUWjTdILAOBVfNVLtq1pA7VsT0OIWBLR42gJa3IKAFk9bQItbENDiaQtocQvqKmjHrmrRLDmhf00bOlX+9zrlPRlRgLYurABtXVwFaOvSFNDiSSkK7ZrOAO3KkWpb1YJ2bGnLal6Q1dys5gVZzc1qXpDV3KzmBZEizpwnL+5sKtJauWoaVo6XUcf6rUi5cWZ/vDP1DzhTXzaS2GeCRDKdaLNUdFUL2ihu2gJa3IKAFk9bQItbENDiaQtocQsCWjxtAS1uQV0FrT+KrEXflZufEvnMQ/PkA9r6jChAWxdWgLYurgK0dcUK0NaVqgAtXhxLUlGINtJZNjXIjz9cIyfWOl22UFm/UL6NdSF9e1HxNuVWS07l+lvVgvahSltAi1sQ0OJpC2jx6GqQn4TaiL5NaQJaPG0BLW5BQIunLaDFLairUHyPXXQtlG99cr7IlNtk5hlF6x6bJRP617To0oUF63Hv4IT+s+TJdXPlc/ltPhe+vzEUD/Stx1re35aevLTwPQX7DFSQW260z4X9P53fzqnoWFtv086+CtQgD/yd2x5lLMvk5onK/mOXU8f79KBuQ/vsuBwL9xFHUajo9Pord86UW1ZMl4lT3E6L17sCv6D2LFl781p5ZkeT10M3T5dfnFsj18EMFm9fDi2aJZNq611OueN0IX27mKoWtGOLp9xFxPtD8sZe3TaaOp9X7iKjHLkUq/O5JaNO5eXayPtdG/lumdtIIKDFo6v8nzGo83klJ6u5Wc0L6irgUEvRk5edJQ/KdPmXe+bIUeF1rv1PPHe+fHpBk6xudHrhNjnxh2fJP93pjEtoO5H5cvHEn8uZL+S2u/+SsS3vn3i5iOvX/fuhBRfJg65f/1/tXMA+eVmNzD++8D3PX1Vf+J5WuZ0niybiOHJ0fjvlWKPuq5XGyj/8zm3vjkNQzvlyWn37jNz6ksqpg306+Xqp/aX8XX6fv3KequNy1Os4iqJQwen1hfLAVcvk3AX3y+luGYTXL73tcnnBXWV96+L8h9XpPRffL1c4g7rgprmyKbRtazXITz9SIxfe1V4hFW2zfq5c6Ap6gqvklb7ScrR+X3xVC9oobmS58r2gLncRsdJdQEC4iFjgGtH1jyvbRxTQ4pH0+Cw5qa5e/j1voIC6XYkCWjyaFsr1dTUuvxZ1ppzCAlq8Q6EOlTaibluigBaPpIQ+YxDQ4h0ruXoMBLR4dCWTI9Di0ZVsG8gK+NaYH/7wh/KTn/wk9g+MFPdFkeTa0bwfuhefv0b+fkx4nbtAv2m+iz8q15yZj42ZI9/2xuW78mR+u4CJN9/f5vt/FJhQ6Mx5csfnRR50/frG5m0LdertTUXvOUc+7f5/8NcL8zE9tx85wzTRvUadl2O7wmONuq/2BQpjpZdTIKDFYEa/9sI8OdW9QuyoS67x5fiXtYFXinLc0RWFio10LnVXUgucqfwH5zjdYtF+F8of7hOZcO7ZcmRzDBorp547XWTFz2VxQzgeKGckJzsjcSuMRKv17Wwzeo7c826T3DN7rGvYPh1pcv+3fn98VQvFQ+dxtMxdRPwRFxGufIPYyNmhi4jQtnFUcl4Nc+XzMFA3rZUVD+YMFOpb3bZE+X0q8Q6F3GCekJv7TEILbsqZpxsiTEN1pJLzcm3kXpfLvajDUBtRty1Rfp9KPIqS+oxBJeWVcD0GKim3QAnmaDUvKCvAZO7fv18uueQS+cd//EeZNm2aLFmyJPL3PmOLeGqQn3zxcnlBLpI7QiNkXusfkcdcn/mpjxXG31M/3v37oryyviUGc/PRGSHDBOXfP/H4+sK409HH5/v10D7aV72Mxgxp8/JaWa/te8xxbsscsbaLdKxR/2b7CmiOlaGcAlrHx8sxBRcCuXJ84eW1ueUYdRxFUajMPZ3r5sq9902Xy+fNkSPdcpBcy/q/uI++yLFjnQEMx52OHIuDXyYb1hXGl86pkakD6uV7rsDENZhb3Ulq/sWF74+yTSCAvLR1cVUtaMcWTaGLiIL4WJmev4h4sqg+owpo8Q517Bz5gav/H+TrP6DVdp0Q0OIdaentOfP0zdBn88iL75evupPDQ9/JXeWGt48roMXjKkBbV6qAFu9YyX3GIKDF21PS9RgIaPEoSjJHoMWjqBJtwDrBd2PjJ5TnzZsnI0eOlJUrV8ppp50mn/3sZ2Xz5s0djnwGJjuyFn3X3zrzqQXzZLqyHuAWt/DtK+93F++geTu/FFoOCdTXt1wUBsqZmsJYoXL3kbf83fwtPsF65xnW+j0E27coINZ2+eV2jzXGvtpUG9uB0srJyW/RdhwDYa3ioWXQYR1HVBSiTa8rO4+uBvnZLHdCueAaOQ+OGzG/02C907qX5I/+L4VigfJxgOVll9XIKQNq5ArX4cgFj8qy7U1O82Ra6D1RtimQ33sOdX1MVQvayTuS8o0zzkVEVAEtHlcAVaWtK1VAi7evhfJ/3ed0vGKeTimDeYKAFo8rYKPMnBL8jEFAi7et5OsxENDiHSvZHIEW71iVaQMBgbmDMIJoRUE+GOmcMmWK/Od//qd84QtfkN69e8uDDz7oTEm9/Nu//Zvs3LnTH4MGotG1UK6DuXBm/3N4eEjZBpy7oElW7SjWUjk/NIIGwu8Lx9c2T+W2aOPaF92/hbEWOcP5kXq5RW6TXzb/vbVypbsAAX6bMce5T0eO1u/P4V9H3S73sv1jjbGv9gS0WPxyahFoKw60ePh1lDqOoigkP9L5+Hdl7oqL5Ja5M5pjQXLh7UB4OSzgXz8+S678kcjHH2ySJc5ILgnts1lRtlEEtHgpqhbCRjqW3EUEmgrKotU6v+c21kUQ0OKxlNtNyTm0JaDF25UzTxjlH+PMU/G6kSHzVLwujoAWj6XcbmyUGZTgZwwCWrxNVaAeAwEt3qESzhFo8Q5VoTYAYNZg7Lp37+7Vo0cPU+rTp48MGzZM3ve+9/kRznvvvVf27t3rc8f/N9xwgxx77LHy4x//WB31xFJUbbzrOlkg0+XKH8yR9yjrA5PVoJihYgUUxMecLWc4o/jCmvxUbkivrFnmzO558gHN1Kx/RB5fITLxU2cX5BWQW85PExfve33uswRibRfpWKP+zfYV0BwrtZxCCtDiWgz45Rh1HEVRSPhBooXynU/Pl/E3fk2mhuIBzdsdO05wagHNsZACms6YJ9+9QOThT9fIBwY6zQluKg4pyjaKArR1cVUtoNMuVQFx13UkoMXjKkBbV6qAFm9XefMEtPUB2rqoAlo8rgK0daUKaPEoCoi7LoqAFm9TFajHQECLd6iEcwRavENVqA0AGDVMX2eZrVu3yu9+9zt54403Sjed6+fK/7zKGZoLr5HPtmloZsjnbp4uL1xVLzc8Hoo/PktO/kjLw70BLe8LNFY+8KnpIvedVfD+TXedKnPuEzn3X9s3u2ETtvSylgdAczFl3+6YLvwb3J8abBNnuyjHGnVf7ch5nQnuImrRb8Imr8RyCqTus5BwPFiXex2tjqMqCsk+SLTol/Kwe/+LX6+Xv3UGMKd6uR0fnh+d5Ze/k/96E7Deue3ifWzyw8vT/c2wWJ5yW5P833ea5DvOWAb7+NuBs2R56D1RtikWQPvV1sVVtYDyKEljchcR6jqnzuy7M+8Nq1z7CavUfbb3vvbWRVU59gGVaz9hlbzPBD9jUCnvb+897a2Lq87sq733trcuijrz/vbe2966qMrtIzetvm/fPlmzZo2sWLFCli1bZkpLly71Dw4tXrxYnnjiCZk7d66MGzcudwCOCRMmyAMPPCDXXnut9O/f3x9TmPAxt6dNC3+eu6XNGZ3JdXjQtlCfx9fluO1Gzl7qH7zEA13N628aJwuemCMjQ/vzOHcfLAfS3v/Jq0SueK5J/hUPFRdtn9MM+dfnbpMJodzuOX6tzL0w92eC7bDv4GEzv93fvCRffHetf5AQDqiU7To61qj7alOj58i33Pv/6Eyef/9lue/DLK2c8mpjn5AnvG0QcwTLUY47qqKQ7EjnGfPkD878FWqtfAUVdMGjfvlK3Esy5mz5kIu9+NAjsrlgHw2y7KHc8PK0oqsxGMvmfcl8+ZfDauTiuwudfpRtAgEtXoqqBe3YogpsaGhd1psbchcR+Jm14nVRBLR4XAVo60oV0OLtKuoofycEtHhcBWjrShXQ4lEEkviMQUCLt6kK1GMgoMU7VMI5Ai3eoSrUBkBNTY1069ZNevbs6e+VhHr16mVGQU6YSr/99ttlzpw58tJLL8lhhx0mX/3qV+WWW27xJhS3BuBYitGOXdPIi5fK0+82tal7Lh7bsv2Z8wrXw4y02tdS+R9ttbfi97e3baBjc98uE7wH+Uyb617PLXzKuvA45sk0GSv/44mi/GNs19GxQpH31YYK3h8+nlLKKS9tn7kY8gtvm8u1uByjHHcURSHZkc42FDjilthYOfefLxJZcbnccFfLaOemu2bKHSumyyXfnyMjmrcNy73vsSb53dtr5ZLJboclb+PTaXNdXFULxVNUkeUuIj6Yv4jA8HzLugZZmr+ImIqR64J10QS0eFwBVJW2rlQBLd6RkMd6Z56K45vy5ulod+IpXhdHQIvHFbBSZkl+xiCgxdtT0vUYCGjxKEoyR6DFo6gSbSAwnLhvctCgQXLEEUfIkUceaUojRoyQAQMGyAUXXCAPP/ywN6Lnn3++3HfffXLOOef4nHHPJ7bBOhxPGJQjRaWlKEQznWVWkFxB/Ix58sTPL5I/XV0vHx5U4/W5q0UufnapfHJ00batNFY+uahJ5uI7N9X1UNE2G+bKpfm/8+Hzcl8P8Ovz8stn5u5laL2PaKoWiofOo2usfCp/EXEjvow/H9/sLiLuzF9E4PtYC98TTZ3Lq0W5HbWOd0Z+l0q8XY0+Wz7kLob+tOAR2VywrkGWL3DmafJ5Ms19/gveE1Ml5QWtnytfOaxG/g76TL6NfCa/fMbconxLE9DiHSu5zxgUO68K1GOg2LkFSjhHq3lBATCeMGt1dXV+9HDw4MEyZMgQM4IZRk54kOiMM86Q+++/X2bPni1HH320/wolmFJs169fP//gUfFoJw6VotJSFFIY6Rwr5zzWJItundF63enzZNFbbl2zlso5o4q2KZdGzZHvFfytkB5ra2Q1mqoFzVBHVqcuItoW0OIdKsGLjEBAi7cvdzH0NWeeVl4uN93dMtKz6W5nnlZOl4vnuc9iwfbxBbR4hxo9R+a+3SRPaFrU+bwgoMUjKaHPGAS0eNtKvh4DAS3esZLNEWjxjlWZNgCC0U4YNkyxWxPyQn533nmn3HjjjXL88cfL4Ycf7kdBhw8fLgMHDvQjtW1Or7v+h6LSUhRSGemsdlULmqGOpQQuIkrOK8GLjEAl54Zyypun051xgmY68zR7VXkuukrOqwLqdG4JXaiWlFfC9RiopNwCJZij1bwgDZg2a4LhDEZihw4d6qfTYToxAorRTRhTbINtNXCoFJWWokDTmYCqBe3Y0hbQ4hYEtHgkuU73N840tWipfKKTo3WBgBa3IKDF0xbQ4h0qwXoMBLR4ZCWUI9DikZVwG8gCMJR4kAgjmjCdMJt4Sh1GtK3RzTCaEaCoSikKNJ0JqFrQji1tAS1uQUCLpy2gxS0IaPG0BbS4BQEtnraAFregrABTGXxJfN++fb0BjWI2AzQjQFGVUhRoOhNQtaAdW9oCWtyCgBZPW0CLWxDQ4mkLaHELAlo8bQEtbkFZIphmD6bRoxpOQrJACg8SVb+qhYMGBbS4BQEtnraAFrcgoMXTFtDiFgS0eNoCWtyCugrawx0UVSlFgSOdCaha0Ax12rKaF2Q1N6t5QVZzs5oXZDU3q3lBXQUcKkWlpSh0aDr79egujfv2qVePlK5qQTPUaQtocQsCWjxtAS1uQUCLpy2gxS0IaPG0BbS4BXUVNCNAUZVSFNo1nbiXZGSvJnntnUb16pFqrTd27JRhvdr+SossoR1f2rKaF2Q1N6t5QVZzs5oXZDU3q3lBXQUcalrafPep8qHDahSdKv9nvf4eqroUhTZNJ0wTnpob0b1J3mzcqY7oUa21zZnOET1bvgMuy2jHl7aAFrcgoMXTFtDiFgS0eNoCWtyCgBZPW0CLW1BXQbvPrpLCT5Ze8ix+djqspfKp0fr2iWjRLPk7Z3QfhNHV1lOJKQrtmk58Ee1pg3vIhs1bZNfefeoVJNWi/QcPyR/X/VVOH5j72ousm05tmiptAS1uQUCLpy2gxS0IaPG0BbS4BQEtnraAFregroLrhlIV0OKVFtDiVLKKgmo6YZaCX0YYWlcrH+nVKMv/vFb2HDigNmjKGc5Dh+TplxvkpG47ZeTA/v771VCGWUYz1mnLal6Q1dys5gVZzc1qXpDV3KzmBXUVcKhpKkBbBz391Rr5yJlzZfOGuXLZIPc6r1sfD63Pxy67u6HgvZi+9++VhXJr6L0t2zXIL850Mf8zx8vkrkn5bb66ML/fWfJ0aH9ej89y8VPlFxuK4gXK77f5bxbup+O8WhQ+vra2yeUU2s7lH2t9iopCm64o+GWEAQMGyIlD6+R9jVvkN8ufkQ2vbZN3du5WG3ZX1I7de32ZPPbUKjnizU1y2tA+vswC05nl0U7NXKctoMUtCGjxtAW0uAUBLZ62gBa3IKDF0xbQ4hbUVXBdUmoK0NaFhd/YnznpJfn7t5vkcafrLxB55LzcT58uPSsXezz/k6jfy5tR/z6A9w66To5+tnC7nHkbK59clIthmn92sM33ZsjksxCbL0tD+4OeftQZ1MnnyVRM/4fiLYLhrJe7Tng0ty//N0WuDhk9T7t55baD4fzxcWtD+2l9jDCUpzvTfPbP89s4XS9ntWxTvP7Z22Tcj87SzWsKikJNkyP/ugCEDx48KLt27ZJt27bJa6+9Jpu2vSV/OFgn25p6yrtd6UaZdujfXeTwmv0yrVujjBk8wP9W7rBhw/xPl2Vtih11vnfvXnn99dflohWvyt9/aHp+jR1+fscTct5XTs8v2cJqbiyz+LDM4mO5zH76h2Uyf8pI/zvmGBDI+q1PAcXn7H8+Pb1z9pbvnyoXXL0sv9TCuBvWym1fHutfr3TG6xv3XyTXvzVPJvuI44lZcqYzUuHtRBbKbYPPkkdnPiqLnGkEwf7Pcobr8tDHzO/zpdvkR4/NkSMR8Pt70f9u/yedmczRIA99tF7uHteyv+Bv/LXg7xbT8TaR82pF8TFqOYbR1+f+/vjCMk2JW57ouJ21aToBVh04cEB27twpb731ltf27dtl9+7dsn//fm9KuzIYycR9r/i5MoxuDh482Ku2ttYbzqxNrwcnsK1bt8qlK1+VPRjKNUa3tw/IoUE98ku2sJobyyw+LLP4WC6zPt1q5D8mj5Thw4dXtem8IkXT+aozP1+4WmRWgdkrBEbs35zp/HbYIG2YK1ecdLkc40zbnGbTljNY85zB+k3eYOX2P77wvY5Wf9eZzv/mTGdxHlG3KySfx8qceb5VMZ6R82pF0THmy0Ha+Dt6OTkiHUdluLWzphMExnPPnj3S2NgoO3bs8KOf+/bt8/EO3l61oDDxdD/ue+3Xr583mhAMaBYNJ0Bdol7ffPNN2bhxo7zxxht+uavWMSEk+6DzGzp0qBx99NH+f5yzq9V0fjXlkc7AZJ3ThvmB6fyfznT+ryLTeWXeTF0WMp2/zBuyhXnTmdv/+ML3Olr9XWfCZuRNWEEe+b8DU/fvztT5XF66Te5tcySyhVze+QUpzD9yXsExOQNbwMz8MarlECK//qX8YiHT2y33SvG9cphOgE0OHTrkRzdhQvA/hFhXNSQoTBhLGEycxCC8hhHN6gkNdYkLCVxY4JYKjGqjnrtqHRNCsg3OxTgvDxw40N/2VFdX55er1XRenqLp/H95k3VRB6bzm850fqvIdGIEb7QzW5cWmc75znQ+mjeduf2PL3yvo1Xcmc6znOlsnUd+nwKjeZw8OPgs2dDWqGJb5HNd44xn8Pei5RX+23NkhN+i6Bjz++5opLOwnGxxW7lMZwA2DYwm/g9iXRUUKATzGYxsZv1khnrFhQVuocDJrCtfWBBCsk1wfkYHiFkoDA5kcRaqLXBuDpvOOSmbzi/mTecn2jCdz4RM58n5WDCCN6rIdP5X3pA9EjKd2v79Pl+6Te4JzJwznWfnTWdxHs37uGG8zL9a36ZDivYfKa/8MQajrDmKj3Gh/Iczwr+Z2XLMheTW4/7Sln3YYm65TWcYGpEWsm40w6BeIZhNXlgQQrJOeGAAr6vtfB02nZelbDq/5MzXl9oxcjBi1zrTeW2R6fznvOlseQ4tZ8h+4AzZr0Om80v+QaXpLX/DGcCPnTdf/lv4vfn9weDd0sqcLZQ7YOzwcvJt8oPmUcc2wP6/Oy60XT4vaXlvtLzyf9cZyuB4cmXhXoRiwb7Cx4PtfnZ87li09a1zTI/bkzSdpPrhR4MQUi1Uk9kMKDadX0nZdM7y5qs1H3Um6RJnkp4Nmc5J+XUwif/iTCLuZcQ2ORrkYWfu7nGm8+GQIZt19Xi5dtU4+Znbfo2Ptuw7TEEuztQF+wC5HPT3abQ6LmdW54UMXuS88scZrH+vM8WffblerpXC/Fr9vaL8YTI/7gxtM0X5pMkdNJ2EEEJIdVJsOi9J0XQmDczYl525+2bYsJYATOe3nPHt7H4CypVXNXBnBNNZPTe3EEIIIV0YDCFVszp/jAtluZ/SPkfer64vTZ3PqzoUBZpOQgghpApAv1/NAlo8qrZ8/zpZJNPl85fOUNeXKqDFu5qiwOl1QgghJIMUT6/P+kj1Tq8T+8z7LafXCSGEkC5B8cgTRVVSUaDpJIQQQqqA8P11FFVpRYGmkxBCCKkC8M3KFJWWokDTSQghhFQBGGyiqLQUBZpOQgghpArQRp8oqlKKAk0nIYQQUgVo99lRVKUUBZpOQgghpApAv09RaSkKNJ2EEEJIFaAZAYqqlKJA00kIIYRUAZoRoKhKKQo0nYQQQkgVcMj1/BSVlqJA00kIIYRUAej3KSotRYG/vU4IIYRkkOC317du3SqXrnxV9kQdbiIkAfp0q5H/mDxShg8f3uZvr9N0EkIIIRkE3fe+ffvkzTfflI0bN8obb7zhl9mtk0oDkzl06FA5+uij/f+9evWi6SSEEEKqBXTfBw4ckB07dsi2bdtk+/btsn//fppOUlFgLnv06CEDBw6UYcOGSV1dnV+m6SSEEEKqiEOHDvnRzd27d/updiyzWyeVBOayW7dufrSzb9++fpQTyxo0nYQQQkhGQRcOwWxCQYyQShIYTwivtVFOQNNJCCGEVAHszknatGU2A2g6CSGEEEJI4vB7OgkhhBBCSOLQdBJCCCGEkIQR+f9pKdjOeS/nyAAAAABJRU5ErkJggg==;" parent="UkTJap6GeNjWdgkHiNkX-42" vertex="1">
          <mxGeometry x="6.47999999999999" y="33" width="449.04" height="147" as="geometry" />
        </mxCell>
        <mxCell id="UkTJap6GeNjWdgkHiNkX-44" value="" style="shape=image;verticalLabelPosition=bottom;labelBackgroundColor=default;verticalAlign=top;aspect=fixed;imageAspect=0;image=data:image/svg+xml,PHN2ZyB4bWxuczp4bGluaz0iaHR0cDovL3d3dy53My5vcmcvMTk5OS94bGluayIgeG1sbnM9Imh0dHA6Ly93d3cudzMub3JnLzIwMDAvc3ZnIiB2aWV3Qm94PSItLjIzOTA1MSAtLjIzNDY0NiAxMTUuODk5Nzc5IDEyLjc0MjM0MyIgaGVpZ2h0PSIxMi43NDIzNDNwdCIgd2lkdGg9IjExNS44OTk3NzlwdCIgdmVyc2lvbj0iMS4xIj4mI3hhOzxkZWZzPiYjeGE7PHBhdGggZD0iTTQuNjE0Njk1LTQuOTEzNTc0QzQuNjE0Njk1LTUuMjYwMjc0IDQuMzI3NzcxLTUuNTQ3MTk4IDMuOTgxMDcxLTUuNTQ3MTk4UzMuMzQ3NDQ3LTUuMjYwMjc0IDMuMzQ3NDQ3LTQuOTEzNTc0UzMuNjM0MzcxLTQuMjc5OTUgMy45ODEwNzEtNC4yNzk5NUM0LjMxNTgxNi00LjI3OTk1IDQuNjE0Njk1LTQuNTU0OTE5IDQuNjE0Njk1LTQuOTEzNTc0Wk03LjYwMzQ4NyAuMjYzMDE0QzcuNjAzNDg3LS4wODM2ODYgNy4zMTY1NjMtLjM3MDYxIDYuOTY5ODYzLS4zNzA2MVM2LjMzNjIzOS0uMDgzNjg2IDYuMzM2MjM5IC4yNjMwMTRTNi42MjMxNjMgLjg5NjYzOCA2Ljk2OTg2MyAuODk2NjM4UzcuNjAzNDg3IC42MDk3MTQgNy42MDM0ODcgLjI2MzAxNFpNMS42MjU5MDMgLjI2MzAxNEMxLjYyNTkwMy0uMDgzNjg2IDEuMzM4OTc5LS4zNzA2MSAuOTkyMjc5LS4zNzA2MVMuMzU4NjU1LS4wODM2ODYgLjM1ODY1NSAuMjYzMDE0Uy42NDU1NzkgLjg5NjYzOCAuOTkyMjc5IC44OTY2MzhTMS42MjU5MDMgLjYwOTcxNCAxLjYyNTkwMyAuMjYzMDE0WiIgaWQ9ImcwLTQxIi8+JiN4YTs8cGF0aCBkPSJNNC42NTA1Ni0zLjMyMzUzN0wyLjI1OTUyNy01LjcwMjYxNUMyLjExNjA2NS01Ljg0NjA3NyAyLjA5MjE1NC01Ljg2OTk4OCAxLjk5NjUxMy01Ljg2OTk4OEMxLjg3Njk2MS01Ljg2OTk4OCAxLjc1NzQxLTUuNzYyMzkxIDEuNzU3NDEtNS42MzA4ODRDMS43NTc0MS01LjU0NzE5OCAxLjc4MTMyLTUuNTIzMjg4IDEuOTEyODI3LTUuMzkxNzgxTDQuMzAzODYxLTIuOTg4NzkyTDEuOTEyODI3LS41ODU4MDNDMS43ODEzMi0uNDU0Mjk2IDEuNzU3NDEtLjQzMDM4NiAxLjc1NzQxLS4zNDY3QzEuNzU3NDEtLjIxNTE5MyAxLjg3Njk2MS0uMTA3NTk3IDEuOTk2NTEzLS4xMDc1OTdDMi4wOTIxNTQtLjEwNzU5NyAyLjExNjA2NS0uMTMxNTA3IDIuMjU5NTI3LS4yNzQ5NjlMNC42Mzg2MDUtMi42NTQwNDdMNy4xMTMzMjUtLjE3OTMyOEM3LjEzNzIzNS0uMTY3MzcyIDcuMjIwOTIyLS4xMDc1OTcgNy4yOTI2NTMtLjEwNzU5N0M3LjQzNjExNS0uMTA3NTk3IDcuNTMxNzU2LS4yMTUxOTMgNy41MzE3NTYtLjM0NjdDNy41MzE3NTYtLjM3MDYxIDcuNTMxNzU2LS40MTg0MzEgNy40OTU4OS0uNDc4MjA3QzcuNDgzOTM1LS41MDIxMTcgNS41ODMwNjQtMi4zNzkwNzggNC45ODUzMDUtMi45ODg3OTJMNy4xNzMxMDEtNS4xNzY1ODhDNy4yMzI4NzctNS4yNDgzMTkgNy40MTIyMDQtNS40MDM3MzYgNy40NzE5OC01LjQ3NTQ2N0M3LjQ4MzkzNS01LjQ5OTM3NyA3LjUzMTc1Ni01LjU0NzE5OCA3LjUzMTc1Ni01LjYzMDg4NEM3LjUzMTc1Ni01Ljc2MjM5MSA3LjQzNjExNS01Ljg2OTk4OCA3LjI5MjY1My01Ljg2OTk4OEM3LjE5NzAxMS01Ljg2OTk4OCA3LjE0OTE5MS01LjgyMjE2NyA3LjAxNzY4NC01LjY5MDY2TDQuNjUwNTYtMy4zMjM1MzdaIiBpZD0iZzEtMiIvPiYjeGE7PHBhdGggZD0iTTYuMzEyMzI5LTQuNTc0ODQ0QzYuNDA3OTctNC45NjUzOCA2LjU4MzMxMy01LjE1NjY2MyA3LjE1NzE2MS01LjE4MDU3M0M3LjIzNjg2Mi01LjE4MDU3MyA3LjMwMDYyMy01LjIyODM5NCA3LjMwMDYyMy01LjMzMjAwNUM3LjMwMDYyMy01LjM3OTgyNiA3LjI2MDc3Mi01LjQ0MzU4NyA3LjE4MTA3MS01LjQ0MzU4N0M3LjEyNTI4LTUuNDQzNTg3IDYuOTczODQ4LTUuNDE5Njc2IDYuMzg0MDYtNS40MTk2NzZDNS43NDY0NTEtNS40MTk2NzYgNS42NDI4MzktNS40NDM1ODcgNS41NzExMDgtNS40NDM1ODdDNS40NDM1ODctNS40NDM1ODcgNS40MTk2NzYtNS4zNTU5MTUgNS40MTk2NzYtNS4yOTIxNTRDNS40MTk2NzYtNS4xODg1NDMgNS41MjMyODgtNS4xODA1NzMgNS41OTUwMTktNS4xODA1NzNDNi4wODExOTYtNS4xNjQ2MzMgNi4wODExOTYtNC45NDk0NCA2LjA4MTE5Ni00LjgzNzg1OEM2LjA4MTE5Ni00Ljc5ODAwNyA2LjA4MTE5Ni00Ljc1ODE1NyA2LjA0OTMxNS00LjYzMDYzNUw1LjE3MjYwMy0xLjEzOTcyNkwzLjI1MTgwNi01LjMwMDEyNUMzLjE4ODA0NS01LjQ0MzU4NyAzLjE3MjEwNS01LjQ0MzU4NyAyLjk4MDgyMi01LjQ0MzU4N0gxLjk0NDcwN0MxLjgwMTI0NS01LjQ0MzU4NyAxLjY5NzYzNC01LjQ0MzU4NyAxLjY5NzYzNC01LjI5MjE1NEMxLjY5NzYzNC01LjE4MDU3MyAxLjc5MzI3NS01LjE4MDU3MyAxLjk2MDY0OC01LjE4MDU3M0MyLjAyNDQwOC01LjE4MDU3MyAyLjI2MzUxMi01LjE4MDU3MyAyLjQ0NjgyNC01LjEzMjc1MkwxLjM3ODgyOS0uODUyODAyQzEuMjgzMTg4LS40NTQyOTYgMS4wNzU5NjUtLjI3ODk1NCAuNTQxOTY4LS4yNjMwMTRDLjQ5NDE0Ny0uMjYzMDE0IC4zOTg1MDYtLjI1NTA0NCAuMzk4NTA2LS4xMTE1ODJDLjM5ODUwNi0uMDYzNzYxIC40MzgzNTYgMCAuNTE4MDU3IDBDLjU0OTkzOCAwIC43MzMyNS0uMDIzOTEgMS4zMDcwOTgtLjAyMzkxQzEuOTM2NzM3LS4wMjM5MSAyLjA1NjI4OSAwIDIuMTI4MDIgMEMyLjE1OTkgMCAyLjI3OTQ1MiAwIDIuMjc5NDUyLS4xNTE0MzJDMi4yNzk0NTItLjI0NzA3MyAyLjE5MTc4MS0uMjYzMDE0IDIuMTM1OTktLjI2MzAxNEMxLjg0OTA2Ni0uMjcwOTg0IDEuNjA5OTYzLS4zMTg4MDQgMS42MDk5NjMtLjU5Nzc1OEMxLjYwOTk2My0uNjM3NjA5IDEuNjMzODczLS43NDkxOTEgMS42MzM4NzMtLjc1NzE2MUwyLjY3Nzk1OC00LjkxNzU1OUgyLjY4NTkyOEw0LjkwMTYxOS0uMTQzNDYyQzQuOTU3NDEtLjAxNTk0IDQuOTY1MzggMCA1LjA1MzA1MSAwQzUuMTY0NjMzIDAgNS4xNzI2MDMtLjAzMTg4IDUuMjA0NDgzLS4xNjczNzJMNi4zMTIzMjktNC41NzQ4NDRaIiBpZD0iZzItNzgiLz4mI3hhOzxwYXRoIGQ9Ik03Ljg3ODQ1Ni01LjgyMjE2N0M4LjA5MzY0OS01LjkxNzgwOCA4LjExNzU1OS02LjAwMTQ5NCA4LjExNzU1OS02LjA3MzIyNUM4LjExNzU1OS02LjIwNDczMiA4LjAyMTkxOC02LjMwMDM3NCA3Ljg5MDQxMS02LjMwMDM3NEM3Ljg2NjUwMS02LjMwMDM3NCA3Ljg1NDU0NS02LjI4ODQxOCA3LjY4NzE3My02LjIxNjY4N0wxLjIxOTQyNy0zLjIzOTg1MUMxLjAwNDIzNC0zLjE0NDIwOSAuOTgwMzI0LTMuMDYwNTIzIC45ODAzMjQtMi45ODg3OTJDLjk4MDMyNC0yLjkwNTEwNiAuOTkyMjc5LTIuODMzMzc1IDEuMjE5NDI3LTIuNzI1Nzc4TDcuNjg3MTczIC4yNTEwNTlDNy44NDI1OSAuMzIyNzkgNy44NjY1MDEgLjMzNDc0NSA3Ljg5MDQxMSAuMzM0NzQ1QzguMDIxOTE4IC4zMzQ3NDUgOC4xMTc1NTkgLjIzOTEwMyA4LjExNzU1OSAuMTA3NTk3QzguMTE3NTU5IC4wMzU4NjYgOC4wOTM2NDktLjA0NzgyMSA3Ljg3ODQ1Ni0uMTQzNDYyTDEuNzIxNTQ0LTIuOTc2ODM3TDcuODc4NDU2LTUuODIyMTY3WiIgaWQ9ImczLTYwIi8+JiN4YTs8cGF0aCBkPSJNOC44NDY4MjQtNi45MTAwODdDOC45NzgzMzEtNy40MjQxNTkgOS4xNjk2MTQtNy43ODI4MTQgMTAuMDc4MjA3LTcuODE4NjhDMTAuMTE0MDcyLTcuODE4NjggMTAuMjU3NTM0LTcuODMwNjM1IDEwLjI1NzUzNC04LjAzMzg3M0MxMC4yNTc1MzQtOC4xNjUzOCAxMC4xNDk5MzgtOC4xNjUzOCAxMC4xMDIxMTctOC4xNjUzOEM5Ljg2MzAxNC04LjE2NTM4IDkuMjUzMy04LjE0MTQ2OSA5LjAxNDE5Ny04LjE0MTQ2OUg4LjQ0MDM0OUM4LjI3Mjk3Ni04LjE0MTQ2OSA4LjA1Nzc4My04LjE2NTM4IDcuODkwNDExLTguMTY1MzhDNy44MTg2OC04LjE2NTM4IDcuNjc1MjE4LTguMTY1MzggNy42NzUyMTgtNy45MzgyMzJDNy42NzUyMTgtNy44MTg2OCA3Ljc3MDg1OS03LjgxODY4IDcuODU0NTQ1LTcuODE4NjhDOC41NzE4NTYtNy43OTQ3NyA4LjYxOTY3Ni03LjUxOTgwMSA4LjYxOTY3Ni03LjMwNDYwOEM4LjYxOTY3Ni03LjE5NzAxMSA4LjYwNzcyMS03LjE2MTE0NiA4LjU3MTg1Ni02Ljk5Mzc3M0w3LjIyMDkyMi0xLjYwMTk5M0w0LjY2MjUxNi03Ljk2MjE0MkM0LjU3ODgyOS04LjE1MzQyNSA0LjU2Njg3NC04LjE2NTM4IDQuMzAzODYxLTguMTY1MzhIMi44NDUzM0MyLjYwNjIyNy04LjE2NTM4IDIuNDk4NjMtOC4xNjUzOCAyLjQ5ODYzLTcuOTM4MjMyQzIuNDk4NjMtNy44MTg2OCAyLjU4MjMxNi03LjgxODY4IDIuODA5NDY1LTcuODE4NjhDMi44NjkyNC03LjgxODY4IDMuNTc0NTk1LTcuODE4NjggMy41NzQ1OTUtNy43MTEwODNDMy41NzQ1OTUtNy42ODcxNzMgMy41NTA2ODUtNy41OTE1MzIgMy41Mzg3My03LjU1NTY2NkwxLjk0ODY5Mi0xLjIxOTQyN0MxLjgwNTIzLS42MzM2MjQgMS41MTgzMDYtLjM4MjU2NSAuNzI5MjY1LS4zNDY3Qy42Njk0ODktLjM0NjcgLjU0OTkzOC0uMzM0NzQ1IC41NDk5MzgtLjExOTU1MkMuNTQ5OTM4IDAgLjY2OTQ4OSAwIC43MDUzNTUgMEMuOTQ0NDU4IDAgMS41NTQxNzItLjAyMzkxIDEuNzkzMjc1LS4wMjM5MUgyLjM2NzEyM0MyLjUzNDQ5Ni0uMDIzOTEgMi43Mzc3MzMgMCAyLjkwNTEwNiAwQzIuOTg4NzkyIDAgMy4xMjAyOTkgMCAzLjEyMDI5OS0uMjI3MTQ4QzMuMTIwMjk5LS4zMzQ3NDUgMy4wMDA3NDctLjM0NjcgMi45NTI5MjctLjM0NjdDMi41NTg0MDYtLjM1ODY1NSAyLjE3NTg0MS0uNDMwMzg2IDIuMTc1ODQxLS44NjA3NzJDMi4xNzU4NDEtLjk1NjQxMyAyLjE5OTc1MS0xLjA2NDAxIDIuMjIzNjYxLTEuMTU5NjUxTDMuODM3NjA5LTcuNTU1NjY2QzMuOTA5MzQtNy40MzYxMTUgMy45MDkzNC03LjQxMjIwNCAzLjk1NzE2MS03LjMwNDYwOEw2LjgwMjQ5MS0uMjE1MTkzQzYuODYyMjY3LS4wNzE3MzEgNi44ODYxNzcgMCA2Ljk5Mzc3MyAwQzcuMTEzMzI1IDAgNy4xMjUyOC0uMDM1ODY2IDcuMTczMTAxLS4yMzkxMDNMOC44NDY4MjQtNi45MTAwODdaIiBpZD0iZzMtNzgiLz4mI3hhOzxwYXRoIGQ9Ik0zLjU5ODUwNi0xLjQyMjY2NUMzLjUzODczLTEuMjE5NDI3IDMuNTM4NzMtMS4xOTU1MTcgMy4zNzEzNTctLjk2ODM2OUMzLjEwODM0NC0uNjMzNjI0IDIuNTgyMzE2LS4xMTk1NTIgMi4wMjA0MjMtLjExOTU1MkMxLjUzMDI2Mi0uMTE5NTUyIDEuMjU1MjkzLS41NjE4OTMgMS4yNTUyOTMtMS4yNjcyNDhDMS4yNTUyOTMtMS45MjQ3ODIgMS42MjU5MDMtMy4yNjM3NjEgMS44NTMwNTEtMy43NjU4NzhDMi4yNTk1MjctNC42MDI3NCAyLjgyMTQyLTUuMDMzMTI2IDMuMjg3NjcxLTUuMDMzMTI2QzQuMDc2NzEyLTUuMDMzMTI2IDQuMjMyMTMtNC4wNTI4MDIgNC4yMzIxMy0zLjk1NzE2MUM0LjIzMjEzLTMuOTQ1MjA1IDQuMTk2MjY0LTMuNzg5Nzg4IDQuMTg0MzA5LTMuNzY1ODc4TDMuNTk4NTA2LTEuNDIyNjY1Wk00LjM2MzYzNi00LjQ4MzE4OEM0LjIzMjEzLTQuNzk0MDIyIDMuOTA5MzQtNS4yNzIyMjkgMy4yODc2NzEtNS4yNzIyMjlDMS45MzY3MzctNS4yNzIyMjkgLjQ3ODIwNy0zLjUyNjc3NSAuNDc4MjA3LTEuNzU3NDFDLjQ3ODIwNy0uNTczODQ4IDEuMTcxNjA2IC4xMTk1NTIgMS45ODQ1NTggLjExOTU1MkMyLjY0MjA5MiAuMTE5NTUyIDMuMjAzOTg1LS4zOTQ1MjEgMy41Mzg3My0uNzg5MDQxQzMuNjU4MjgxLS4wODM2ODYgNC4yMjAxNzQgLjExOTU1MiA0LjU3ODgyOSAuMTE5NTUyUzUuMjI0NDA4LS4wOTU2NDEgNS40Mzk2MDEtLjUyNjAyN0M1LjYzMDg4NC0uOTMyNTAzIDUuNzk4MjU3LTEuNjYxNzY4IDUuNzk4MjU3LTEuNzA5NTg5QzUuNzk4MjU3LTEuNzY5MzY1IDUuNzUwNDM2LTEuODE3MTg2IDUuNjc4NzA1LTEuODE3MTg2QzUuNTcxMTA4LTEuODE3MTg2IDUuNTU5MTUzLTEuNzU3NDEgNS41MTEzMzMtMS41NzgwODJDNS4zMzIwMDUtLjg3MjcyNyA1LjEwNDg1Ny0uMTE5NTUyIDQuNjE0Njk1LS4xMTk1NTJDNC4yNjc5OTUtLjExOTU1MiA0LjI0NDA4NS0uNDMwMzg2IDQuMjQ0MDg1LS42Njk0ODlDNC4yNDQwODUtLjk0NDQ1OCA0LjI3OTk1LTEuMDc1OTY1IDQuMzg3NTQ3LTEuNTQyMjE3QzQuNDcxMjMzLTEuODQxMDk2IDQuNTMxMDA5LTIuMTA0MTEgNC42MjY2NS0yLjQ1MDgwOUM1LjA2ODk5MS00LjI0NDA4NSA1LjE3NjU4OC00LjY3NDQ3MSA1LjE3NjU4OC00Ljc0NjIwMkM1LjE3NjU4OC00LjkxMzU3NCA1LjA0NTA4MS01LjA0NTA4MSA0Ljg2NTc1My01LjA0NTA4MUM0LjQ4MzE4OC01LjA0NTA4MSA0LjM4NzU0Ny00LjYyNjY1IDQuMzYzNjM2LTQuNDgzMTg4WiIgaWQ9ImczLTk3Ii8+JiN4YTs8cGF0aCBkPSJNNS4yNjAyNzQtMi4wMDg0NjhINC45OTcyNkM0Ljk2MTM5NS0xLjgwNTIzIDQuODY1NzUzLTEuMTQ3Njk2IDQuNzQ2MjAyLS45NTY0MTNDNC42NjI1MTYtLjg0ODgxNyAzLjk4MTA3MS0uODQ4ODE3IDMuNjIyNDE2LS44NDg4MTdIMS40MTA3MUMxLjczMzQ5OS0xLjEyMzc4NiAyLjQ2Mjc2NS0xLjg4ODkxNyAyLjc3MzU5OS0yLjE3NTg0MUM0LjU5MDc4NS0zLjg0OTU2NCA1LjI2MDI3NC00LjQ3MTIzMyA1LjI2MDI3NC01LjY1NDc5NUM1LjI2MDI3NC03LjAyOTYzOSA0LjE3MjM1NC03Ljk1MDE4NyAyLjc4NTU1NC03Ljk1MDE4N1MuNTg1ODAzLTYuNzY2NjI1IC41ODU4MDMtNS43Mzg0ODFDLjU4NTgwMy01LjEyODc2NyAxLjExMTgzMS01LjEyODc2NyAxLjE0NzY5Ni01LjEyODc2N0MxLjM5ODc1NS01LjEyODc2NyAxLjcwOTU4OS01LjMwODA5NSAxLjcwOTU4OS01LjY5MDY2QzEuNzA5NTg5LTYuMDI1NDA1IDEuNDgyNDQxLTYuMjUyNTUzIDEuMTQ3Njk2LTYuMjUyNTUzQzEuMDQwMS02LjI1MjU1MyAxLjAxNjE4OS02LjI1MjU1MyAuOTgwMzI0LTYuMjQwNTk4QzEuMjA3NDcyLTcuMDUzNTQ5IDEuODUzMDUxLTcuNjAzNDg3IDIuNjMwMTM3LTcuNjAzNDg3QzMuNjQ2MzI2LTcuNjAzNDg3IDQuMjY3OTk1LTYuNzU0NjcgNC4yNjc5OTUtNS42NTQ3OTVDNC4yNjc5OTUtNC42Mzg2MDUgMy42ODIxOTItMy43NTM5MjMgMy4wMDA3NDctMi45ODg3OTJMLjU4NTgwMy0uMjg2OTI0VjBINC45NDk0NEw1LjI2MDI3NC0yLjAwODQ2OFoiIGlkPSJnNC01MCIvPiYjeGE7PHBhdGggZD0iTTguMDY5NzM4LTMuODczNDc0QzguMjM3MTExLTMuODczNDc0IDguNDUyMzA0LTMuODczNDc0IDguNDUyMzA0LTQuMDg4NjY3QzguNDUyMzA0LTQuMzE1ODE2IDguMjQ5MDY2LTQuMzE1ODE2IDguMDY5NzM4LTQuMzE1ODE2SDEuMDI4MTQ0Qy44NjA3NzItNC4zMTU4MTYgLjY0NTU3OS00LjMxNTgxNiAuNjQ1NTc5LTQuMTAwNjIzQy42NDU1NzktMy44NzM0NzQgLjg0ODgxNy0zLjg3MzQ3NCAxLjAyODE0NC0zLjg3MzQ3NEg4LjA2OTczOFpNOC4wNjk3MzgtMS42NDk4MTNDOC4yMzcxMTEtMS42NDk4MTMgOC40NTIzMDQtMS42NDk4MTMgOC40NTIzMDQtMS44NjUwMDZDOC40NTIzMDQtMi4wOTIxNTQgOC4yNDkwNjYtMi4wOTIxNTQgOC4wNjk3MzgtMi4wOTIxNTRIMS4wMjgxNDRDLjg2MDc3Mi0yLjA5MjE1NCAuNjQ1NTc5LTIuMDkyMTU0IC42NDU1NzktMS44NzY5NjFDLjY0NTU3OS0xLjY0OTgxMyAuODQ4ODE3LTEuNjQ5ODEzIDEuMDI4MTQ0LTEuNjQ5ODEzSDguMDY5NzM4WiIgaWQ9Imc0LTYxIi8+JiN4YTs8L2RlZnM+JiN4YTs8ZyB0cmFuc2Zvcm09Im1hdHJpeCgxLjEzIDAgMCAxLjEzIC02My45ODYwNDMgLTYyLjgwNjg3MykiIGlkPSJwYWdlMSI+JiN4YTs8dXNlIHhsaW5rOmhyZWY9IiNnMC00MSIgeT0iNjUuNzUzNDI1IiB4PSI1Ni40MTMyNjciLz4mI3hhOzx1c2UgeGxpbms6aHJlZj0iI2czLTk3IiB5PSI2NS43NTM0MjUiIHg9IjY3LjcwNDIzNSIvPiYjeGE7PHVzZSB4bGluazpocmVmPSIjZzMtNjAiIHk9IjY1Ljc1MzQyNSIgeD0iNzcuMTcwMDA5Ii8+JiN4YTs8dXNlIHhsaW5rOmhyZWY9IiNnMy02MCIgeT0iNjUuNzUzNDI1IiB4PSI4Ni4yNzQ2NiIvPiYjeGE7PHVzZSB4bGluazpocmVmPSIjZzMtNzgiIHk9IjY1Ljc1MzQyNSIgeD0iOTguNzAwMTQxIi8+JiN4YTs8dXNlIHhsaW5rOmhyZWY9IiNnNC02MSIgeT0iNjUuNzUzNDI1IiB4PSIxMTIuNjQzNTgxIi8+JiN4YTs8dXNlIHhsaW5rOmhyZWY9IiNnMy05NyIgeT0iNjUuNzUzNDI1IiB4PSIxMjUuMDY5MDYyIi8+JiN4YTs8dXNlIHhsaW5rOmhyZWY9IiNnMS0yIiB5PSI2NS43NTM0MjUiIHg9IjEzMy44NzA2NjkiLz4mI3hhOzx1c2UgeGxpbms6aHJlZj0iI2c0LTUwIiB5PSI2NS43NTM0MjUiIHg9IjE0NS44MjU4MyIvPiYjeGE7PHVzZSB4bGluazpocmVmPSIjZzItNzgiIHk9IjYwLjgxNzIzOSIgeD0iMTUxLjY3ODgyIi8+JiN4YTs8L2c+JiN4YTs8L3N2Zz4=;" parent="UkTJap6GeNjWdgkHiNkX-42" vertex="1">
          <mxGeometry x="119.47" y="213" width="223.06" height="25" as="geometry" />
        </mxCell>
        <mxCell id="UkTJap6GeNjWdgkHiNkX-45" value="For every left shift, number is &lt;b&gt;multiplied by 2&lt;/b&gt;" style="text;html=1;align=center;verticalAlign=middle;resizable=0;points=[];autosize=1;strokeColor=#666666;fillColor=none;fontColor=#333333;" parent="1" vertex="1">
          <mxGeometry x="903" y="945" width="260" height="26" as="geometry" />
        </mxCell>
        <mxCell id="UkTJap6GeNjWdgkHiNkX-46" style="edgeStyle=orthogonalEdgeStyle;rounded=0;orthogonalLoop=1;jettySize=auto;html=1;" parent="1" source="UkTJap6GeNjWdgkHiNkX-42" target="UkTJap6GeNjWdgkHiNkX-45" edge="1">
          <mxGeometry relative="1" as="geometry" />
        </mxCell>
        <mxCell id="UkTJap6GeNjWdgkHiNkX-47" value="For every left shift, leftmost number will be discarded known as &lt;b&gt;Overflow&lt;/b&gt;" style="text;html=1;align=center;verticalAlign=middle;resizable=0;points=[];autosize=1;strokeColor=#666666;fillColor=none;fontColor=#333333;" parent="1" vertex="1">
          <mxGeometry x="829.5" y="990" width="407" height="26" as="geometry" />
        </mxCell>
        <mxCell id="UkTJap6GeNjWdgkHiNkX-48" style="edgeStyle=orthogonalEdgeStyle;rounded=0;orthogonalLoop=1;jettySize=auto;html=1;" parent="1" source="UkTJap6GeNjWdgkHiNkX-45" target="UkTJap6GeNjWdgkHiNkX-47" edge="1">
          <mxGeometry relative="1" as="geometry" />
        </mxCell>
        <mxCell id="UkTJap6GeNjWdgkHiNkX-49" value="To prevent overflow" style="swimlane;whiteSpace=wrap;html=1;fillColor=#fad9d5;strokeColor=#ae4132;swimlaneFillColor=#ffffff;startSize=23;" parent="1" vertex="1">
          <mxGeometry x="952.5" y="1037" width="161" height="84" as="geometry" />
        </mxCell>
        <mxCell id="UkTJap6GeNjWdgkHiNkX-50" value="&lt;div style=&quot;text-align: left;&quot;&gt;&lt;span style=&quot;background-color: initial;&quot;&gt;If number is in range&amp;nbsp;&lt;/span&gt;&lt;/div&gt;&lt;div style=&quot;text-align: left;&quot;&gt;&lt;span style=&quot;background-color: initial;&quot;&gt;1. 0 to 10^9 use int&lt;/span&gt;&lt;/div&gt;&lt;div style=&quot;text-align: left;&quot;&gt;&lt;span style=&quot;background-color: initial;&quot;&gt;2. 10^9 to 10^18 use long&lt;/span&gt;&lt;/div&gt;" style="text;html=1;align=center;verticalAlign=middle;resizable=0;points=[];autosize=1;strokeColor=none;fillColor=none;" parent="UkTJap6GeNjWdgkHiNkX-49" vertex="1">
          <mxGeometry x="3" y="27" width="155" height="55" as="geometry" />
        </mxCell>
        <mxCell id="UkTJap6GeNjWdgkHiNkX-51" style="edgeStyle=orthogonalEdgeStyle;rounded=0;orthogonalLoop=1;jettySize=auto;html=1;" parent="1" source="UkTJap6GeNjWdgkHiNkX-47" target="UkTJap6GeNjWdgkHiNkX-49" edge="1">
          <mxGeometry relative="1" as="geometry" />
        </mxCell>
        <mxCell id="UkTJap6GeNjWdgkHiNkX-52" value="Check is ith bit is set or not" style="swimlane;whiteSpace=wrap;html=1;fillColor=#fff2cc;strokeColor=#d6b656;swimlaneFillColor=#ffffff;startSize=23;" parent="1" vertex="1">
          <mxGeometry x="333.00000000000045" y="888" width="381" height="99" as="geometry" />
        </mxCell>
        <mxCell id="UkTJap6GeNjWdgkHiNkX-53" value="Given a number N, check if ith bit is set or not:&lt;br&gt;&lt;br&gt;&lt;b&gt;(N &amp;amp; ( 1 &amp;lt;&amp;lt; i )) &amp;gt; 0&lt;/b&gt;" style="text;html=1;align=center;verticalAlign=middle;resizable=0;points=[];autosize=1;strokeColor=none;fillColor=none;" parent="UkTJap6GeNjWdgkHiNkX-52" vertex="1">
          <mxGeometry x="59.499999999999545" y="32" width="263" height="55" as="geometry" />
        </mxCell>
        <mxCell id="UkTJap6GeNjWdgkHiNkX-54" value="Problems" style="swimlane;whiteSpace=wrap;html=1;fillColor=#b1ddf0;strokeColor=default;swimlaneFillColor=#FFFFFF;gradientColor=none;" parent="1" vertex="1">
          <mxGeometry x="-383" y="574" width="622" height="388" as="geometry" />
        </mxCell>
        <UserObject label="Reverse an Array" link="https://github.com/SanjeetDutt/NOTES/blob/master/code/JAVA/src/main/java/in/sanjeetdutt/bitManipulation/FindUniqueElement.java" linkTarget="_blank" id="UkTJap6GeNjWdgkHiNkX-55">
          <mxCell style="text;html=1;strokeColor=default;fillColor=#e1d5e7;whiteSpace=wrap;align=center;verticalAlign=middle;fontStyle=4;shadow=1;" parent="UkTJap6GeNjWdgkHiNkX-54" vertex="1">
            <mxGeometry x="21" y="37" width="120" height="40" as="geometry" />
          </mxCell>
        </UserObject>
        <UserObject label="Unset ith bit" link="https://github.com/SanjeetDutt/NOTES/blob/master/code/JAVA/src/main/java/in/sanjeetdutt/bitManipulation/UnsetBit.java" linkTarget="_blank" id="UkTJap6GeNjWdgkHiNkX-56">
          <mxCell style="text;html=1;strokeColor=default;fillColor=#e1d5e7;whiteSpace=wrap;align=center;verticalAlign=middle;fontStyle=4;shadow=1;" parent="UkTJap6GeNjWdgkHiNkX-54" vertex="1">
            <mxGeometry x="161" y="37" width="120" height="40" as="geometry" />
          </mxCell>
        </UserObject>
        <UserObject label="Find unique from odd repetition" link="https://github.com/SanjeetDutt/NOTES/blob/master/code/JAVA/src/main/java/in/sanjeetdutt/bitManipulation/OddRepeating.java" linkTarget="_blank" id="mjhO0WjfD1zE4prb-MFI-1">
          <mxCell style="text;html=1;strokeColor=default;fillColor=#e1d5e7;whiteSpace=wrap;align=center;verticalAlign=middle;fontStyle=4;shadow=1;" vertex="1" parent="UkTJap6GeNjWdgkHiNkX-54">
            <mxGeometry x="298" y="37" width="120" height="40" as="geometry" />
          </mxCell>
        </UserObject>
        <mxCell id="mjhO0WjfD1zE4prb-MFI-2" value="Concept of finding unique from odd repetition" style="swimlane;whiteSpace=wrap;html=1;fillColor=#b1ddf0;strokeColor=default;swimlaneFillColor=#FFFFFF;gradientColor=none;" vertex="1" parent="1">
          <mxGeometry x="-821" y="1132" width="442" height="405" as="geometry" />
        </mxCell>
        <mxCell id="mjhO0WjfD1zE4prb-MFI-3" value="Given array = [5 7 5 9 7 11 11 7 5 11]" style="text;html=1;align=left;verticalAlign=middle;resizable=0;points=[];autosize=1;strokeColor=none;fillColor=none;" vertex="1" parent="mjhO0WjfD1zE4prb-MFI-2">
          <mxGeometry x="12" y="59" width="214" height="26" as="geometry" />
        </mxCell>
        <mxCell id="mjhO0WjfD1zE4prb-MFI-4" value="" style="shape=table;startSize=0;container=1;collapsible=0;childLayout=tableLayout;" vertex="1" parent="mjhO0WjfD1zE4prb-MFI-2">
          <mxGeometry x="22" y="85" width="300" height="230" as="geometry" />
        </mxCell>
        <mxCell id="mjhO0WjfD1zE4prb-MFI-5" value="" style="shape=tableRow;horizontal=0;startSize=0;swimlaneHead=0;swimlaneBody=0;strokeColor=inherit;top=0;left=0;bottom=0;right=0;collapsible=0;dropTarget=0;fillColor=none;points=[[0,0.5],[1,0.5]];portConstraint=eastwest;" vertex="1" parent="mjhO0WjfD1zE4prb-MFI-4">
          <mxGeometry width="300" height="19" as="geometry" />
        </mxCell>
        <mxCell id="mjhO0WjfD1zE4prb-MFI-6" value="Number&lt;br&gt;" style="shape=partialRectangle;html=1;whiteSpace=wrap;connectable=0;strokeColor=inherit;overflow=hidden;fillColor=none;top=0;left=0;bottom=0;right=0;pointerEvents=1;" vertex="1" parent="mjhO0WjfD1zE4prb-MFI-5">
          <mxGeometry width="60" height="19" as="geometry">
            <mxRectangle width="60" height="19" as="alternateBounds" />
          </mxGeometry>
        </mxCell>
        <mxCell id="mjhO0WjfD1zE4prb-MFI-7" value="3" style="shape=partialRectangle;html=1;whiteSpace=wrap;connectable=0;strokeColor=inherit;overflow=hidden;fillColor=none;top=0;left=0;bottom=0;right=0;pointerEvents=1;" vertex="1" parent="mjhO0WjfD1zE4prb-MFI-5">
          <mxGeometry x="60" width="60" height="19" as="geometry">
            <mxRectangle width="60" height="19" as="alternateBounds" />
          </mxGeometry>
        </mxCell>
        <mxCell id="mjhO0WjfD1zE4prb-MFI-8" value="2" style="shape=partialRectangle;html=1;whiteSpace=wrap;connectable=0;strokeColor=inherit;overflow=hidden;fillColor=none;top=0;left=0;bottom=0;right=0;pointerEvents=1;" vertex="1" parent="mjhO0WjfD1zE4prb-MFI-5">
          <mxGeometry x="120" width="60" height="19" as="geometry">
            <mxRectangle width="60" height="19" as="alternateBounds" />
          </mxGeometry>
        </mxCell>
        <mxCell id="mjhO0WjfD1zE4prb-MFI-9" value="1" style="shape=partialRectangle;html=1;whiteSpace=wrap;connectable=0;strokeColor=inherit;overflow=hidden;fillColor=none;top=0;left=0;bottom=0;right=0;pointerEvents=1;" vertex="1" parent="mjhO0WjfD1zE4prb-MFI-5">
          <mxGeometry x="180" width="60" height="19" as="geometry">
            <mxRectangle width="60" height="19" as="alternateBounds" />
          </mxGeometry>
        </mxCell>
        <mxCell id="mjhO0WjfD1zE4prb-MFI-10" value="0" style="shape=partialRectangle;html=1;whiteSpace=wrap;connectable=0;strokeColor=inherit;overflow=hidden;fillColor=none;top=0;left=0;bottom=0;right=0;pointerEvents=1;" vertex="1" parent="mjhO0WjfD1zE4prb-MFI-5">
          <mxGeometry x="240" width="60" height="19" as="geometry">
            <mxRectangle width="60" height="19" as="alternateBounds" />
          </mxGeometry>
        </mxCell>
        <mxCell id="mjhO0WjfD1zE4prb-MFI-11" value="" style="shape=tableRow;horizontal=0;startSize=0;swimlaneHead=0;swimlaneBody=0;strokeColor=inherit;top=0;left=0;bottom=0;right=0;collapsible=0;dropTarget=0;fillColor=none;points=[[0,0.5],[1,0.5]];portConstraint=eastwest;" vertex="1" parent="mjhO0WjfD1zE4prb-MFI-4">
          <mxGeometry y="19" width="300" height="19" as="geometry" />
        </mxCell>
        <mxCell id="mjhO0WjfD1zE4prb-MFI-12" value="5" style="shape=partialRectangle;html=1;whiteSpace=wrap;connectable=0;strokeColor=inherit;overflow=hidden;fillColor=none;top=0;left=0;bottom=0;right=0;pointerEvents=1;" vertex="1" parent="mjhO0WjfD1zE4prb-MFI-11">
          <mxGeometry width="60" height="19" as="geometry">
            <mxRectangle width="60" height="19" as="alternateBounds" />
          </mxGeometry>
        </mxCell>
        <mxCell id="mjhO0WjfD1zE4prb-MFI-13" value="0" style="shape=partialRectangle;html=1;whiteSpace=wrap;connectable=0;strokeColor=inherit;overflow=hidden;fillColor=none;top=0;left=0;bottom=0;right=0;pointerEvents=1;" vertex="1" parent="mjhO0WjfD1zE4prb-MFI-11">
          <mxGeometry x="60" width="60" height="19" as="geometry">
            <mxRectangle width="60" height="19" as="alternateBounds" />
          </mxGeometry>
        </mxCell>
        <mxCell id="mjhO0WjfD1zE4prb-MFI-14" value="1" style="shape=partialRectangle;html=1;whiteSpace=wrap;connectable=0;strokeColor=inherit;overflow=hidden;fillColor=none;top=0;left=0;bottom=0;right=0;pointerEvents=1;" vertex="1" parent="mjhO0WjfD1zE4prb-MFI-11">
          <mxGeometry x="120" width="60" height="19" as="geometry">
            <mxRectangle width="60" height="19" as="alternateBounds" />
          </mxGeometry>
        </mxCell>
        <mxCell id="mjhO0WjfD1zE4prb-MFI-15" value="0" style="shape=partialRectangle;html=1;whiteSpace=wrap;connectable=0;strokeColor=inherit;overflow=hidden;fillColor=none;top=0;left=0;bottom=0;right=0;pointerEvents=1;" vertex="1" parent="mjhO0WjfD1zE4prb-MFI-11">
          <mxGeometry x="180" width="60" height="19" as="geometry">
            <mxRectangle width="60" height="19" as="alternateBounds" />
          </mxGeometry>
        </mxCell>
        <mxCell id="mjhO0WjfD1zE4prb-MFI-16" value="1" style="shape=partialRectangle;html=1;whiteSpace=wrap;connectable=0;strokeColor=inherit;overflow=hidden;fillColor=none;top=0;left=0;bottom=0;right=0;pointerEvents=1;" vertex="1" parent="mjhO0WjfD1zE4prb-MFI-11">
          <mxGeometry x="240" width="60" height="19" as="geometry">
            <mxRectangle width="60" height="19" as="alternateBounds" />
          </mxGeometry>
        </mxCell>
        <mxCell id="mjhO0WjfD1zE4prb-MFI-17" value="" style="shape=tableRow;horizontal=0;startSize=0;swimlaneHead=0;swimlaneBody=0;strokeColor=inherit;top=0;left=0;bottom=0;right=0;collapsible=0;dropTarget=0;fillColor=none;points=[[0,0.5],[1,0.5]];portConstraint=eastwest;" vertex="1" parent="mjhO0WjfD1zE4prb-MFI-4">
          <mxGeometry y="38" width="300" height="19" as="geometry" />
        </mxCell>
        <mxCell id="mjhO0WjfD1zE4prb-MFI-18" value="7" style="shape=partialRectangle;html=1;whiteSpace=wrap;connectable=0;strokeColor=inherit;overflow=hidden;fillColor=none;top=0;left=0;bottom=0;right=0;pointerEvents=1;" vertex="1" parent="mjhO0WjfD1zE4prb-MFI-17">
          <mxGeometry width="60" height="19" as="geometry">
            <mxRectangle width="60" height="19" as="alternateBounds" />
          </mxGeometry>
        </mxCell>
        <mxCell id="mjhO0WjfD1zE4prb-MFI-19" value="0" style="shape=partialRectangle;html=1;whiteSpace=wrap;connectable=0;strokeColor=inherit;overflow=hidden;fillColor=none;top=0;left=0;bottom=0;right=0;pointerEvents=1;" vertex="1" parent="mjhO0WjfD1zE4prb-MFI-17">
          <mxGeometry x="60" width="60" height="19" as="geometry">
            <mxRectangle width="60" height="19" as="alternateBounds" />
          </mxGeometry>
        </mxCell>
        <mxCell id="mjhO0WjfD1zE4prb-MFI-20" value="1" style="shape=partialRectangle;html=1;whiteSpace=wrap;connectable=0;strokeColor=inherit;overflow=hidden;fillColor=none;top=0;left=0;bottom=0;right=0;pointerEvents=1;" vertex="1" parent="mjhO0WjfD1zE4prb-MFI-17">
          <mxGeometry x="120" width="60" height="19" as="geometry">
            <mxRectangle width="60" height="19" as="alternateBounds" />
          </mxGeometry>
        </mxCell>
        <mxCell id="mjhO0WjfD1zE4prb-MFI-21" value="1" style="shape=partialRectangle;html=1;whiteSpace=wrap;connectable=0;strokeColor=inherit;overflow=hidden;fillColor=none;top=0;left=0;bottom=0;right=0;pointerEvents=1;" vertex="1" parent="mjhO0WjfD1zE4prb-MFI-17">
          <mxGeometry x="180" width="60" height="19" as="geometry">
            <mxRectangle width="60" height="19" as="alternateBounds" />
          </mxGeometry>
        </mxCell>
        <mxCell id="mjhO0WjfD1zE4prb-MFI-22" value="1" style="shape=partialRectangle;html=1;whiteSpace=wrap;connectable=0;strokeColor=inherit;overflow=hidden;fillColor=none;top=0;left=0;bottom=0;right=0;pointerEvents=1;" vertex="1" parent="mjhO0WjfD1zE4prb-MFI-17">
          <mxGeometry x="240" width="60" height="19" as="geometry">
            <mxRectangle width="60" height="19" as="alternateBounds" />
          </mxGeometry>
        </mxCell>
        <mxCell id="mjhO0WjfD1zE4prb-MFI-23" value="" style="shape=tableRow;horizontal=0;startSize=0;swimlaneHead=0;swimlaneBody=0;strokeColor=inherit;top=0;left=0;bottom=0;right=0;collapsible=0;dropTarget=0;fillColor=none;points=[[0,0.5],[1,0.5]];portConstraint=eastwest;" vertex="1" parent="mjhO0WjfD1zE4prb-MFI-4">
          <mxGeometry y="57" width="300" height="20" as="geometry" />
        </mxCell>
        <mxCell id="mjhO0WjfD1zE4prb-MFI-24" value="5" style="shape=partialRectangle;html=1;whiteSpace=wrap;connectable=0;strokeColor=inherit;overflow=hidden;fillColor=none;top=0;left=0;bottom=0;right=0;pointerEvents=1;" vertex="1" parent="mjhO0WjfD1zE4prb-MFI-23">
          <mxGeometry width="60" height="20" as="geometry">
            <mxRectangle width="60" height="20" as="alternateBounds" />
          </mxGeometry>
        </mxCell>
        <mxCell id="mjhO0WjfD1zE4prb-MFI-25" value="0" style="shape=partialRectangle;html=1;whiteSpace=wrap;connectable=0;strokeColor=inherit;overflow=hidden;fillColor=none;top=0;left=0;bottom=0;right=0;pointerEvents=1;" vertex="1" parent="mjhO0WjfD1zE4prb-MFI-23">
          <mxGeometry x="60" width="60" height="20" as="geometry">
            <mxRectangle width="60" height="20" as="alternateBounds" />
          </mxGeometry>
        </mxCell>
        <mxCell id="mjhO0WjfD1zE4prb-MFI-26" value="1" style="shape=partialRectangle;html=1;whiteSpace=wrap;connectable=0;strokeColor=inherit;overflow=hidden;fillColor=none;top=0;left=0;bottom=0;right=0;pointerEvents=1;" vertex="1" parent="mjhO0WjfD1zE4prb-MFI-23">
          <mxGeometry x="120" width="60" height="20" as="geometry">
            <mxRectangle width="60" height="20" as="alternateBounds" />
          </mxGeometry>
        </mxCell>
        <mxCell id="mjhO0WjfD1zE4prb-MFI-27" value="0" style="shape=partialRectangle;html=1;whiteSpace=wrap;connectable=0;strokeColor=inherit;overflow=hidden;fillColor=none;top=0;left=0;bottom=0;right=0;pointerEvents=1;" vertex="1" parent="mjhO0WjfD1zE4prb-MFI-23">
          <mxGeometry x="180" width="60" height="20" as="geometry">
            <mxRectangle width="60" height="20" as="alternateBounds" />
          </mxGeometry>
        </mxCell>
        <mxCell id="mjhO0WjfD1zE4prb-MFI-28" value="1" style="shape=partialRectangle;html=1;whiteSpace=wrap;connectable=0;strokeColor=inherit;overflow=hidden;fillColor=none;top=0;left=0;bottom=0;right=0;pointerEvents=1;" vertex="1" parent="mjhO0WjfD1zE4prb-MFI-23">
          <mxGeometry x="240" width="60" height="20" as="geometry">
            <mxRectangle width="60" height="20" as="alternateBounds" />
          </mxGeometry>
        </mxCell>
        <mxCell id="mjhO0WjfD1zE4prb-MFI-29" value="" style="shape=tableRow;horizontal=0;startSize=0;swimlaneHead=0;swimlaneBody=0;strokeColor=inherit;top=0;left=0;bottom=0;right=0;collapsible=0;dropTarget=0;fillColor=none;points=[[0,0.5],[1,0.5]];portConstraint=eastwest;" vertex="1" parent="mjhO0WjfD1zE4prb-MFI-4">
          <mxGeometry y="77" width="300" height="19" as="geometry" />
        </mxCell>
        <mxCell id="mjhO0WjfD1zE4prb-MFI-30" value="9" style="shape=partialRectangle;html=1;whiteSpace=wrap;connectable=0;strokeColor=inherit;overflow=hidden;fillColor=none;top=0;left=0;bottom=0;right=0;pointerEvents=1;" vertex="1" parent="mjhO0WjfD1zE4prb-MFI-29">
          <mxGeometry width="60" height="19" as="geometry">
            <mxRectangle width="60" height="19" as="alternateBounds" />
          </mxGeometry>
        </mxCell>
        <mxCell id="mjhO0WjfD1zE4prb-MFI-31" value="1" style="shape=partialRectangle;html=1;whiteSpace=wrap;connectable=0;strokeColor=inherit;overflow=hidden;fillColor=none;top=0;left=0;bottom=0;right=0;pointerEvents=1;" vertex="1" parent="mjhO0WjfD1zE4prb-MFI-29">
          <mxGeometry x="60" width="60" height="19" as="geometry">
            <mxRectangle width="60" height="19" as="alternateBounds" />
          </mxGeometry>
        </mxCell>
        <mxCell id="mjhO0WjfD1zE4prb-MFI-32" value="0" style="shape=partialRectangle;html=1;whiteSpace=wrap;connectable=0;strokeColor=inherit;overflow=hidden;fillColor=none;top=0;left=0;bottom=0;right=0;pointerEvents=1;" vertex="1" parent="mjhO0WjfD1zE4prb-MFI-29">
          <mxGeometry x="120" width="60" height="19" as="geometry">
            <mxRectangle width="60" height="19" as="alternateBounds" />
          </mxGeometry>
        </mxCell>
        <mxCell id="mjhO0WjfD1zE4prb-MFI-33" value="0" style="shape=partialRectangle;html=1;whiteSpace=wrap;connectable=0;strokeColor=inherit;overflow=hidden;fillColor=none;top=0;left=0;bottom=0;right=0;pointerEvents=1;" vertex="1" parent="mjhO0WjfD1zE4prb-MFI-29">
          <mxGeometry x="180" width="60" height="19" as="geometry">
            <mxRectangle width="60" height="19" as="alternateBounds" />
          </mxGeometry>
        </mxCell>
        <mxCell id="mjhO0WjfD1zE4prb-MFI-34" value="1" style="shape=partialRectangle;html=1;whiteSpace=wrap;connectable=0;strokeColor=inherit;overflow=hidden;fillColor=none;top=0;left=0;bottom=0;right=0;pointerEvents=1;" vertex="1" parent="mjhO0WjfD1zE4prb-MFI-29">
          <mxGeometry x="240" width="60" height="19" as="geometry">
            <mxRectangle width="60" height="19" as="alternateBounds" />
          </mxGeometry>
        </mxCell>
        <mxCell id="mjhO0WjfD1zE4prb-MFI-35" value="" style="shape=tableRow;horizontal=0;startSize=0;swimlaneHead=0;swimlaneBody=0;strokeColor=inherit;top=0;left=0;bottom=0;right=0;collapsible=0;dropTarget=0;fillColor=none;points=[[0,0.5],[1,0.5]];portConstraint=eastwest;" vertex="1" parent="mjhO0WjfD1zE4prb-MFI-4">
          <mxGeometry y="96" width="300" height="19" as="geometry" />
        </mxCell>
        <mxCell id="mjhO0WjfD1zE4prb-MFI-36" value="7" style="shape=partialRectangle;html=1;whiteSpace=wrap;connectable=0;strokeColor=inherit;overflow=hidden;fillColor=none;top=0;left=0;bottom=0;right=0;pointerEvents=1;" vertex="1" parent="mjhO0WjfD1zE4prb-MFI-35">
          <mxGeometry width="60" height="19" as="geometry">
            <mxRectangle width="60" height="19" as="alternateBounds" />
          </mxGeometry>
        </mxCell>
        <mxCell id="mjhO0WjfD1zE4prb-MFI-37" value="0" style="shape=partialRectangle;html=1;whiteSpace=wrap;connectable=0;strokeColor=inherit;overflow=hidden;fillColor=none;top=0;left=0;bottom=0;right=0;pointerEvents=1;" vertex="1" parent="mjhO0WjfD1zE4prb-MFI-35">
          <mxGeometry x="60" width="60" height="19" as="geometry">
            <mxRectangle width="60" height="19" as="alternateBounds" />
          </mxGeometry>
        </mxCell>
        <mxCell id="mjhO0WjfD1zE4prb-MFI-38" value="1" style="shape=partialRectangle;html=1;whiteSpace=wrap;connectable=0;strokeColor=inherit;overflow=hidden;fillColor=none;top=0;left=0;bottom=0;right=0;pointerEvents=1;" vertex="1" parent="mjhO0WjfD1zE4prb-MFI-35">
          <mxGeometry x="120" width="60" height="19" as="geometry">
            <mxRectangle width="60" height="19" as="alternateBounds" />
          </mxGeometry>
        </mxCell>
        <mxCell id="mjhO0WjfD1zE4prb-MFI-39" value="1" style="shape=partialRectangle;html=1;whiteSpace=wrap;connectable=0;strokeColor=inherit;overflow=hidden;fillColor=none;top=0;left=0;bottom=0;right=0;pointerEvents=1;" vertex="1" parent="mjhO0WjfD1zE4prb-MFI-35">
          <mxGeometry x="180" width="60" height="19" as="geometry">
            <mxRectangle width="60" height="19" as="alternateBounds" />
          </mxGeometry>
        </mxCell>
        <mxCell id="mjhO0WjfD1zE4prb-MFI-40" value="1" style="shape=partialRectangle;html=1;whiteSpace=wrap;connectable=0;strokeColor=inherit;overflow=hidden;fillColor=none;top=0;left=0;bottom=0;right=0;pointerEvents=1;" vertex="1" parent="mjhO0WjfD1zE4prb-MFI-35">
          <mxGeometry x="240" width="60" height="19" as="geometry">
            <mxRectangle width="60" height="19" as="alternateBounds" />
          </mxGeometry>
        </mxCell>
        <mxCell id="mjhO0WjfD1zE4prb-MFI-41" value="" style="shape=tableRow;horizontal=0;startSize=0;swimlaneHead=0;swimlaneBody=0;strokeColor=inherit;top=0;left=0;bottom=0;right=0;collapsible=0;dropTarget=0;fillColor=none;points=[[0,0.5],[1,0.5]];portConstraint=eastwest;" vertex="1" parent="mjhO0WjfD1zE4prb-MFI-4">
          <mxGeometry y="115" width="300" height="19" as="geometry" />
        </mxCell>
        <mxCell id="mjhO0WjfD1zE4prb-MFI-42" value="11" style="shape=partialRectangle;html=1;whiteSpace=wrap;connectable=0;strokeColor=inherit;overflow=hidden;fillColor=none;top=0;left=0;bottom=0;right=0;pointerEvents=1;" vertex="1" parent="mjhO0WjfD1zE4prb-MFI-41">
          <mxGeometry width="60" height="19" as="geometry">
            <mxRectangle width="60" height="19" as="alternateBounds" />
          </mxGeometry>
        </mxCell>
        <mxCell id="mjhO0WjfD1zE4prb-MFI-43" value="1" style="shape=partialRectangle;html=1;whiteSpace=wrap;connectable=0;strokeColor=inherit;overflow=hidden;fillColor=none;top=0;left=0;bottom=0;right=0;pointerEvents=1;" vertex="1" parent="mjhO0WjfD1zE4prb-MFI-41">
          <mxGeometry x="60" width="60" height="19" as="geometry">
            <mxRectangle width="60" height="19" as="alternateBounds" />
          </mxGeometry>
        </mxCell>
        <mxCell id="mjhO0WjfD1zE4prb-MFI-44" value="0" style="shape=partialRectangle;html=1;whiteSpace=wrap;connectable=0;strokeColor=inherit;overflow=hidden;fillColor=none;top=0;left=0;bottom=0;right=0;pointerEvents=1;" vertex="1" parent="mjhO0WjfD1zE4prb-MFI-41">
          <mxGeometry x="120" width="60" height="19" as="geometry">
            <mxRectangle width="60" height="19" as="alternateBounds" />
          </mxGeometry>
        </mxCell>
        <mxCell id="mjhO0WjfD1zE4prb-MFI-45" value="1" style="shape=partialRectangle;html=1;whiteSpace=wrap;connectable=0;strokeColor=inherit;overflow=hidden;fillColor=none;top=0;left=0;bottom=0;right=0;pointerEvents=1;" vertex="1" parent="mjhO0WjfD1zE4prb-MFI-41">
          <mxGeometry x="180" width="60" height="19" as="geometry">
            <mxRectangle width="60" height="19" as="alternateBounds" />
          </mxGeometry>
        </mxCell>
        <mxCell id="mjhO0WjfD1zE4prb-MFI-46" value="1" style="shape=partialRectangle;html=1;whiteSpace=wrap;connectable=0;strokeColor=inherit;overflow=hidden;fillColor=none;top=0;left=0;bottom=0;right=0;pointerEvents=1;" vertex="1" parent="mjhO0WjfD1zE4prb-MFI-41">
          <mxGeometry x="240" width="60" height="19" as="geometry">
            <mxRectangle width="60" height="19" as="alternateBounds" />
          </mxGeometry>
        </mxCell>
        <mxCell id="mjhO0WjfD1zE4prb-MFI-47" value="" style="shape=tableRow;horizontal=0;startSize=0;swimlaneHead=0;swimlaneBody=0;strokeColor=inherit;top=0;left=0;bottom=0;right=0;collapsible=0;dropTarget=0;fillColor=none;points=[[0,0.5],[1,0.5]];portConstraint=eastwest;" vertex="1" parent="mjhO0WjfD1zE4prb-MFI-4">
          <mxGeometry y="134" width="300" height="19" as="geometry" />
        </mxCell>
        <mxCell id="mjhO0WjfD1zE4prb-MFI-48" value="11" style="shape=partialRectangle;html=1;whiteSpace=wrap;connectable=0;strokeColor=inherit;overflow=hidden;fillColor=none;top=0;left=0;bottom=0;right=0;pointerEvents=1;" vertex="1" parent="mjhO0WjfD1zE4prb-MFI-47">
          <mxGeometry width="60" height="19" as="geometry">
            <mxRectangle width="60" height="19" as="alternateBounds" />
          </mxGeometry>
        </mxCell>
        <mxCell id="mjhO0WjfD1zE4prb-MFI-49" value="1" style="shape=partialRectangle;html=1;whiteSpace=wrap;connectable=0;strokeColor=inherit;overflow=hidden;fillColor=none;top=0;left=0;bottom=0;right=0;pointerEvents=1;" vertex="1" parent="mjhO0WjfD1zE4prb-MFI-47">
          <mxGeometry x="60" width="60" height="19" as="geometry">
            <mxRectangle width="60" height="19" as="alternateBounds" />
          </mxGeometry>
        </mxCell>
        <mxCell id="mjhO0WjfD1zE4prb-MFI-50" value="0" style="shape=partialRectangle;html=1;whiteSpace=wrap;connectable=0;strokeColor=inherit;overflow=hidden;fillColor=none;top=0;left=0;bottom=0;right=0;pointerEvents=1;" vertex="1" parent="mjhO0WjfD1zE4prb-MFI-47">
          <mxGeometry x="120" width="60" height="19" as="geometry">
            <mxRectangle width="60" height="19" as="alternateBounds" />
          </mxGeometry>
        </mxCell>
        <mxCell id="mjhO0WjfD1zE4prb-MFI-51" value="1" style="shape=partialRectangle;html=1;whiteSpace=wrap;connectable=0;strokeColor=inherit;overflow=hidden;fillColor=none;top=0;left=0;bottom=0;right=0;pointerEvents=1;" vertex="1" parent="mjhO0WjfD1zE4prb-MFI-47">
          <mxGeometry x="180" width="60" height="19" as="geometry">
            <mxRectangle width="60" height="19" as="alternateBounds" />
          </mxGeometry>
        </mxCell>
        <mxCell id="mjhO0WjfD1zE4prb-MFI-52" value="1" style="shape=partialRectangle;html=1;whiteSpace=wrap;connectable=0;strokeColor=inherit;overflow=hidden;fillColor=none;top=0;left=0;bottom=0;right=0;pointerEvents=1;" vertex="1" parent="mjhO0WjfD1zE4prb-MFI-47">
          <mxGeometry x="240" width="60" height="19" as="geometry">
            <mxRectangle width="60" height="19" as="alternateBounds" />
          </mxGeometry>
        </mxCell>
        <mxCell id="mjhO0WjfD1zE4prb-MFI-53" value="" style="shape=tableRow;horizontal=0;startSize=0;swimlaneHead=0;swimlaneBody=0;strokeColor=inherit;top=0;left=0;bottom=0;right=0;collapsible=0;dropTarget=0;fillColor=none;points=[[0,0.5],[1,0.5]];portConstraint=eastwest;" vertex="1" parent="mjhO0WjfD1zE4prb-MFI-4">
          <mxGeometry y="153" width="300" height="19" as="geometry" />
        </mxCell>
        <mxCell id="mjhO0WjfD1zE4prb-MFI-54" value="7" style="shape=partialRectangle;html=1;whiteSpace=wrap;connectable=0;strokeColor=inherit;overflow=hidden;fillColor=none;top=0;left=0;bottom=0;right=0;pointerEvents=1;" vertex="1" parent="mjhO0WjfD1zE4prb-MFI-53">
          <mxGeometry width="60" height="19" as="geometry">
            <mxRectangle width="60" height="19" as="alternateBounds" />
          </mxGeometry>
        </mxCell>
        <mxCell id="mjhO0WjfD1zE4prb-MFI-55" value="0" style="shape=partialRectangle;html=1;whiteSpace=wrap;connectable=0;strokeColor=inherit;overflow=hidden;fillColor=none;top=0;left=0;bottom=0;right=0;pointerEvents=1;" vertex="1" parent="mjhO0WjfD1zE4prb-MFI-53">
          <mxGeometry x="60" width="60" height="19" as="geometry">
            <mxRectangle width="60" height="19" as="alternateBounds" />
          </mxGeometry>
        </mxCell>
        <mxCell id="mjhO0WjfD1zE4prb-MFI-56" value="1" style="shape=partialRectangle;html=1;whiteSpace=wrap;connectable=0;strokeColor=inherit;overflow=hidden;fillColor=none;top=0;left=0;bottom=0;right=0;pointerEvents=1;" vertex="1" parent="mjhO0WjfD1zE4prb-MFI-53">
          <mxGeometry x="120" width="60" height="19" as="geometry">
            <mxRectangle width="60" height="19" as="alternateBounds" />
          </mxGeometry>
        </mxCell>
        <mxCell id="mjhO0WjfD1zE4prb-MFI-57" value="1" style="shape=partialRectangle;html=1;whiteSpace=wrap;connectable=0;strokeColor=inherit;overflow=hidden;fillColor=none;top=0;left=0;bottom=0;right=0;pointerEvents=1;" vertex="1" parent="mjhO0WjfD1zE4prb-MFI-53">
          <mxGeometry x="180" width="60" height="19" as="geometry">
            <mxRectangle width="60" height="19" as="alternateBounds" />
          </mxGeometry>
        </mxCell>
        <mxCell id="mjhO0WjfD1zE4prb-MFI-58" value="1" style="shape=partialRectangle;html=1;whiteSpace=wrap;connectable=0;strokeColor=inherit;overflow=hidden;fillColor=none;top=0;left=0;bottom=0;right=0;pointerEvents=1;" vertex="1" parent="mjhO0WjfD1zE4prb-MFI-53">
          <mxGeometry x="240" width="60" height="19" as="geometry">
            <mxRectangle width="60" height="19" as="alternateBounds" />
          </mxGeometry>
        </mxCell>
        <mxCell id="mjhO0WjfD1zE4prb-MFI-59" value="" style="shape=tableRow;horizontal=0;startSize=0;swimlaneHead=0;swimlaneBody=0;strokeColor=inherit;top=0;left=0;bottom=0;right=0;collapsible=0;dropTarget=0;fillColor=none;points=[[0,0.5],[1,0.5]];portConstraint=eastwest;" vertex="1" parent="mjhO0WjfD1zE4prb-MFI-4">
          <mxGeometry y="172" width="300" height="20" as="geometry" />
        </mxCell>
        <mxCell id="mjhO0WjfD1zE4prb-MFI-60" value="5" style="shape=partialRectangle;html=1;whiteSpace=wrap;connectable=0;strokeColor=inherit;overflow=hidden;fillColor=none;top=0;left=0;bottom=0;right=0;pointerEvents=1;" vertex="1" parent="mjhO0WjfD1zE4prb-MFI-59">
          <mxGeometry width="60" height="20" as="geometry">
            <mxRectangle width="60" height="20" as="alternateBounds" />
          </mxGeometry>
        </mxCell>
        <mxCell id="mjhO0WjfD1zE4prb-MFI-61" value="0" style="shape=partialRectangle;html=1;whiteSpace=wrap;connectable=0;strokeColor=inherit;overflow=hidden;fillColor=none;top=0;left=0;bottom=0;right=0;pointerEvents=1;" vertex="1" parent="mjhO0WjfD1zE4prb-MFI-59">
          <mxGeometry x="60" width="60" height="20" as="geometry">
            <mxRectangle width="60" height="20" as="alternateBounds" />
          </mxGeometry>
        </mxCell>
        <mxCell id="mjhO0WjfD1zE4prb-MFI-62" value="1" style="shape=partialRectangle;html=1;whiteSpace=wrap;connectable=0;strokeColor=inherit;overflow=hidden;fillColor=none;top=0;left=0;bottom=0;right=0;pointerEvents=1;" vertex="1" parent="mjhO0WjfD1zE4prb-MFI-59">
          <mxGeometry x="120" width="60" height="20" as="geometry">
            <mxRectangle width="60" height="20" as="alternateBounds" />
          </mxGeometry>
        </mxCell>
        <mxCell id="mjhO0WjfD1zE4prb-MFI-63" value="0" style="shape=partialRectangle;html=1;whiteSpace=wrap;connectable=0;strokeColor=inherit;overflow=hidden;fillColor=none;top=0;left=0;bottom=0;right=0;pointerEvents=1;" vertex="1" parent="mjhO0WjfD1zE4prb-MFI-59">
          <mxGeometry x="180" width="60" height="20" as="geometry">
            <mxRectangle width="60" height="20" as="alternateBounds" />
          </mxGeometry>
        </mxCell>
        <mxCell id="mjhO0WjfD1zE4prb-MFI-64" value="1" style="shape=partialRectangle;html=1;whiteSpace=wrap;connectable=0;strokeColor=inherit;overflow=hidden;fillColor=none;top=0;left=0;bottom=0;right=0;pointerEvents=1;" vertex="1" parent="mjhO0WjfD1zE4prb-MFI-59">
          <mxGeometry x="240" width="60" height="20" as="geometry">
            <mxRectangle width="60" height="20" as="alternateBounds" />
          </mxGeometry>
        </mxCell>
        <mxCell id="mjhO0WjfD1zE4prb-MFI-65" value="" style="shape=tableRow;horizontal=0;startSize=0;swimlaneHead=0;swimlaneBody=0;strokeColor=inherit;top=0;left=0;bottom=0;right=0;collapsible=0;dropTarget=0;fillColor=none;points=[[0,0.5],[1,0.5]];portConstraint=eastwest;" vertex="1" parent="mjhO0WjfD1zE4prb-MFI-4">
          <mxGeometry y="192" width="300" height="19" as="geometry" />
        </mxCell>
        <mxCell id="mjhO0WjfD1zE4prb-MFI-66" value="11" style="shape=partialRectangle;html=1;whiteSpace=wrap;connectable=0;strokeColor=inherit;overflow=hidden;fillColor=none;top=0;left=0;bottom=0;right=0;pointerEvents=1;" vertex="1" parent="mjhO0WjfD1zE4prb-MFI-65">
          <mxGeometry width="60" height="19" as="geometry">
            <mxRectangle width="60" height="19" as="alternateBounds" />
          </mxGeometry>
        </mxCell>
        <mxCell id="mjhO0WjfD1zE4prb-MFI-67" value="1" style="shape=partialRectangle;html=1;whiteSpace=wrap;connectable=0;strokeColor=inherit;overflow=hidden;fillColor=none;top=0;left=0;bottom=0;right=0;pointerEvents=1;" vertex="1" parent="mjhO0WjfD1zE4prb-MFI-65">
          <mxGeometry x="60" width="60" height="19" as="geometry">
            <mxRectangle width="60" height="19" as="alternateBounds" />
          </mxGeometry>
        </mxCell>
        <mxCell id="mjhO0WjfD1zE4prb-MFI-68" value="0" style="shape=partialRectangle;html=1;whiteSpace=wrap;connectable=0;strokeColor=inherit;overflow=hidden;fillColor=none;top=0;left=0;bottom=0;right=0;pointerEvents=1;" vertex="1" parent="mjhO0WjfD1zE4prb-MFI-65">
          <mxGeometry x="120" width="60" height="19" as="geometry">
            <mxRectangle width="60" height="19" as="alternateBounds" />
          </mxGeometry>
        </mxCell>
        <mxCell id="mjhO0WjfD1zE4prb-MFI-69" value="1" style="shape=partialRectangle;html=1;whiteSpace=wrap;connectable=0;strokeColor=inherit;overflow=hidden;fillColor=none;top=0;left=0;bottom=0;right=0;pointerEvents=1;" vertex="1" parent="mjhO0WjfD1zE4prb-MFI-65">
          <mxGeometry x="180" width="60" height="19" as="geometry">
            <mxRectangle width="60" height="19" as="alternateBounds" />
          </mxGeometry>
        </mxCell>
        <mxCell id="mjhO0WjfD1zE4prb-MFI-70" value="1" style="shape=partialRectangle;html=1;whiteSpace=wrap;connectable=0;strokeColor=inherit;overflow=hidden;fillColor=none;top=0;left=0;bottom=0;right=0;pointerEvents=1;" vertex="1" parent="mjhO0WjfD1zE4prb-MFI-65">
          <mxGeometry x="240" width="60" height="19" as="geometry">
            <mxRectangle width="60" height="19" as="alternateBounds" />
          </mxGeometry>
        </mxCell>
        <mxCell id="mjhO0WjfD1zE4prb-MFI-71" value="" style="shape=tableRow;horizontal=0;startSize=0;swimlaneHead=0;swimlaneBody=0;strokeColor=inherit;top=0;left=0;bottom=0;right=0;collapsible=0;dropTarget=0;fillColor=none;points=[[0,0.5],[1,0.5]];portConstraint=eastwest;" vertex="1" parent="mjhO0WjfD1zE4prb-MFI-4">
          <mxGeometry y="211" width="300" height="19" as="geometry" />
        </mxCell>
        <mxCell id="mjhO0WjfD1zE4prb-MFI-72" value="Sum" style="shape=partialRectangle;html=1;whiteSpace=wrap;connectable=0;strokeColor=inherit;overflow=hidden;fillColor=none;top=0;left=0;bottom=0;right=0;pointerEvents=1;" vertex="1" parent="mjhO0WjfD1zE4prb-MFI-71">
          <mxGeometry width="60" height="19" as="geometry">
            <mxRectangle width="60" height="19" as="alternateBounds" />
          </mxGeometry>
        </mxCell>
        <mxCell id="mjhO0WjfD1zE4prb-MFI-73" value="4" style="shape=partialRectangle;html=1;whiteSpace=wrap;connectable=0;strokeColor=inherit;overflow=hidden;fillColor=none;top=0;left=0;bottom=0;right=0;pointerEvents=1;" vertex="1" parent="mjhO0WjfD1zE4prb-MFI-71">
          <mxGeometry x="60" width="60" height="19" as="geometry">
            <mxRectangle width="60" height="19" as="alternateBounds" />
          </mxGeometry>
        </mxCell>
        <mxCell id="mjhO0WjfD1zE4prb-MFI-74" value="6" style="shape=partialRectangle;html=1;whiteSpace=wrap;connectable=0;strokeColor=inherit;overflow=hidden;fillColor=none;top=0;left=0;bottom=0;right=0;pointerEvents=1;" vertex="1" parent="mjhO0WjfD1zE4prb-MFI-71">
          <mxGeometry x="120" width="60" height="19" as="geometry">
            <mxRectangle width="60" height="19" as="alternateBounds" />
          </mxGeometry>
        </mxCell>
        <mxCell id="mjhO0WjfD1zE4prb-MFI-75" value="6" style="shape=partialRectangle;html=1;whiteSpace=wrap;connectable=0;strokeColor=inherit;overflow=hidden;fillColor=none;top=0;left=0;bottom=0;right=0;pointerEvents=1;" vertex="1" parent="mjhO0WjfD1zE4prb-MFI-71">
          <mxGeometry x="180" width="60" height="19" as="geometry">
            <mxRectangle width="60" height="19" as="alternateBounds" />
          </mxGeometry>
        </mxCell>
        <mxCell id="mjhO0WjfD1zE4prb-MFI-76" value="10" style="shape=partialRectangle;html=1;whiteSpace=wrap;connectable=0;strokeColor=inherit;overflow=hidden;fillColor=none;top=0;left=0;bottom=0;right=0;pointerEvents=1;" vertex="1" parent="mjhO0WjfD1zE4prb-MFI-71">
          <mxGeometry x="240" width="60" height="19" as="geometry">
            <mxRectangle width="60" height="19" as="alternateBounds" />
          </mxGeometry>
        </mxCell>
        <mxCell id="mjhO0WjfD1zE4prb-MFI-77" value="Sum % 3 = (1 0 0 1) = 9&lt;br&gt;&lt;br&gt;&lt;div style=&quot;&quot;&gt;3 because all number are repeating thrice&lt;/div&gt;" style="text;html=1;align=left;verticalAlign=middle;resizable=0;points=[];autosize=1;strokeColor=none;fillColor=none;" vertex="1" parent="mjhO0WjfD1zE4prb-MFI-2">
          <mxGeometry x="25" y="321" width="239" height="55" as="geometry" />
        </mxCell>
      </root>
    </mxGraphModel>
  </diagram>
</mxfile>
